SplineFontDB: 3.0
FontName: LakkiReddy
FullName: LakkiReddy
FamilyName: LakkiReddy
OS2FamilyName: "LakkiReddy"
OS2StyleName: "regular"
Weight: Normal
Copyright: Copyright 2011 Silicon Andhra.
Version: 1.0
FONDName: LakkiReddy
ItalicAngle: 0
UnderlinePosition: -310
UnderlineWidth: 20
Ascent: 819
Descent: 205
InvalidEm: 1
UFOAscent: 1617
UFODescent: -784
LayerCount: 2
Layer: 0 1 "Back" 1
Layer: 1 1 "Fore" 0
FSType: 0
OS2Version: 0
OS2_WeightWidthSlopeOnly: 0
OS2_UseTypoMetrics: 0
CreationTime: 1418103458
ModificationTime: 1418103458
PfmFamily: 16
TTFWeight: 400
TTFWidth: 5
LineGap: 200
VLineGap: 0
Panose: 2 0 6 0 0 0 0 0 0 0
OS2TypoAscent: 1617
OS2TypoAOffset: 0
OS2TypoDescent: -784
OS2TypoDOffset: 0
OS2TypoLinegap: 20
OS2WinAscent: 910
OS2WinAOffset: 0
OS2WinDescent: 798
OS2WinDOffset: 0
HheadAscent: 910
HheadAOffset: 0
HheadDescent: -798
HheadDOffset: 0
OS2SubXSize: 717
OS2SubYSize: 666
OS2SubXOff: 0
OS2SubYOff: 205
OS2SupXSize: 717
OS2SupYSize: 666
OS2SupXOff: 0
OS2SupYOff: 512
OS2StrikeYSize: 50
OS2StrikeYPos: 250
OS2CapHeight: 0
OS2XHeight: 0
OS2Vendor: 'SA  '
OS2CodePages: 00000001.00000000
OS2UnicodeRanges: 80208001.00002042.00000030.00000000
DEI: 91125
Group: "abvs1" "U0C15 U0C16 U0C17 U0C18 U0C19 U0C1A U0C1B U0C1C U0C1D U0C1E U0C1F U0C20 U0C21 U0C22 U0C23 U0C24 U0C25 U0C26 U0C27 U0C28 U0C2A U0C2B U0C2C U0C2D U0C2E U0C2F U0C30 U0C31 U0C32 U0C33 U0C35 U0C36 U0C37 U0C38 U0C39"
Group: "blws1" "U0C15_U0C4D.blwf U0C1A_U0C4D.blwf U0C1B_U0C4D.blwf U0C28_U0C4D.blwf U0C2A_U0C4D.blwf U0C2B_U0C4D.blwf U0C2C_U0C4D.blwf U0C2D_U0C4D.blwf U0C2E_U0C4D.blwf U0C2F_U0C4D.blwf U0C33_U0C4D.blwf U0C35_U0C4D.blwf U0C36_U0C4D.blwf U0C38_U0C4D.blwf"

StartChar: .notdef
Encoding: 0 -1 0
GlifName: _notdef
Width: 374
VWidth: 0
Flags: W
LayerCount: 2
Back
Fore
SplineSet
34 0 m 257
NamedP: "hr00"
 34 682 l 257
 306 682 l 257
 306 0 l 257
 34 0 l 257
NamedP: "hr00"
68 34 m 257
 272 34 l 257
 272 648 l 257
 68 648 l 257
 68 34 l 257
EndSplineSet
PickledDataWithLists: "(dp1
S'com.adobe.type.autohint'
p2
(S'data'
S'<data>\\n  <hintSetList>\\n    <hintset pointTag=\"hr00\">\\n      <hstem pos=\"0\" width=\"34\"/>\\n      <hstem pos=\"648\" width=\"34\"/>\\n      <vstem pos=\"34\" width=\"34\"/>\\n      <vstem pos=\"272\" width=\"34\"/>\\n    </hintset>\\n  </hintSetList>\\n  </data>'
Ntp3
s."
EndChar

StartChar: exclam
Encoding: 4 33 4
GlifName: exclam
Width: 160
VWidth: 0
Flags: W
LayerCount: 2
Back
Fore
SplineSet
70 119 m 257
NamedP: "hr00"
 62 152 62 152 51 182 c 128
 40 212 40 212 29 242.5 c 128
 18 273 18 273 10.5 307 c 128
 3 341 3 341 3 381 c 257
 3 393 3 393 3 409 c 128
 3 425 3 425 9 439.5 c 128
 15 454 15 454 30.5 464 c 128
 46 474 46 474 77 474 c 257
 113 474 113 474 129.5 463.5 c 128
 146 453 146 453 152.5 437.5 c 128
 159 422 159 422 158.5 406.5 c 128
 158 391 158 391 158 382 c 257
 158 345 158 345 150 312 c 128
 142 279 142 279 131.5 247.5 c 128
 121 216 121 216 108 184.5 c 128
 95 153 95 153 86 119 c 257
 70 119 l 257
NamedP: "hr00"
73 0 m 257
 41 0 41 0 30.5 13.5 c 128
 20 27 20 27 24 43 c 128
 28 59 28 59 43 73 c 128
 58 87 58 87 77 88 c 257
 93 87 93 87 107.5 73 c 128
 122 59 122 59 126 43 c 128
 130 27 130 27 119 13.5 c 128
 108 0 108 0 73 0 c 257
EndSplineSet
PickledDataWithLists: "(dp1
S'com.adobe.type.autohint'
p2
(S'data'
S'<data>\\n  <hintSetList>\\n    <hintset pointTag=\"hr00\">\\n      <hstem pos=\"0\" width=\"88\"/>\\n      <hstem pos=\"474\" width=\"-20\"/>\\n      <vstem pos=\"3\" width=\"155\"/>\\n    </hintset>\\n  </hintSetList>\\n  </data>'
Ntp3
s."
EndChar

StartChar: parenleft
Encoding: 5 40 5
GlifName: parenleft
Width: 401
VWidth: 0
Flags: W
LayerCount: 2
Back
Fore
SplineSet
317 604 m 257
NamedP: "hr00"
 331 605 331 605 337 595.5 c 128
 343 586 343 586 342 575 c 128
 341 564 341 564 332.5 556 c 128
 324 548 324 548 306 551 c 257
 291 550 291 550 263.5 531.5 c 128
 236 513 236 513 209 481.5 c 128
 182 450 182 450 162 407.5 c 128
 142 365 142 365 142 315 c 257
 142 275 142 275 162.5 236.5 c 128
 183 198 183 198 210.5 167 c 128
 238 136 238 136 265.5 116.5 c 128
 293 97 293 97 308 97 c 257
 310 111 310 111 318.5 115.5 c 128
 327 120 327 120 335 119 c 128
 343 118 343 118 348 111 c 128
 353 104 353 104 350 95 c 257
 345 84 345 84 333 75 c 128
 321 66 321 66 307.5 55 c 128
 294 44 294 44 282 30 c 128
 270 16 270 16 266 -3 c 257
 248 13 248 13 212.5 43 c 128
 177 73 177 73 142.5 113 c 128
 108 153 108 153 82 202.5 c 128
 56 252 56 252 56 308 c 257
 56 358 56 358 83 410.5 c 128
 110 463 110 463 149 505.5 c 128
 188 548 188 548 234 575 c 128
 280 602 280 602 317 604 c 257
NamedP: "hr00"
EndSplineSet
PickledDataWithLists: "(dp1
S'com.adobe.type.autohint'
p2
(S'data'
S'<data>\\n  <hintSetList>\\n    <hintset pointTag=\"hr00\">\\n      <hstem pos=\"18\" width=\"-21\"/>\\n      <hstem pos=\"551\" width=\"53\"/>\\n      <vstem pos=\"56\" width=\"86\"/>\\n    </hintset>\\n  </hintSetList>\\n  </data>'
Ntp3
s."
EndChar

StartChar: parenright
Encoding: 6 41 6
GlifName: parenright
Width: 422
VWidth: 0
Flags: W
LayerCount: 2
Back
Fore
SplineSet
97 604 m 257
NamedP: "hr00"
 135 602 135 602 180.5 575 c 128
 226 548 226 548 265.5 505.5 c 128
 305 463 305 463 331.5 410.5 c 128
 358 358 358 358 358 308 c 257
 358 252 358 252 332.5 202.5 c 128
 307 153 307 153 272.5 113 c 128
 238 73 238 73 202.5 43 c 128
 167 13 167 13 148 -3 c 257
 143 16 143 16 132 30 c 128
 121 44 121 44 107.5 55 c 128
 94 66 94 66 82 75 c 128
 70 84 70 84 65 95 c 257
 61 104 61 104 66.5 111 c 128
 72 118 72 118 80 119 c 128
 88 120 88 120 96 115.5 c 128
 104 111 104 111 106 97 c 257
 122 97 122 97 149.5 116.5 c 128
 177 136 177 136 204 167 c 128
 231 198 231 198 251.5 236.5 c 128
 272 275 272 275 272 315 c 257
 272 365 272 365 252 407.5 c 128
 232 450 232 450 205.5 481.5 c 128
 179 513 179 513 151.5 531.5 c 128
 124 550 124 550 109 551 c 257
 91 548 91 548 82.5 556 c 128
 74 564 74 564 73 575 c 128
 72 586 72 586 78 595.5 c 128
 84 605 84 605 97 604 c 257
NamedP: "hr00"
EndSplineSet
PickledDataWithLists: "(dp1
S'com.adobe.type.autohint'
p2
(S'data'
S'<data>\\n  <hintSetList>\\n    <hintset pointTag=\"hr00\">\\n      <hstem pos=\"18\" width=\"-21\"/>\\n      <vstem pos=\"272\" width=\"86\"/>\\n    </hintset>\\n  </hintSetList>\\n  </data>'
Ntp3
s."
EndChar

StartChar: plus
Encoding: 7 43 7
GlifName: plus
Width: 421
VWidth: 0
Flags: W
LayerCount: 2
Back
Fore
SplineSet
251 421 m 257
NamedP: "hr00"
 252 286 l 257
 388 287 l 257
 371 189 l 257
 252 189 l 257
 252 70 l 257
 155 70 l 257
 155 189 l 257
 24 188 l 257
 35 286 l 257
 155 286 l 257
 155 406 l 257
 251 421 l 257
NamedP: "hr00"
EndSplineSet
PickledDataWithLists: "(dp1
S'com.adobe.type.autohint'
p2
(S'data'
S'<data>\\n  <hintSetList>\\n    <hintset pointTag=\"hr00\">\\n      <hstem pos=\"91\" width=\"-21\"/>\\n      <hstem pos=\"188\" width=\"98\"/>\\n      <hstem pos=\"421\" width=\"-20\"/>\\n      <vstem pos=\"155\" width=\"96\"/>\\n    </hintset>\\n  </hintSetList>\\n  </data>'
Ntp3
s."
EndChar

StartChar: comma
Encoding: 8 44 8
GlifName: comma
Width: 191
VWidth: 0
Flags: W
LayerCount: 2
Back
Fore
SplineSet
34 -49 m 257
NamedP: "hr00"
 51 -40 51 -40 51 -22 c 257
 51 -9 51 -9 43 -4 c 257
 40 -4 40 -4 37 -3 c 257
 32 -1 32 -1 27 1.5 c 128
 22 4 22 4 16 9 c 257
 3 20 3 20 2 39 c 257
 1 43 1 43 2 49 c 128
 3 55 3 55 6 61.5 c 128
 9 68 9 68 13.5 74 c 128
 18 80 18 80 23 84.5 c 128
 28 89 28 89 33 92 c 128
 38 95 38 95 42 96 c 257
 51 97 51 97 60 95.5 c 128
 69 94 69 94 76.5 90.5 c 128
 84 87 84 87 89.5 81.5 c 128
 95 76 95 76 99 68 c 257
 100 68 l 257
 119 31 119 31 91 -23 c 257
 77 -46 77 -46 49 -57 c 257
 34 -49 l 257
NamedP: "hr00"
EndSplineSet
PickledDataWithLists: "(dp1
S'com.adobe.type.autohint'
p2
(S'data'
S'<data>\\n  <hintSetList>\\n    <hintset pointTag=\"hr00\">\\n      <hstem pos=\"-36\" width=\"-21\"/>\\n    </hintset>\\n  </hintSetList>\\n  </data>'
Ntp3
s."
EndChar

StartChar: hyphen
Encoding: 9 45 9
GlifName: hyphen
Width: 441
VWidth: 0
Flags: W
LayerCount: 2
Back
Fore
SplineSet
371 189 m 257
 17 189 l 257
 35 286 l 257
NamedP: "hr01"
 392 289 l 257
 371 189 l 257
EndSplineSet
PickledDataWithLists: "(dp1
S'com.adobe.type.autohint'
p2
(S'data'
S'<data>\\n  <hintSetList>\\n    <hintset pointTag=\"hr01\">\\n      <hstem pos=\"189\" width=\"98\"/>\\n    </hintset>\\n    <hintset pointTag=\"hr01\">\\n      <hstem pos=\"289\" width=\"-20\"/>\\n    </hintset>\\n  </hintSetList>\\n  </data>'
Ntp3
s."
EndChar

StartChar: period
Encoding: 10 46 10
GlifName: period
Width: 185
VWidth: 0
Flags: W
LayerCount: 2
Back
Fore
SplineSet
115 84 m 257
 117 76 117 76 116 63.5 c 128
 115 51 115 51 109 39.5 c 128
 103 28 103 28 93 17.5 c 128
 83 7 83 7 69 2 c 257
 54 -2 54 -2 42.5 1.5 c 128
 31 5 31 5 22 12.5 c 128
 13 20 13 20 8 30.5 c 128
 3 41 3 41 1 50 c 257
 0 55 0 55 1.5 62.5 c 128
 3 70 3 70 6.5 77 c 128
 10 84 10 84 15 91 c 128
 20 98 20 98 26 104 c 128
 32 110 32 110 37.5 113.5 c 128
 43 117 43 117 48 118 c 257
 58 119 58 119 68.5 117.5 c 128
 79 116 79 116 88 111 c 128
 97 106 97 106 104 99.5 c 128
 111 93 111 93 115 84 c 257
EndSplineSet
EndChar

StartChar: slash
Encoding: 11 47 11
GlifName: slash
Width: 381
VWidth: 0
Flags: W
LayerCount: 2
Back
Fore
SplineSet
312 512 m 257
NamedP: "hr00"
 98 -25 l 257
 3 -25 l 257
 214 512 l 257
 312 512 l 257
NamedP: "hr00"
EndSplineSet
PickledDataWithLists: "(dp1
S'com.adobe.type.autohint'
p2
(S'data'
S'<data>\\n  <hintSetList>\\n    <hintset pointTag=\"hr00\">\\n      <hstem pos=\"-4\" width=\"-21\"/>\\n      <hstem pos=\"512\" width=\"-20\"/>\\n    </hintset>\\n  </hintSetList>\\n  </data>'
Ntp3
s."
EndChar

StartChar: zero
Encoding: 12 48 12
GlifName: zero
Width: 678
VWidth: 0
Flags: W
LayerCount: 2
Back
Fore
SplineSet
596 240 m 257
NamedP: "hr00"
 596 208 596 208 578 178 c 128
 560 148 560 148 532 121.5 c 128
 504 95 504 95 469.5 72.5 c 128
 435 50 435 50 401 34 c 128
 367 18 367 18 337.5 9 c 128
 308 0 308 0 291 0 c 257
 280 0 280 0 253.5 9 c 128
 227 18 227 18 195 33.5 c 128
 163 49 163 49 128 70 c 128
 93 91 93 91 65 115 c 128
 37 139 37 139 18.5 164.5 c 128
 0 190 0 190 0 216 c 257
 0 246 0 246 16.5 277 c 128
 33 308 33 308 58.5 336.5 c 128
 84 365 84 365 115 390 c 128
 146 415 146 415 177 433.5 c 128
 208 452 208 452 234 462.5 c 128
 260 473 260 473 274 473 c 257
 305 473 305 473 340.5 463 c 128
 376 453 376 453 411.5 435 c 128
 447 417 447 417 480.5 394 c 128
 514 371 514 371 539.5 344.5 c 128
 565 318 565 318 580.5 291 c 128
 596 264 596 264 596 240 c 257
NamedP: "hr00"
350 397 m 257
 355 376 355 376 345.5 361.5 c 128
 336 347 336 347 307 347 c 257
 284 347 284 347 270.5 365 c 128
 257 383 257 383 265 403 c 257
 198 369 198 369 167.5 335 c 128
 137 301 137 301 133 271.5 c 128
 129 242 129 242 145.5 216.5 c 128
 162 191 162 191 187.5 173 c 128
 213 155 213 155 242.5 144.5 c 128
 272 134 272 134 294 134 c 257
 339 134 339 134 374 148.5 c 128
 409 163 409 163 431 186 c 128
 453 209 453 209 461 238 c 128
 469 267 469 267 460.5 296.5 c 128
 452 326 452 326 424.5 352.5 c 128
 397 379 397 379 350 397 c 257
EndSplineSet
PickledDataWithLists: "(dp1
S'com.adobe.type.autohint'
p2
(S'data'
S'<data>\\n  <hintSetList>\\n    <hintset pointTag=\"hr00\">\\n      <hstem pos=\"0\" width=\"134\"/>\\n      <hstem pos=\"347\" width=\"126\"/>\\n    </hintset>\\n  </hintSetList>\\n  </data>'
Ntp3
s."
EndChar

StartChar: one
Encoding: 13 49 13
GlifName: one
Width: 397
VWidth: 0
Flags: W
LayerCount: 2
Back
Fore
SplineSet
308 29 m 257
 296 5 296 5 269.5 2.5 c 128
 243 0 243 0 209 5.5 c 128
 175 11 175 11 138.5 20 c 128
 102 29 102 29 72 29 c 257
 54 29 54 29 34 20.5 c 128
 14 12 14 12 2 -1 c 257
 -5 -8 -5 -8 1 8.5 c 128
 7 25 7 25 19.5 57.5 c 128
 32 90 32 90 46.5 134.5 c 128
 61 179 61 179 70 227.5 c 128
 79 276 79 276 78 325 c 128
 77 374 77 374 58 414 c 257
 62 404 62 404 53.5 396 c 128
 45 388 45 388 33.5 387.5 c 128
 22 387 22 387 11 395.5 c 128
 0 404 0 404 0 429 c 257
 0 453 0 453 15.5 462.5 c 128
 31 472 31 472 54 474 c 128
 77 476 77 476 104.5 474 c 128
 132 472 132 472 157 472.5 c 128
 182 473 182 473 201.5 480 c 128
 221 487 221 487 227 507 c 257
 210 466 210 466 198 402.5 c 128
 186 339 186 339 186 272.5 c 128
 186 206 186 206 200 146.5 c 128
 214 87 214 87 249 53 c 257
 249 77 249 77 262.5 84 c 128
 276 91 276 91 290 86 c 128
 304 81 304 81 311.5 65.5 c 128
 319 50 319 50 308 29 c 257
EndSplineSet
EndChar

StartChar: two
Encoding: 14 50 14
GlifName: two
Width: 566
VWidth: 0
Flags: W
LayerCount: 2
Back
Fore
SplineSet
484 160 m 257
 484 133 484 133 471.5 121.5 c 128
 459 110 459 110 440.5 97.5 c 128
 422 85 422 85 402.5 65 c 128
 383 45 383 45 370 2 c 257
 314 20 314 20 263 24 c 128
 212 28 212 28 171.5 23.5 c 128
 131 19 131 19 105 11.5 c 128
 79 4 79 4 74 0 c 257
 61 0 61 0 48 8.5 c 128
 35 17 35 17 24 29 c 128
 13 41 13 41 6.5 54 c 128
 0 67 0 67 1 75 c 257
 15 86 15 86 43 102 c 128
 71 118 71 118 103.5 137 c 128
 136 156 136 156 170 177.5 c 128
 204 199 204 199 231.5 221.5 c 128
 259 244 259 244 277 266.5 c 128
 295 289 295 289 295 309 c 257
NamedP: "hr01"
 295 335 295 335 270 346.5 c 128
 245 358 245 358 211.5 357 c 128
 178 356 178 356 146 344.5 c 128
 114 333 114 333 98 312 c 257
 109 302 109 302 116 292 c 128
 123 282 123 282 124 273.5 c 128
 125 265 125 265 118 260 c 128
 111 255 111 255 91 255 c 257
 74 255 74 255 61.5 273.5 c 128
 49 292 49 292 39 316.5 c 128
 29 341 29 341 18 365.5 c 128
 7 390 7 390 -7 402 c 257
 22 414 22 414 42.5 426.5 c 128
 63 439 63 439 81.5 450 c 128
 100 461 100 461 119.5 468 c 128
 139 475 139 475 166 475 c 257
 219 475 219 475 261 455 c 128
 303 435 303 435 329.5 404 c 128
 356 373 356 373 365 333.5 c 128
 374 294 374 294 359 254.5 c 128
 344 215 344 215 304 179.5 c 128
 264 144 264 144 195 121 c 257
 267 116 267 116 310 117 c 128
 353 118 353 118 377 122.5 c 128
 401 127 401 127 412 135 c 128
 423 143 423 143 432 154 c 257
 423 153 423 153 417 160.5 c 128
 411 168 411 168 411 177.5 c 128
 411 187 411 187 419 195.5 c 128
 427 204 427 204 446 204 c 257
 467 204 467 204 475.5 191.5 c 128
 484 179 484 179 484 160 c 257
EndSplineSet
PickledDataWithLists: "(dp1
S'com.adobe.type.autohint'
p2
(S'data'
S'<data>\\n  <hintSetList>\\n    <hintset pointTag=\"hr01\">\\n      <hstem pos=\"21\" width=\"-21\"/>\\n      <hstem pos=\"255\" width=\"220\"/>\\n      <vstem pos=\"295\" width=\"189\"/>\\n    </hintset>\\n  </hintSetList>\\n  </data>'
Ntp3
s."
EndChar

StartChar: three
Encoding: 15 51 15
GlifName: three
Width: 460
VWidth: 0
Flags: W
LayerCount: 2
Back
Fore
SplineSet
377 97 m 257
 373 59 373 59 352 39 c 128
 331 19 331 19 299.5 10.5 c 128
 268 2 268 2 231 0.5 c 128
 194 -1 194 -1 156.5 -0.5 c 128
 119 0 119 0 84.5 -1 c 128
 50 -2 50 -2 27 -11 c 257
 34 23 34 23 30.5 49 c 128
 27 75 27 75 19 96.5 c 128
 11 118 11 118 4.5 137 c 128
 -2 156 -2 156 0 175 c 257
 2 191 2 191 16 195 c 128
 30 199 30 199 41.5 193 c 128
 53 187 53 187 56 174.5 c 128
 59 162 59 162 41 146 c 257
 47 135 47 135 61.5 130 c 128
 76 125 76 125 93 122 c 257
 110 119 110 119 137.5 114.5 c 128
 165 110 165 110 192.5 111.5 c 128
 220 113 220 113 241 125.5 c 128
 262 138 262 138 266 169 c 257
 268 187 268 187 258 198 c 128
 248 209 248 209 233.5 212.5 c 128
 219 216 219 216 203 212.5 c 128
 187 209 187 209 178 200 c 257
 169 202 169 202 163 210.5 c 128
 157 219 157 219 154 230.5 c 128
 151 242 151 242 150.5 253.5 c 128
 150 265 150 265 151 273 c 257
 194 263 194 263 222 273 c 128
 250 283 250 283 257 298.5 c 128
 264 314 264 314 247.5 331.5 c 128
 231 349 231 349 185 354 c 257
 171 356 171 356 153.5 355 c 128
 136 354 136 354 119.5 351.5 c 128
 103 349 103 349 90.5 346 c 128
 78 343 78 343 74 340 c 257
 86 333 86 333 88 324.5 c 128
 90 316 90 316 86 309.5 c 128
 82 303 82 303 72.5 300 c 128
 63 297 63 297 52 301 c 257
 44 304 44 304 37.5 324.5 c 128
 31 345 31 345 24.5 369.5 c 128
 18 394 18 394 11.5 416 c 128
 5 438 5 438 -4 443 c 257
 20 440 20 440 48.5 445 c 128
 77 450 77 450 106 456.5 c 128
 135 463 135 463 164 469 c 128
 193 475 193 475 220 474 c 257
 236 474 236 474 259.5 464 c 128
 283 454 283 454 305 436 c 128
 327 418 327 418 344 395 c 128
 361 372 361 372 365.5 346.5 c 128
 370 321 370 321 357 295 c 128
 344 269 344 269 305 246 c 257
 330 234 330 234 344.5 218 c 128
 359 202 359 202 367.5 182 c 128
 376 162 376 162 378 140.5 c 128
 380 119 380 119 377 97 c 257
EndSplineSet
EndChar

StartChar: four
Encoding: 16 52 16
GlifName: four
Width: 545
VWidth: 0
Flags: W
LayerCount: 2
Back
Fore
SplineSet
421 69 m 257
 417 70 417 70 407 72.5 c 128
 397 75 397 75 385.5 77.5 c 128
 374 80 374 80 361.5 82.5 c 128
 349 85 349 85 340 87 c 257
 340 81 340 81 346.5 70 c 128
 353 59 353 59 362 48 c 128
 371 37 371 37 380 27.5 c 128
 389 18 389 18 395 15 c 257
 395 6 395 6 394.5 2.5 c 128
 394 -1 394 -1 386 0 c 257
 360 3 360 3 344 6 c 128
 328 9 328 9 311 10 c 128
 294 11 294 11 272.5 9 c 128
 251 7 251 7 215 0 c 257
 203 -2 203 -2 194 4 c 128
 185 10 185 10 184 18.5 c 128
 183 27 183 27 191.5 32.5 c 128
 200 38 200 38 221 34 c 257
 228 32 228 32 234.5 38.5 c 128
 241 45 241 45 244.5 55 c 128
 248 65 248 65 250 75 c 128
 252 85 252 85 252 91 c 257
NamedP: "hr01"
 178 99 178 99 115.5 94 c 128
 53 89 53 89 1 78 c 257
 0 93 0 93 1 116 c 128
 2 139 2 139 -1 162.5 c 128
 -4 186 -4 186 -13 207.5 c 128
 -22 229 -22 229 -43 241 c 257
 -6 257 -6 257 17 276.5 c 128
 40 296 40 296 56.5 320 c 128
 73 344 73 344 86 372.5 c 128
 99 401 99 401 118 435 c 257
 115 434 115 434 106 433 c 128
 97 432 97 432 89 433 c 128
 81 434 81 434 76 438 c 128
 71 442 71 442 73 452 c 257
 77 466 77 466 90.5 470.5 c 128
 104 475 104 475 124 475 c 128
 144 475 144 475 167 473.5 c 128
 190 472 190 472 212 474 c 257
 202 455 202 455 190.5 419 c 128
 179 383 179 383 162.5 342.5 c 128
 146 302 146 302 124 262 c 128
 102 222 102 222 71 195 c 257
 267 195 l 257
 269 211 269 211 271.5 230.5 c 128
 274 250 274 250 281.5 267 c 128
 289 284 289 284 301.5 295.5 c 128
 314 307 314 307 338 307 c 257
 380 307 380 307 406 290 c 128
 432 273 432 273 445.5 247.5 c 128
 459 222 459 222 462 192 c 128
 465 162 465 162 460 135.5 c 128
 455 109 455 109 444.5 90.5 c 128
 434 72 434 72 421 69 c 257
397 227 m 257
 397 230 397 230 394.5 236 c 128
 392 242 392 242 388 247.5 c 128
 384 253 384 253 379 257 c 128
 374 261 374 261 370 261 c 257
 362 261 362 261 352.5 253.5 c 128
 343 246 343 246 336 235 c 128
 329 224 329 224 326.5 212.5 c 128
 324 201 324 201 331 194 c 257
 341 194 341 194 353 192 c 128
 365 190 365 190 374.5 192.5 c 128
 384 195 384 195 390.5 202.5 c 128
 397 210 397 210 397 227 c 257
EndSplineSet
PickledDataWithLists: "(dp1
S'com.adobe.type.autohint'
p2
(S'data'
S'<data>\\n  <hintSetList>\\n    <hintset pointTag=\"hr01\">\\n      <hstem pos=\"195\" width=\"66\"/>\\n    </hintset>\\n  </hintSetList>\\n  </data>'
Ntp3
s."
EndChar

StartChar: five
Encoding: 17 53 17
GlifName: five
Width: 523
VWidth: 0
Flags: W
LayerCount: 2
Back
Fore
SplineSet
447 481 m 257
NamedP: "hr00"
 429 476 429 476 428 452 c 128
 427 428 427 428 429 400.5 c 128
 431 373 431 373 429 351 c 128
 427 329 427 329 409 329 c 257
 398 329 398 329 393 332.5 c 128
 388 336 388 336 386.5 340.5 c 128
 385 345 385 345 386 349.5 c 128
 387 354 387 354 389 356 c 257
 384 364 384 364 363 369 c 128
 342 374 342 374 313.5 377 c 128
 285 380 285 380 252 380.5 c 128
 219 381 219 381 191 379.5 c 128
 163 378 163 378 143.5 374.5 c 128
 124 371 124 371 121 365 c 257
 117 356 117 356 111 345 c 128
 105 334 105 334 99.5 321.5 c 128
 94 309 94 309 89 297 c 128
 84 285 84 285 82 276 c 257
 86 279 86 279 115.5 285 c 128
 145 291 145 291 186.5 294.5 c 128
 228 298 228 298 274.5 295.5 c 128
 321 293 321 293 359 278 c 128
 397 263 397 263 420 232 c 128
 443 201 443 201 439 146 c 257
 436 108 436 108 412 80.5 c 128
 388 53 388 53 353 35.5 c 128
 318 18 318 18 277.5 8 c 128
 237 -2 237 -2 199.5 -7.5 c 128
 162 -13 162 -13 133 -16.5 c 128
 104 -20 104 -20 94 -25 c 257
 97 -8 97 -8 83 11.5 c 128
 69 31 69 31 50.5 51.5 c 128
 32 72 32 72 16 91.5 c 128
 0 111 0 111 0 128 c 257
 0 141 0 141 9 147.5 c 128
 18 154 18 154 28.5 152.5 c 128
 39 151 39 151 45.5 141.5 c 128
 52 132 52 132 47 116 c 257
 63 101 63 101 93 95 c 128
 123 89 123 89 157 89.5 c 128
 191 90 191 90 227 96.5 c 128
 263 103 263 103 290 114 c 128
 317 125 317 125 332.5 141 c 128
 348 157 348 157 343 175 c 257
 336 199 336 199 312.5 210.5 c 128
 289 222 289 222 256.5 225.5 c 128
 224 229 224 229 188.5 226 c 128
 153 223 153 223 122.5 217 c 128
 92 211 92 211 71 203.5 c 128
 50 196 50 196 48 189 c 257
 43 189 43 189 35 198.5 c 128
 27 208 27 208 19.5 219.5 c 128
 12 231 12 231 6.5 242 c 128
 1 253 1 253 0 255 c 257
 15 267 15 267 32 294.5 c 128
 49 322 49 322 62.5 354 c 128
 76 386 76 386 81.5 418.5 c 128
 87 451 87 451 80 474 c 257
 148 463 148 463 200 461.5 c 128
 252 460 252 460 294 463 c 128
 336 466 336 466 373 471.5 c 128
 410 477 410 477 447 481 c 257
NamedP: "hr00"
EndSplineSet
PickledDataWithLists: "(dp1
S'com.adobe.type.autohint'
p2
(S'data'
S'<data>\\n  <hintSetList>\\n    <hintset pointTag=\"hr00\">\\n      <hstem pos=\"-4\" width=\"-21\"/>\\n      <hstem pos=\"481\" width=\"-20\"/>\\n    </hintset>\\n  </hintSetList>\\n  </data>'
Ntp3
s."
EndChar

StartChar: six
Encoding: 18 54 18
GlifName: six
Width: 569
VWidth: 0
Flags: W
LayerCount: 2
Back
Fore
SplineSet
488 143 m 257
 488 128 488 128 473 111.5 c 128
 458 95 458 95 434.5 80 c 128
 411 65 411 65 382 51 c 128
 353 37 353 37 326 26 c 128
 299 15 299 15 277.5 8 c 128
 256 1 256 1 247 0 c 257
 231 4 231 4 207.5 15.5 c 128
 184 27 184 27 156.5 43 c 128
 129 59 129 59 101.5 80 c 128
 74 101 74 101 51.5 124.5 c 128
 29 148 29 148 14.5 173 c 128
 0 198 0 198 0 222 c 257
 0 238 0 238 16 262.5 c 128
 32 287 32 287 56 314.5 c 128
 80 342 80 342 110 370.5 c 128
 140 399 140 399 169.5 422 c 128
 199 445 199 445 223 459.5 c 128
 247 474 247 474 260 474 c 257
 279 474 279 474 302.5 468.5 c 128
 326 463 326 463 350 451 c 128
 374 439 374 439 396.5 422.5 c 128
 419 406 419 406 435 383 c 257
 412 387 412 387 397.5 382.5 c 128
 383 378 383 378 373.5 369 c 128
 364 360 364 360 357.5 349.5 c 128
 351 339 351 339 345 331.5 c 128
 339 324 339 324 332 320.5 c 128
 325 317 325 317 312 324 c 257
 301 330 301 330 300.5 341.5 c 128
 300 353 300 353 314 354 c 257
 279 377 279 377 238.5 371.5 c 128
 198 366 198 366 167 345 c 128
 136 324 136 324 122.5 294.5 c 128
 109 265 109 265 125 241 c 257
 145 260 145 260 164.5 271.5 c 128
 184 283 184 283 202.5 288 c 128
 221 293 221 293 238.5 294 c 128
 256 295 256 295 273 295 c 257
 283 294 283 294 303 287 c 128
 323 280 323 280 347 268 c 128
 371 256 371 256 396 241 c 128
 421 226 421 226 441.5 210 c 128
 462 194 462 194 475 177 c 128
 488 160 488 160 488 143 c 257
229 249 m 257
NamedP: "hr01"
 193 249 193 249 178.5 238 c 128
 164 227 164 227 165 212 c 128
 166 197 166 197 179.5 178 c 128
 193 159 193 159 211.5 143.5 c 128
 230 128 230 128 250 117 c 128
 270 106 270 106 285 106 c 257
 315 106 315 106 327.5 117 c 128
 340 128 340 128 339 143.5 c 128
 338 159 338 159 326.5 178 c 128
 315 197 315 197 298.5 212 c 128
 282 227 282 227 263.5 238 c 128
 245 249 245 249 229 249 c 257
NamedP: "hr01"
EndSplineSet
PickledDataWithLists: "(dp1
S'com.adobe.type.autohint'
p2
(S'data'
S'<data>\\n  <hintSetList>\\n    <hintset pointTag=\"hr01\">\\n      <hstem pos=\"21\" width=\"-21\"/>\\n      <hstem pos=\"249\" width=\"225\"/>\\n    </hintset>\\n  </hintSetList>\\n  </data>'
Ntp3
s."
EndChar

StartChar: seven
Encoding: 19 55 19
GlifName: seven
Width: 517
VWidth: 0
Flags: W
LayerCount: 2
Back
Fore
SplineSet
434 387 m 257
NamedP: "hr00"
 399 371 399 371 372 342.5 c 128
 345 314 345 314 325.5 280.5 c 128
 306 247 306 247 296.5 210.5 c 128
 287 174 287 174 288 141.5 c 128
 289 109 289 109 301 82.5 c 128
 313 56 313 56 340 42 c 257
 339 60 339 60 349 67.5 c 128
 359 75 359 75 371 73.5 c 128
 383 72 383 72 392.5 63 c 128
 402 54 402 54 401 42 c 257
 399 16 399 16 383.5 8 c 128
 368 0 368 0 343.5 0.5 c 128
 319 1 319 1 289 6.5 c 128
 259 12 259 12 229 15.5 c 128
 199 19 199 19 170.5 17 c 128
 142 15 142 15 123 0 c 257
 105 68 105 68 109 118.5 c 128
 113 169 113 169 137 212 c 128
 161 255 161 255 203.5 294.5 c 128
 246 334 246 334 305 378 c 257
 291 373 291 373 269 372.5 c 128
 247 372 247 372 221.5 373 c 128
 196 374 196 374 169.5 375.5 c 128
 143 377 143 377 120 376 c 128
 97 375 97 375 80 370 c 128
 63 365 63 365 58 353 c 257
 63 349 63 349 64.5 342.5 c 128
 66 336 66 336 62.5 329.5 c 128
 59 323 59 323 52.5 317.5 c 128
 46 312 46 312 37 312 c 257
 18 312 18 312 7 322.5 c 128
 -4 333 -4 333 1 356 c 257
 5 374 5 374 11 388.5 c 128
 17 403 17 403 22.5 417.5 c 128
 28 432 28 432 32 446 c 128
 36 460 36 460 35 474 c 257
 69 472 69 472 112 468.5 c 128
 155 465 155 465 205.5 463.5 c 128
 256 462 256 462 314 464 c 128
 372 466 372 466 435 474 c 257
 434 387 l 257
NamedP: "hr00"
EndSplineSet
PickledDataWithLists: "(dp1
S'com.adobe.type.autohint'
p2
(S'data'
S'<data>\\n  <hintSetList>\\n    <hintset pointTag=\"hr00\">\\n      <hstem pos=\"312\" width=\"162\"/>\\n    </hintset>\\n  </hintSetList>\\n  </data>'
Ntp3
s."
EndChar

StartChar: eight
Encoding: 20 56 20
GlifName: eight
Width: 566
VWidth: 0
Flags: W
LayerCount: 2
Back
Fore
SplineSet
484 168 m 257
 484 147 484 147 471.5 126.5 c 128
 459 106 459 106 438 87.5 c 128
 417 69 417 69 390.5 53 c 128
 364 37 364 37 337 25 c 128
 310 13 310 13 285.5 6.5 c 128
 261 0 261 0 244 0 c 257
 217 0 217 0 175.5 12.5 c 128
 134 25 134 25 95 47.5 c 128
 56 70 56 70 28 100.5 c 128
 0 131 0 131 0 167 c 257
 0 197 0 197 20 225 c 128
 40 253 40 253 82 270 c 257
 46 285 46 285 33 301.5 c 128
 20 318 20 318 20 342 c 257
 20 364 20 364 42.5 387.5 c 128
 65 411 65 411 97 430.5 c 128
 129 450 129 450 165 462 c 128
 201 474 201 474 227 474 c 257
NamedP: "hr01"
 253 474 253 474 290 465 c 128
 327 456 327 456 361 439.5 c 128
 395 423 395 423 419.5 400 c 128
 444 377 444 377 444 349 c 257
 444 323 444 323 423.5 304 c 128
 403 285 403 285 377 267 c 257
 387 264 387 264 405 257.5 c 128
 423 251 423 251 440.5 239 c 128
 458 227 458 227 471 210 c 128
 484 193 484 193 484 168 c 257
222 422 m 257
 195 422 195 422 173 407 c 128
 151 392 151 392 142 372.5 c 128
 133 353 133 353 140.5 333.5 c 128
 148 314 148 314 179 305 c 257
 189 315 189 315 204.5 319.5 c 128
 220 324 220 324 234.5 322.5 c 128
 249 321 249 321 259 314.5 c 128
 269 308 269 308 270 299 c 257
 316 308 316 308 328.5 328 c 128
 341 348 341 348 329.5 369 c 128
 318 390 318 390 288.5 406 c 128
 259 422 259 422 222 422 c 257
272 265 m 257
 276 259 276 259 274 253 c 128
 272 247 272 247 265.5 242 c 128
 259 237 259 237 249.5 233.5 c 128
 240 230 240 230 229 230 c 257
 220 230 220 230 211 234.5 c 128
 202 239 202 239 194.5 244.5 c 128
 187 250 187 250 184.5 256 c 128
 182 262 182 262 187 267 c 257
 137 258 137 258 124 234 c 128
 111 210 111 210 123 185 c 128
 135 160 135 160 167 140.5 c 128
 199 121 199 121 239 121 c 257
 298 121 298 121 327.5 140 c 128
 357 159 357 159 359.5 183.5 c 128
 362 208 362 208 339.5 231.5 c 128
 317 255 317 255 272 265 c 257
EndSplineSet
PickledDataWithLists: "(dp1
S'com.adobe.type.autohint'
p2
(S'data'
S'<data>\\n  <hintSetList>\\n    <hintset pointTag=\"hr01\">\\n      <hstem pos=\"0\" width=\"121\"/>\\n      <hstem pos=\"422\" width=\"52\"/>\\n    </hintset>\\n  </hintSetList>\\n  </data>'
Ntp3
s."
EndChar

StartChar: nine
Encoding: 21 57 21
GlifName: nine
Width: 578
VWidth: 0
Flags: W
LayerCount: 2
Back
Fore
SplineSet
497 202 m 257
NamedP: "hr00"
 497 171 497 171 478 144.5 c 128
 459 118 459 118 429 95.5 c 128
 399 73 399 73 364 55.5 c 128
 329 38 329 38 296 25.5 c 128
 263 13 263 13 238 7 c 128
 213 1 213 1 204 1 c 257
 162 2 162 2 130.5 18 c 128
 99 34 99 34 76 53.5 c 128
 53 73 53 73 35 90.5 c 128
 17 108 17 108 1 113 c 257
 22 117 22 117 37.5 122 c 128
 53 127 53 127 67 133.5 c 128
 81 140 81 140 96 149 c 128
 111 158 111 158 130 169 c 257
 146 172 146 172 155 166.5 c 128
 164 161 164 161 165 152.5 c 128
 166 144 166 144 159.5 137 c 128
 153 130 153 130 137 131 c 257
 164 102 164 102 193.5 94 c 128
 223 86 223 86 251 91.5 c 128
 279 97 279 97 302 113 c 128
 325 129 325 129 337.5 149 c 128
 350 169 350 169 350.5 189.5 c 128
 351 210 351 210 335 224 c 257
 315 202 315 202 283 192 c 128
 251 182 251 182 213.5 183 c 128
 176 184 176 184 137.5 194 c 128
 99 204 99 204 68.5 221.5 c 128
 38 239 38 239 18.5 263 c 128
 -1 287 -1 287 -1 314 c 257
 -1 344 -1 344 24.5 372.5 c 128
 50 401 50 401 86.5 423.5 c 128
 123 446 123 446 163.5 460 c 128
 204 474 204 474 234 474 c 257
 256 474 256 474 284 459.5 c 128
 312 445 312 445 341.5 421.5 c 128
 371 398 371 398 398.5 368.5 c 128
 426 339 426 339 448 309 c 128
 470 279 470 279 483.5 250.5 c 128
 497 222 497 222 497 202 c 257
NamedP: "hr00"
315 286 m 257
 297 312 297 312 266.5 336.5 c 128
 236 361 236 361 205.5 375.5 c 128
 175 390 175 390 151.5 390 c 128
 128 390 128 390 123 367 c 257
 117 336 117 336 137.5 312.5 c 128
 158 289 158 289 190 277 c 128
 222 265 222 265 257.5 266 c 128
 293 267 293 267 315 286 c 257
EndSplineSet
PickledDataWithLists: "(dp1
S'com.adobe.type.autohint'
p2
(S'data'
S'<data>\\n  <hintSetList>\\n    <hintset pointTag=\"hr00\">\\n      <hstem pos=\"22\" width=\"-21\"/>\\n      <hstem pos=\"474\" width=\"-20\"/>\\n    </hintset>\\n  </hintSetList>\\n  </data>'
Ntp3
s."
EndChar

StartChar: colon
Encoding: 22 58 22
GlifName: colon
Width: 195
VWidth: 0
Flags: W
LayerCount: 2
Back
Fore
SplineSet
125 303 m 257
NamedP: "hr00"
 125 278 125 278 107 258 c 128
 89 238 89 238 65 238 c 257
 0 238 0 238 0 297 c 257
 0 324 0 324 18.5 343.5 c 128
 37 363 37 363 64 363 c 257
 91 363 91 363 108 346.5 c 128
 125 330 125 330 125 303 c 257
NamedP: "hr00"
125 63 m 257
 125 38 125 38 107 18 c 128
 89 -2 89 -2 65 -2 c 257
 0 -2 0 -2 0 57 c 257
 0 84 0 84 18.5 103.5 c 128
 37 123 37 123 64 123 c 257
 91 123 91 123 108 106.5 c 128
 125 90 125 90 125 63 c 257
EndSplineSet
PickledDataWithLists: "(dp1
S'com.adobe.type.autohint'
p2
(S'data'
S'<data>\\n  <hintSetList>\\n    <hintset pointTag=\"hr00\">\\n      <hstem pos=\"-2\" width=\"125\"/>\\n      <hstem pos=\"238\" width=\"125\"/>\\n      <vstem pos=\"0\" width=\"125\"/>\\n    </hintset>\\n  </hintSetList>\\n  </data>'
Ntp3
s."
EndChar

StartChar: semicolon
Encoding: 23 59 23
GlifName: semicolon
Width: 195
VWidth: 0
Flags: W
LayerCount: 2
Back
Fore
SplineSet
37 -52 m 257
NamedP: "hr02"
 57 -41 57 -41 57 -20 c 257
 57 -1 57 -1 40 3 c 257
 28 5 28 5 17 16 c 257
 0 31 0 31 0 54 c 257
 0 77 0 77 15 93.5 c 128
 30 110 30 110 52 110 c 257
 81 110 81 110 102 88 c 128
 123 66 123 66 123 36 c 257
 123 8 123 8 104 -21 c 257
 82 -54 82 -54 50 -54 c 257
 44 -54 44 -54 37 -52 c 257
NamedP: "hr02"
125 303 m 257
NamedP: "hr01"
 125 278 125 278 107 258 c 128
 89 238 89 238 65 238 c 257
 0 238 0 238 0 297 c 257
 0 324 0 324 18.5 343.5 c 128
 37 363 37 363 64 363 c 257
 91 363 91 363 108 346.5 c 128
 125 330 125 330 125 303 c 257
NamedP: "hr01"
EndSplineSet
PickledDataWithLists: "(dp1
S'com.adobe.type.autohint'
p2
(S'data'
S'<data>\\n  <hintSetList>\\n    <hintset pointTag=\"hr01\">\\n      <hstem pos=\"-33\" width=\"-21\"/>\\n      <hstem pos=\"110\" width=\"128\"/>\\n      <vstem pos=\"0\" width=\"125\"/>\\n    </hintset>\\n    <hintset pointTag=\"hr02\">\\n      <hstem pos=\"-33\" width=\"-21\"/>\\n      <hstem pos=\"110\" width=\"128\"/>\\n      <vstem pos=\"57\" width=\"68\"/>\\n    </hintset>\\n  </hintSetList>\\n  </data>'
Ntp3
s."
EndChar

StartChar: equal
Encoding: 24 61 24
GlifName: equal
Width: 441
VWidth: 0
Flags: W
LayerCount: 2
Back
Fore
SplineSet
371 259 m 257
NamedP: "hr00"
 35 259 l 257
 35 336 l 257
 371 336 l 257
 371 259 l 257
NamedP: "hr00"
371 119 m 257
 35 119 l 257
 35 196 l 257
 371 196 l 257
 371 119 l 257
EndSplineSet
PickledDataWithLists: "(dp1
S'com.adobe.type.autohint'
p2
(S'data'
S'<data>\\n  <hintSetList>\\n    <hintset pointTag=\"hr00\">\\n      <hstem pos=\"119\" width=\"77\"/>\\n      <hstem pos=\"259\" width=\"77\"/>\\n    </hintset>\\n  </hintSetList>\\n  </data>'
Ntp3
s."
EndChar

StartChar: question
Encoding: 25 63 25
GlifName: question
Width: 332
VWidth: 0
Flags: W
LayerCount: 2
Back
Fore
SplineSet
174 13 m 257
NamedP: "hr00"
 174 -14 174 -14 148 -31 c 257
 129 -43 129 -43 111.5 -40.5 c 128
 94 -38 94 -38 84 -31 c 257
 61 -15 61 -15 61 11 c 257
 61 34 61 34 78 52 c 128
 95 70 95 70 117 70 c 257
 141 70 141 70 157.5 54.5 c 128
 174 39 174 39 174 13 c 257
NamedP: "hr00"
33 375 m 257
 24 408 24 408 31 434 c 257
 37 457 37 457 60.5 476.5 c 128
 84 496 84 496 140 500 c 257
 177 502 177 502 201.5 497.5 c 128
 226 493 226 493 242 485 c 128
 258 477 258 477 266.5 467.5 c 128
 275 458 275 458 280 451 c 257
 300 411 300 411 291 376.5 c 128
 282 342 282 342 248 309 c 257
 233 296 233 296 215.5 279.5 c 128
 198 263 198 263 180.5 247 c 128
 163 231 163 231 148.5 217.5 c 128
 134 204 134 204 127 196 c 257
 120 188 120 188 118 177.5 c 128
 116 167 116 167 118.5 157 c 128
 121 147 121 147 128 142 c 128
 135 137 135 137 146 140 c 257
 146.5 129 l 130
 147 118 147 118 141.5 106 c 128
 136 94 136 94 122.5 89.5 c 128
 109 85 109 85 81 99 c 257
 71 104 71 104 60.5 120 c 128
 50 136 50 136 50.5 157.5 c 128
 51 179 51 179 67.5 204 c 128
 84 229 84 229 127 254 c 257
 214 304 214 304 237 346 c 128
 260 388 260 388 227 424 c 257
 203 451 203 451 171.5 455 c 128
 140 459 140 459 116.5 447.5 c 128
 93 436 93 436 85 413.5 c 128
 77 391 77 391 97 365 c 257
 33 375 l 257
EndSplineSet
PickledDataWithLists: "(dp1
S'com.adobe.type.autohint'
p2
(S'data'
S'<data>\\n  <hintSetList>\\n    <hintset pointTag=\"hr00\">\\n      <vstem pos=\"61\" width=\"113\"/>\\n    </hintset>\\n  </hintSetList>\\n  </data>'
Ntp3
s."
EndChar

StartChar: backslash
Encoding: 26 92 26
GlifName: backslash
Width: 378
VWidth: 0
Flags: W
LayerCount: 2
Back
Fore
SplineSet
98 512 m 257
NamedP: "hr00"
 309 -25 l 257
 214 -25 l 257
 0 512 l 257
 98 512 l 257
NamedP: "hr00"
EndSplineSet
PickledDataWithLists: "(dp1
S'com.adobe.type.autohint'
p2
(S'data'
S'<data>\\n  <hintSetList>\\n    <hintset pointTag=\"hr00\">\\n      <hstem pos=\"-4\" width=\"-21\"/>\\n      <hstem pos=\"512\" width=\"-20\"/>\\n    </hintset>\\n  </hintSetList>\\n  </data>'
Ntp3
s."
EndChar

StartChar: underscore
Encoding: 27 95 27
GlifName: underscore
Width: 591
VWidth: 0
Flags: W
LayerCount: 2
Back
Fore
SplineSet
521 0 m 257
 35 0 l 257
 35 97 l 257
NamedP: "hr01"
 521 99 l 257
 521 0 l 257
EndSplineSet
PickledDataWithLists: "(dp1
S'com.adobe.type.autohint'
p2
(S'data'
S'<data>\\n  <hintSetList>\\n    <hintset pointTag=\"hr01\">\\n      <hstem pos=\"0\" width=\"98\"/>\\n    </hintset>\\n    <hintset pointTag=\"hr01\">\\n      <hstem pos=\"99\" width=\"-20\"/>\\n    </hintset>\\n  </hintSetList>\\n  </data>'
Ntp3
s."
EndChar

StartChar: bar
Encoding: 28 124 28
GlifName: bar
Width: 244
VWidth: 0
Flags: W
LayerCount: 2
Back
Fore
SplineSet
173 477 m 257
NamedP: "hr00"
 173 0 l 257
 74 0 l 257
 74 477 l 257
 173 477 l 257
NamedP: "hr00"
EndSplineSet
PickledDataWithLists: "(dp1
S'com.adobe.type.autohint'
p2
(S'data'
S'<data>\\n  <hintSetList>\\n    <hintset pointTag=\"hr00\">\\n      <hstem pos=\"21\" width=\"-21\"/>\\n      <hstem pos=\"477\" width=\"-20\"/>\\n      <vstem pos=\"74\" width=\"99\"/>\\n    </hintset>\\n  </hintSetList>\\n  </data>'
Ntp3
s."
EndChar

StartChar: uni0964
Encoding: 29 2404 29
GlifName: uni0964
Width: 168
VWidth: 0
Flags: W
LayerCount: 2
Back
Fore
SplineSet
88 -20 m 257
NamedP: "hr00"
 0 -20 l 257
 0 472 l 257
 88 472 l 257
 88 -20 l 257
NamedP: "hr00"
EndSplineSet
PickledDataWithLists: "(dp1
S'com.adobe.type.autohint'
p2
(S'data'
S'<data>\\n  <hintSetList>\\n    <hintset pointTag=\"hr00\">\\n      <hstem pos=\"1\" width=\"-21\"/>\\n      <hstem pos=\"472\" width=\"-20\"/>\\n      <vstem pos=\"0\" width=\"88\"/>\\n    </hintset>\\n  </hintSetList>\\n  </data>'
Ntp3
s."
EndChar

StartChar: uni0965
Encoding: 30 2405 30
GlifName: uni0965
Width: 368
VWidth: 0
Flags: W
LayerCount: 2
Back
Fore
SplineSet
88 -20 m 257
NamedP: "hr00"
 0 -20 l 257
 0 472 l 257
 88 472 l 257
 88 -20 l 257
NamedP: "hr00"
288 -20 m 257
 200 -20 l 257
 200 472 l 257
 288 472 l 257
 288 -20 l 257
EndSplineSet
PickledDataWithLists: "(dp1
S'com.adobe.type.autohint'
p2
(S'data'
S'<data>\\n  <hintSetList>\\n    <hintset pointTag=\"hr00\">\\n      <hstem pos=\"1\" width=\"-21\"/>\\n      <hstem pos=\"472\" width=\"-20\"/>\\n      <vstem pos=\"0\" width=\"88\"/>\\n      <vstem pos=\"200\" width=\"88\"/>\\n    </hintset>\\n  </hintSetList>\\n  </data>'
Ntp3
s."
EndChar

StartChar: U0C01
Encoding: 31 3073 31
GlifName: U0C01_
Width: 360
VWidth: 0
Flags: W
LayerCount: 2
Back
Fore
SplineSet
198 414 m 257
NamedP: "hr00"
 220 417 220 417 230.5 409 c 128
 241 401 241 401 242 392 c 128
 243 383 243 383 234 377 c 128
 225 371 225 371 210 378 c 257
 200 377 200 377 181 364.5 c 128
 162 352 162 352 143.5 330.5 c 128
 125 309 125 309 111.5 280 c 128
 98 251 98 251 98 217 c 257
 98 190 98 190 112 163.5 c 128
 126 137 126 137 145 116 c 128
 164 95 164 95 183 82 c 128
 202 69 202 69 212 69 c 257
 213 78 213 78 218.5 81.5 c 128
 224 85 224 85 229 84 c 128
 234 83 234 83 238 78.5 c 128
 242 74 242 74 240 68 c 257
 237 60 237 60 225.5 54 c 128
 214 48 214 48 201 40.5 c 128
 188 33 188 33 177 23.5 c 128
 166 14 166 14 163 1 c 257
 150 11 150 11 125.5 31.5 c 128
 101 52 101 52 77.5 79 c 128
 54 106 54 106 36.5 140 c 128
 19 174 19 174 19 213 c 257
 19 247 19 247 37.5 281 c 128
 56 315 56 315 83.5 343.5 c 128
 111 372 111 372 141.5 391 c 128
 172 410 172 410 198 414 c 257
NamedP: "hr00"
EndSplineSet
PickledDataWithLists: "(dp1
S'com.adobe.type.autohint'
p2
(S'data'
S'<data>\\n  <hintSetList>\\n    <hintset pointTag=\"hr00\">\\n      <hstem pos=\"22\" width=\"-21\"/>\\n      <vstem pos=\"19\" width=\"79\"/>\\n    </hintset>\\n  </hintSetList>\\n  </data>'
Ntp3
s."
EndChar

StartChar: U0C02
Encoding: 32 3074 32
GlifName: U0C02_
Width: 678
VWidth: 0
Flags: W
LayerCount: 2
Back
Fore
SplineSet
596 240 m 257
NamedP: "hr00"
 596 208 596 208 578 178 c 128
 560 148 560 148 532 121.5 c 128
 504 95 504 95 469.5 72.5 c 128
 435 50 435 50 401 34 c 128
 367 18 367 18 337.5 9 c 128
 308 0 308 0 291 0 c 257
 280 0 280 0 253.5 9 c 128
 227 18 227 18 195 33.5 c 128
 163 49 163 49 128 70 c 128
 93 91 93 91 65 115 c 128
 37 139 37 139 18.5 164.5 c 128
 0 190 0 190 0 216 c 257
 0 246 0 246 16.5 277 c 128
 33 308 33 308 58.5 336.5 c 128
 84 365 84 365 115 390 c 128
 146 415 146 415 177 433.5 c 128
 208 452 208 452 234 462.5 c 128
 260 473 260 473 274 473 c 257
 305 473 305 473 340.5 463 c 128
 376 453 376 453 411.5 435 c 128
 447 417 447 417 480.5 394 c 128
 514 371 514 371 539.5 344.5 c 128
 565 318 565 318 580.5 291 c 128
 596 264 596 264 596 240 c 257
NamedP: "hr00"
350 397 m 257
 355 376 355 376 345.5 361.5 c 128
 336 347 336 347 307 347 c 257
 284 347 284 347 270.5 365 c 128
 257 383 257 383 265 403 c 257
 198 369 198 369 167.5 335 c 128
 137 301 137 301 133 271.5 c 128
 129 242 129 242 145.5 216.5 c 128
 162 191 162 191 187.5 173 c 128
 213 155 213 155 242.5 144.5 c 128
 272 134 272 134 294 134 c 257
 339 134 339 134 374 148.5 c 128
 409 163 409 163 431 186 c 128
 453 209 453 209 461 238 c 128
 469 267 469 267 460.5 296.5 c 128
 452 326 452 326 424.5 352.5 c 128
 397 379 397 379 350 397 c 257
EndSplineSet
PickledDataWithLists: "(dp1
S'com.adobe.type.autohint'
p2
(S'data'
S'<data>\\n  <hintSetList>\\n    <hintset pointTag=\"hr00\">\\n      <hstem pos=\"0\" width=\"134\"/>\\n      <hstem pos=\"347\" width=\"126\"/>\\n    </hintset>\\n  </hintSetList>\\n  </data>'
Ntp3
s."
EndChar

StartChar: U0C03
Encoding: 33 3075 33
GlifName: U0C03_
Width: 305
VWidth: 0
Flags: W
LayerCount: 2
Back
Fore
SplineSet
234 349 m 257
 234 331 234 331 219.5 314.5 c 128
 205 298 205 298 185.5 284.5 c 128
 166 271 166 271 146 263.5 c 128
 126 256 126 256 116 256 c 257
 110 256 110 256 91.5 263.5 c 128
 73 271 73 271 53.5 283.5 c 128
 34 296 34 296 18.5 311 c 128
 3 326 3 326 3 340 c 257
 3 357 3 357 16.5 375 c 128
 30 393 30 393 48 407.5 c 128
 66 422 66 422 83.5 430.5 c 128
 101 439 101 439 110 439 c 257
 127 439 127 439 149 430.5 c 128
 171 422 171 422 190 408.5 c 128
 209 395 209 395 221.5 379.5 c 128
 234 364 234 364 234 349 c 257
137 402 m 257
 141 386 141 386 123 386 c 257
 115 386 115 386 110.5 391.5 c 128
 106 397 106 397 109 404 c 257
NamedP: "hr01"
 75 387 75 387 67.5 370.5 c 128
 60 354 60 354 68 342 c 128
 76 330 76 330 92 322 c 128
 108 314 108 314 119 314 c 257
 141 314 141 314 156 324.5 c 128
 171 335 171 335 174.5 349.5 c 128
 178 364 178 364 169.5 378.5 c 128
 161 393 161 393 137 402 c 257
234 128 m 257
 234 110 234 110 219.5 93.5 c 128
 205 77 205 77 185.5 63.5 c 128
 166 50 166 50 146 42.5 c 128
 126 35 126 35 116 35 c 257
 110 35 110 35 91.5 42.5 c 128
 73 50 73 50 53.5 62.5 c 128
 34 75 34 75 18.5 89.5 c 128
 3 104 3 104 3 119 c 257
 3 136 3 136 16.5 154 c 128
 30 172 30 172 48 186.5 c 128
 66 201 66 201 83.5 209.5 c 128
 101 218 101 218 110 218 c 257
 127 218 127 218 149 209.5 c 128
 171 201 171 201 190 187.5 c 128
 209 174 209 174 221.5 158 c 128
 234 142 234 142 234 128 c 257
137 182 m 257
 141 166 141 166 123 166 c 257
 115 166 115 166 110 171.5 c 128
 105 177 105 177 109 184 c 257
 74 167 74 167 66.5 150.5 c 128
 59 134 59 134 67 121.5 c 128
 75 109 75 109 91.5 101 c 128
 108 93 108 93 119 93 c 257
 141 93 141 93 156 103.5 c 128
 171 114 171 114 174.5 128.5 c 128
 178 143 178 143 170 158 c 128
 162 173 162 173 137 182 c 257
EndSplineSet
PickledDataWithLists: "(dp1
S'com.adobe.type.autohint'
p2
(S'data'
S'<data>\\n  <hintSetList>\\n    <hintset pointTag=\"hr01\">\\n      <hstem pos=\"35\" width=\"183\"/>\\n      <hstem pos=\"256\" width=\"58\"/>\\n      <vstem pos=\"3\" width=\"231\"/>\\n    </hintset>\\n    <hintset pointTag=\"\">\\n      <hstem pos=\"35\" width=\"58\"/>\\n      <hstem pos=\"256\" width=\"183\"/>\\n      <vstem pos=\"3\" width=\"231\"/>\\n    </hintset>\\n  </hintSetList>\\n  </data>'
Ntp3
s."
EndChar

StartChar: U0C05
Encoding: 34 3077 34
GlifName: U0C05_
Width: 816
VWidth: 0
Flags: W
LayerCount: 2
Back
Fore
SplineSet
417 0 m 257
NamedP: "hr00"
 369 0 369 0 317.5 15.5 c 128
 266 31 266 31 224.5 57.5 c 128
 183 84 183 84 158.5 121.5 c 128
 134 159 134 159 141 202 c 257
 108 202 l 257
 113 167 113 167 95.5 151 c 128
 78 135 78 135 56 136 c 128
 34 137 34 137 15.5 152 c 128
 -3 167 -3 167 0 194 c 257
 3 221 3 221 18 235 c 128
 33 249 33 249 53.5 255 c 128
 74 261 74 261 98 261 c 128
 122 261 122 261 143 261 c 257
 145 270 145 270 154.5 292.5 c 128
 164 315 164 315 173.5 344 c 128
 183 373 183 373 190 405 c 128
 197 437 197 437 195 467.5 c 128
 193 498 193 498 178.5 522 c 128
 164 546 164 546 131 559 c 257
 133 536 133 536 122.5 522.5 c 128
 112 509 112 509 97.5 507 c 128
 83 505 83 505 70.5 513 c 128
 58 521 58 521 58 542 c 257
 58 561 58 561 69.5 574 c 128
 81 587 81 587 99 596 c 128
 117 605 117 605 139 613 c 128
 161 621 161 621 181.5 629.5 c 128
 202 638 202 638 219 649 c 128
 236 660 236 660 244 679 c 257
 287 634 287 634 304 592.5 c 128
 321 551 321 551 321 512 c 128
 321 473 321 473 308.5 437.5 c 128
 296 402 296 402 281.5 371 c 128
 267 340 267 340 255 313 c 128
 243 286 243 286 243 263 c 257
 243 254 243 254 258.5 250.5 c 128
 274 247 274 247 294 247 c 128
 314 247 314 247 332 249 c 128
 350 251 350 251 354 252 c 257
 334 271 334 271 328.5 305 c 128
 323 339 323 339 337.5 373 c 128
 352 407 352 407 390.5 435 c 128
 429 463 429 463 498 471 c 257
 530 470 530 470 570 453.5 c 128
 610 437 610 437 644.5 406 c 128
 679 375 679 375 703.5 330.5 c 128
 728 286 728 286 730 227 c 257
 730 200 730 200 705.5 160.5 c 128
 681 121 681 121 639 85.5 c 128
 597 50 597 50 539.5 25 c 128
 482 0 482 0 417 0 c 257
NamedP: "hr00"
604 216 m 257
 606 233 606 233 597.5 257.5 c 128
 589 282 589 282 571.5 304 c 128
 554 326 554 326 529 341.5 c 128
 504 357 504 357 473 358 c 257
 450 359 450 359 434.5 349.5 c 128
 419 340 419 340 412.5 325 c 128
 406 310 406 310 407 295 c 128
 408 280 408 280 416.5 269 c 128
 425 258 425 258 440.5 256 c 128
 456 254 456 254 477 266 c 257
 484 251 484 251 484.5 233 c 128
 485 215 485 215 480.5 200 c 128
 476 185 476 185 467 175 c 128
 458 165 458 165 445 165 c 257
 432 165 432 165 412.5 170 c 128
 393 175 393 175 369.5 180.5 c 128
 346 186 346 186 320.5 190.5 c 128
 295 195 295 195 270 193 c 257
 270 179 270 179 287 163 c 128
 304 147 304 147 330.5 135 c 128
 357 123 357 123 390 117 c 128
 423 111 423 111 455 116 c 257
 456 116 456 116 478.5 123 c 128
 501 130 501 130 528 143.5 c 128
 555 157 555 157 578 175.5 c 128
 601 194 601 194 604 216 c 257
EndSplineSet
PickledDataWithLists: "(dp1
S'com.adobe.type.autohint'
p2
(S'data'
S'<data>\\n  <hintSetList>\\n    <hintset pointTag=\"hr00\">\\n      <hstem pos=\"21\" width=\"-21\"/>\\n      <hstem pos=\"193\" width=\"68\"/>\\n      <hstem pos=\"358\" width=\"113\"/>\\n      <hstem pos=\"679\" width=\"-20\"/>\\n      <vstem pos=\"58\" width=\"185\"/>\\n    </hintset>\\n  </hintSetList>\\n  </data>'
Ntp3
s."
EndChar

StartChar: U0C06
Encoding: 35 3078 35
GlifName: U0C06_
Width: 820
VWidth: 0
Flags: W
LayerCount: 2
Back
Fore
SplineSet
247 281 m 257
NamedP: "hr00"
 306 269 306 269 337 264 c 128
 368 259 368 259 386 257.5 c 128
 404 256 404 256 419 257.5 c 128
 434 259 434 259 464 262 c 257
 443 267 443 267 422.5 277.5 c 128
 402 288 402 288 386.5 301 c 128
 371 314 371 314 361 330.5 c 128
 351 347 351 347 354 365 c 257
 356 378 356 378 366 395 c 128
 376 412 376 412 395 427.5 c 128
 414 443 414 443 444 455.5 c 128
 474 468 474 468 517 471 c 257
 562 472 562 472 595.5 461.5 c 128
 629 451 629 451 651 434 c 128
 673 417 673 417 684 397.5 c 128
 695 378 695 378 695 362 c 257
 696 321 696 321 620 274 c 257
 685 261 685 261 710 241 c 128
 735 221 735 221 735 191 c 257
 735 164 735 164 719 139 c 128
 703 114 703 114 678 93 c 128
 653 72 653 72 620.5 55 c 128
 588 38 588 38 553.5 26 c 128
 519 14 519 14 487 7.5 c 128
 455 1 455 1 429 1 c 257
 371 1 371 1 319 19.5 c 128
 267 38 267 38 226.5 68.5 c 128
 186 99 186 99 160.5 138.5 c 128
 135 178 135 178 129 221 c 257
 117 223 117 223 110.5 223 c 128
 104 223 104 223 98 221 c 257
 96 216 96 216 97.5 204.5 c 128
 99 193 99 193 97 180.5 c 128
 95 168 95 168 85.5 158 c 128
 76 148 76 148 51 147 c 257
 34 146 34 146 21 157 c 128
 8 168 8 168 3 184 c 128
 -2 200 -2 200 2.5 218.5 c 128
 7 237 7 237 23.5 252.5 c 128
 40 268 40 268 70.5 278 c 128
 101 288 101 288 148 286 c 257
 152 305 152 305 159 330.5 c 128
 166 356 166 356 172.5 383.5 c 128
 179 411 179 411 182.5 438 c 128
 186 465 186 465 183 488.5 c 128
 180 512 180 512 168 530.5 c 128
 156 549 156 549 130 559 c 257
 132 537 132 537 121.5 526 c 128
 111 515 111 515 97 514.5 c 128
 83 514 83 514 71 524 c 128
 59 534 59 534 59 553 c 257
 59 572 59 572 70.5 584 c 128
 82 596 82 596 100 603.5 c 128
 118 611 118 611 139 617 c 128
 160 623 160 623 180.5 630 c 128
 201 637 201 637 217.5 647 c 128
 234 657 234 657 243 675 c 257
 286 632 286 632 303.5 592 c 128
 321 552 321 552 321.5 515 c 128
 322 478 322 478 310 445 c 128
 298 412 298 412 284 382 c 128
 270 352 270 352 258.5 326.5 c 128
 247 301 247 301 247 281 c 257
NamedP: "hr00"
507 381 m 257
 488 378 488 378 478.5 364 c 128
 469 350 469 350 470 336 c 128
 471 322 471 322 483 310 c 128
 495 298 495 298 518 298 c 257
 553 298 553 298 564 313 c 128
 575 328 575 328 570.5 344 c 128
 566 360 566 360 548.5 372.5 c 128
 531 385 531 385 507 381 c 257
568 238 m 257
 536 211 536 211 494.5 204 c 128
 453 197 453 197 410.5 199 c 128
 368 201 368 201 329 208 c 128
 290 215 290 215 262 217 c 257
 265 198 265 198 281.5 178 c 128
 298 158 298 158 321 142 c 128
 344 126 344 126 371 115.5 c 128
 398 105 398 105 423 105 c 257
 450 105 450 105 480.5 113 c 128
 511 121 511 121 538 133 c 128
 565 145 565 145 585.5 160.5 c 128
 606 176 606 176 613.5 190.5 c 128
 621 205 621 205 611 217.5 c 128
 601 230 601 230 568 238 c 257
EndSplineSet
PickledDataWithLists: "(dp1
S'com.adobe.type.autohint'
p2
(S'data'
S'<data>\\n  <hintSetList>\\n    <hintset pointTag=\"hr00\">\\n      <hstem pos=\"1\" width=\"104\"/>\\n      <hstem pos=\"147\" width=\"139\"/>\\n      <hstem pos=\"675\" width=\"-20\"/>\\n    </hintset>\\n  </hintSetList>\\n  </data>'
Ntp3
s."
EndChar

StartChar: U0C07
Encoding: 36 3079 36
GlifName: U0C07_
Width: 702
VWidth: 0
Flags: W
LayerCount: 2
Back
Fore
SplineSet
436 -49 m 257
 430 -38 430 -38 432.5 -30 c 128
 435 -22 435 -22 443 -17 c 128
 451 -12 451 -12 462 -12.5 c 128
 473 -13 473 -13 484 -18 c 257
 502 13 502 13 502 42.5 c 128
 502 72 502 72 481 95 c 257
 467 83 467 83 447.5 66.5 c 128
 428 50 428 50 406.5 35 c 128
 385 20 385 20 363 10 c 128
 341 0 341 0 322 0 c 257
 309 0 309 0 287.5 4.5 c 128
 266 9 266 9 240 18.5 c 128
 214 28 214 28 187.5 41 c 128
 161 54 161 54 139.5 71 c 128
 118 88 118 88 104 108.5 c 128
 90 129 90 129 90 152 c 257
 90 171 90 171 105.5 188 c 128
 121 205 121 205 144 219 c 128
 167 233 167 233 194.5 243.5 c 128
 222 254 222 254 247 261 c 128
 272 268 272 268 291 271.5 c 128
 310 275 310 275 315 274 c 257
 327 275 327 275 351 267.5 c 128
 375 260 375 260 399.5 250 c 128
 424 240 424 240 443 231.5 c 128
 462 223 462 223 465 224 c 257
 483 231 483 231 497.5 255.5 c 128
 512 280 512 280 513.5 307 c 128
 515 334 515 334 498.5 357 c 128
 482 380 482 380 440 383 c 257
 413 385 413 385 398.5 380 c 128
 384 375 384 375 377.5 366 c 128
 371 357 371 357 369 346.5 c 128
 367 336 367 336 364.5 326.5 c 128
 362 317 362 317 357 312 c 128
 352 307 352 307 339 310 c 257
 313 314 313 314 303.5 318.5 c 128
 294 323 294 323 292.5 328 c 128
 291 333 291 333 292.5 339 c 128
 294 345 294 345 291 354 c 257
 289 360 289 360 276 373.5 c 128
 263 387 263 387 247 400.5 c 128
 231 414 231 414 215.5 423.5 c 128
 200 433 200 433 191 432 c 257
 161 427 161 427 141 408.5 c 128
 121 390 121 390 117 370 c 128
 113 350 113 350 128.5 334.5 c 128
 144 319 144 319 185 322 c 257
 182 330 182 330 189.5 336.5 c 128
 197 343 197 343 207.5 344 c 128
 218 345 218 345 227 338.5 c 128
 236 332 236 332 236 315 c 257
 236 305 236 305 226 299 c 128
 216 293 216 293 201.5 288.5 c 128
 187 284 187 284 169.5 279.5 c 128
 152 275 152 275 135 269.5 c 128
 118 264 118 264 104 256 c 128
 90 248 90 248 83 236 c 257
 58 259 58 259 42.5 274 c 128
 27 289 27 289 17.5 301 c 128
 8 313 8 313 4.5 326.5 c 128
 1 340 1 340 1 360 c 257
 1 374 1 374 16.5 390.5 c 128
 32 407 32 407 55.5 423 c 128
 79 439 79 439 106.5 454.5 c 128
 134 470 134 470 160 482.5 c 128
 186 495 186 495 206 501.5 c 128
 226 508 226 508 233 508 c 257
 269 505 269 505 303 487.5 c 128
 337 470 337 470 367 435 c 257
 375 440 375 440 384 447.5 c 128
 393 455 393 455 403.5 461.5 c 128
 414 468 414 468 424 472.5 c 128
 434 477 434 477 444 477 c 257
 467 477 467 477 499.5 458 c 128
 532 439 532 439 562 410.5 c 128
 592 382 592 382 613.5 349.5 c 128
 635 317 635 317 635 290 c 257
 635 261 635 261 624 238.5 c 128
 613 216 613 216 599.5 199 c 128
 586 182 586 182 572.5 171 c 128
 559 160 559 160 553 154 c 257
 557 150 557 150 571 136 c 128
 585 122 585 122 599.5 98.5 c 128
 614 75 614 75 625.5 41.5 c 128
 637 8 637 8 634 -35 c 257
 634 -41 634 -41 642.5 -44.5 c 128
 651 -48 651 -48 653 -56 c 257
 648 -65 648 -65 640 -63 c 128
 632 -61 632 -61 628 -59 c 257
 595 -43 595 -43 564.5 -46 c 128
 534 -49 534 -49 508.5 -55.5 c 128
 483 -62 483 -62 464 -65 c 128
 445 -68 445 -68 436 -49 c 257
418 174 m 257
 419 180 419 180 405.5 188.5 c 128
 392 197 392 197 374 205 c 128
 356 213 356 213 339.5 218.5 c 128
 323 224 323 224 315 224 c 257
NamedP: "hr01"
 310 224 310 224 297 220.5 c 128
 284 217 284 217 269.5 211 c 128
 255 205 255 205 243.5 195 c 128
 232 185 232 185 232 173 c 257
 232 163 232 163 242.5 153.5 c 128
 253 144 253 144 266.5 137.5 c 128
 280 131 280 131 293 126.5 c 128
 306 122 306 122 312 122 c 257
 323 121 323 121 340 126.5 c 128
 357 132 357 132 374 141 c 128
 391 150 391 150 404 159 c 128
 417 168 417 168 418 174 c 257
EndSplineSet
PickledDataWithLists: "(dp1
S'com.adobe.type.autohint'
p2
(S'data'
S'<data>\\n  <hintSetList>\\n    <hintset pointTag=\"hr01\">\\n      <hstem pos=\"0\" width=\"-20\"/>\\n      <hstem pos=\"383\" width=\"94\"/>\\n      <hstem pos=\"508\" width=\"-20\"/>\\n      <vstem pos=\"90\" width=\"142\"/>\\n    </hintset>\\n  </hintSetList>\\n  </data>'
Ntp3
s."
EndChar

StartChar: U0C08
Encoding: 37 3080 37
GlifName: U0C08_
Width: 1105
VWidth: 0
Flags: W
LayerCount: 2
Back
Fore
SplineSet
868 115 m 257
NamedP: "hr00"
 909 115 909 115 923 130 c 128
 937 145 937 145 930 164 c 128
 923 183 923 183 897.5 198.5 c 128
 872 214 872 214 838 214 c 257
 802 214 802 214 788.5 198.5 c 128
 775 183 775 183 781 164 c 128
 787 145 787 145 810 130 c 128
 833 115 833 115 868 115 c 257
NamedP: "hr00"
512 427 m 257
 494 425 494 425 471.5 418 c 128
 449 411 449 411 437 397 c 257
 415 397 415 397 392.5 387 c 128
 370 377 370 377 349 360 c 128
 328 343 328 343 310 322.5 c 128
 292 302 292 302 280 282 c 257
 314 286 314 286 348 283.5 c 128
 382 281 382 281 420 277 c 128
 458 273 458 273 502 273 c 128
 546 273 546 273 600 284 c 257
 593 295 593 295 579 312 c 128
 565 329 565 329 548.5 342.5 c 128
 532 356 532 356 514.5 363 c 128
 497 370 497 370 481 359 c 257
 501 354 501 354 505 339 c 128
 509 324 509 324 501.5 309.5 c 128
 494 295 494 295 476.5 288.5 c 128
 459 282 459 282 434 296 c 257
 408 310 408 310 408.5 333 c 128
 409 356 409 356 425.5 377 c 128
 442 398 442 398 469.5 411 c 128
 497 424 497 424 524 418 c 257
 546 413 546 413 567.5 405.5 c 128
 589 398 589 398 610.5 384 c 128
 632 370 632 370 653.5 346 c 128
 675 322 675 322 696 283 c 257
 705 283 705 283 725.5 282.5 c 128
 746 282 746 282 769.5 282 c 128
 793 282 793 282 813.5 282 c 128
 834 282 834 282 840 282 c 257
 851 282 851 282 866.5 287 c 128
 882 292 882 292 895.5 300.5 c 128
 909 309 909 309 919 321 c 128
 929 333 929 333 929 347 c 257
 929 367 929 367 912 377.5 c 128
 895 388 895 388 873 391 c 128
 851 394 851 394 829 389.5 c 128
 807 385 807 385 797 373 c 257
 797 368 797 368 797 360.5 c 128
 797 353 797 353 805 353 c 257
 814 359 814 359 821 361 c 257
 827 364 827 364 833 360 c 128
 839 356 839 356 839 345 c 257
 839 323 839 323 827 315.5 c 128
 815 308 815 308 802 308 c 257
 781 308 781 308 773 324.5 c 128
 765 341 765 341 757.5 360.5 c 128
 750 380 750 380 737 395.5 c 128
 724 411 724 411 696 408 c 257
 701 419 701 419 719 436 c 128
 737 453 737 453 763.5 467 c 128
 790 481 790 481 822 489.5 c 128
 854 498 854 498 888 491.5 c 128
 922 485 922 485 953.5 461.5 c 128
 985 438 985 438 1012 390 c 257
 1020 374 1020 374 1012.5 355 c 128
 1005 336 1005 336 988.5 317.5 c 128
 972 299 972 299 952.5 282.5 c 128
 933 266 933 266 918 256 c 257
 970 248 970 248 998 217.5 c 128
 1026 187 1026 187 1022.5 149.5 c 128
 1019 112 1019 112 979 72.5 c 128
 939 33 939 33 854 6 c 257
 794 27 794 27 760.5 51 c 128
 727 75 727 75 713.5 99.5 c 128
 700 124 700 124 702.5 147.5 c 128
 705 171 705 171 715 189.5 c 128
 725 208 725 208 738.5 219.5 c 128
 752 231 752 231 762 233 c 257
 696 233 l 257
 700 211 700 211 688.5 186 c 128
 677 161 677 161 656 136.5 c 128
 635 112 635 112 607.5 89 c 128
 580 66 580 66 552 48.5 c 128
 524 31 524 31 499.5 20.5 c 128
 475 10 475 10 461 10 c 257
 437 10 437 10 405 19.5 c 128
 373 29 373 29 337 44.5 c 128
 301 60 301 60 266 81.5 c 128
 231 103 231 103 203.5 128.5 c 128
 176 154 176 154 159.5 181 c 128
 143 208 143 208 144 236 c 257
 87 236 l 257
 103 236 103 236 109 222 c 128
 115 208 115 208 110 192 c 128
 105 176 105 176 90.5 163 c 128
 76 150 76 150 53 150 c 257
 22 151 22 151 9.5 174 c 128
 -3 197 -3 197 1 219 c 257
 7 257 7 257 33.5 274 c 128
 60 291 60 291 90 295.5 c 128
 120 300 120 300 144.5 298.5 c 128
 169 297 169 297 173 298 c 257
 180 302 180 302 201.5 323 c 128
 223 344 223 344 252.5 370 c 128
 282 396 282 396 316.5 422.5 c 128
 351 449 351 449 386.5 461.5 c 128
 422 474 422 474 454.5 468.5 c 128
 487 463 487 463 512 427 c 257
610 239 m 257
 559 223 559 223 517 221 c 128
 475 219 475 219 437.5 223 c 128
 400 227 400 227 364.5 233 c 128
 329 239 329 239 289 239 c 257
 302 207 302 207 327.5 185 c 128
 353 163 353 163 384.5 151 c 128
 416 139 416 139 450.5 138 c 128
 485 137 485 137 516.5 147.5 c 128
 548 158 548 158 573 180.5 c 128
 598 203 598 203 610 239 c 257
801 696 m 257
 801 646 801 646 761.5 615 c 128
 722 584 722 584 662 564 c 128
 602 544 602 544 531 531 c 128
 460 518 460 518 396 505 c 128
 332 492 332 492 284.5 474 c 128
 237 456 237 456 224 425 c 257
 231 430 231 430 240.5 429.5 c 128
 250 429 250 429 255.5 424 c 128
 261 419 261 419 261 408.5 c 128
 261 398 261 398 251 383 c 257
 239 373 239 373 226 371.5 c 128
 213 370 213 370 203 375.5 c 128
 193 381 193 381 185.5 393.5 c 128
 178 406 178 406 178 423 c 257
 177 452 177 452 194 477 c 128
 211 502 211 502 237.5 522 c 128
 264 542 264 542 296.5 557 c 128
 329 572 329 572 359 583 c 128
 389 594 389 594 414 600 c 128
 439 606 439 606 451 608 c 257
 473 611 473 611 505.5 617.5 c 128
 538 624 538 624 573 632.5 c 128
 608 641 608 641 641.5 652 c 128
 675 663 675 663 698.5 674.5 c 128
 722 686 722 686 731.5 699.5 c 128
 741 713 741 713 729 726 c 257
 732 719 732 719 723 708.5 c 128
 714 698 714 698 701 695 c 128
 688 692 688 692 677.5 700 c 128
 667 708 667 708 667 735 c 257
 667 752 667 752 688 762.5 c 128
 709 773 709 773 734 771.5 c 128
 759 770 759 770 780 752.5 c 128
 801 735 801 735 801 696 c 257
EndSplineSet
PickledDataWithLists: "(dp1
S'com.adobe.type.autohint'
p2
(S'data'
S'<data>\\n  <hintSetList>\\n    <hintset pointTag=\"hr00\">\\n      <hstem pos=\"27\" width=\"-21\"/>\\n      <vstem pos=\"839\" width=\"90\"/>\\n    </hintset>\\n  </hintSetList>\\n  </data>'
Ntp3
s."
EndChar

StartChar: U0C09
Encoding: 38 3081 38
GlifName: U0C09_
Width: 865
VWidth: 0
Flags: W
LayerCount: 2
Back
Fore
SplineSet
526 535 m 257
 526 523 526 523 511.5 510.5 c 128
 497 498 497 498 478.5 487.5 c 128
 460 477 460 477 443 470.5 c 128
 426 464 426 464 423 464 c 257
 410 464 410 464 394 469.5 c 128
 378 475 378 475 364 484.5 c 128
 350 494 350 494 340.5 505.5 c 128
 331 517 331 517 331 529 c 257
 331 541 331 541 346 553.5 c 128
 361 566 361 566 380 577 c 128
 399 588 399 588 417 595 c 128
 435 602 435 602 441 602 c 257
 446 602 446 602 453.5 598 c 128
 461 594 461 594 469 589 c 257
 453 590 453 590 435 578 c 128
 417 566 417 566 407 552.5 c 128
 397 539 397 539 400 527 c 128
 403 515 403 515 429 515 c 257
NamedP: "hr01"
 435 515 435 515 446 517.5 c 128
 457 520 457 520 464.5 525 c 128
 472 530 472 530 473.5 537 c 128
 475 544 475 544 463 553 c 257
 460 538 460 538 452 537 c 128
 444 536 444 536 437.5 542 c 128
 431 548 431 548 429 557.5 c 128
 427 567 427 567 435 573 c 257
 451 585 451 585 467 585.5 c 128
 483 586 483 586 496.5 579 c 128
 510 572 510 572 518 560.5 c 128
 526 549 526 549 526 535 c 257
742 258 m 257
 709 256 709 256 674 251.5 c 128
 639 247 639 247 604 242 c 128
 569 237 569 237 534.5 232 c 128
 500 227 500 227 465 227 c 257
 258 224 l 257
 258 216 258 216 273.5 201 c 128
 289 186 289 186 309.5 171.5 c 128
 330 157 330 157 350 145.5 c 128
 370 134 370 134 378 134 c 257
 387 134 387 134 402.5 145.5 c 128
 418 157 418 157 433.5 170.5 c 128
 449 184 449 184 461 196.5 c 128
 473 209 473 209 476 212 c 257
 485 206 485 206 502.5 189 c 128
 520 172 520 172 540.5 154 c 128
 561 136 561 136 582 123 c 128
 603 110 603 110 621 110 c 257
 640 110 640 110 646.5 121.5 c 128
 653 133 653 133 650.5 147.5 c 128
 648 162 648 162 637 173.5 c 128
 626 185 626 185 610 185 c 257
 604 185 604 185 603 180.5 c 128
 602 176 602 176 600.5 170 c 128
 599 164 599 164 596.5 159.5 c 128
 594 155 594 155 585 155 c 257
NamedP: "hr02"
 580 155 580 155 575.5 159 c 128
 571 163 571 163 567 168 c 128
 563 173 563 173 561 177.5 c 128
 559 182 559 182 559 183 c 257
 559 195 559 195 584.5 204 c 128
 610 213 610 213 643 220 c 128
 676 227 676 227 707.5 232.5 c 128
 739 238 739 238 752 243 c 257
 752 242 752 242 757 233 c 128
 762 224 762 224 768 213 c 128
 774 202 774 202 779 190 c 128
 784 178 784 178 784 172 c 257
 784 158 784 158 770 140 c 128
 756 122 756 122 734.5 103 c 128
 713 84 713 84 686.5 65.5 c 128
 660 47 660 47 636 32.5 c 128
 612 18 612 18 593 9.5 c 128
 574 1 574 1 568 1 c 257
 555 1 555 1 534.5 10.5 c 128
 514 20 514 20 494 31.5 c 128
 474 43 474 43 457.5 52.5 c 128
 441 62 441 62 436 62 c 257
NamedP: "hr03"
 425.5 53 l 130
 415 44 415 44 401 32 c 128
 387 20 387 20 373 11 c 128
 359 2 359 2 352 2 c 257
 332 2 332 2 306 13 c 128
 280 24 280 24 253.5 42 c 128
 227 60 227 60 202.5 84 c 128
 178 108 178 108 159.5 132.5 c 128
 141 157 141 157 132 182 c 128
 123 207 123 207 126 227 c 257
 56 233 56 233 27.5 260.5 c 128
 -1 288 -1 288 0.5 318.5 c 128
 2 349 2 349 28 373 c 128
 54 397 54 397 96 397 c 257
 118 397 118 397 135 386.5 c 128
 152 376 152 376 160 361 c 128
 168 346 168 346 165 329.5 c 128
 162 313 162 313 145 302 c 257
 139 298 139 298 131 297 c 128
 123 296 123 296 114 297 c 128
 105 298 105 298 97.5 300.5 c 128
 90 303 90 303 86 308 c 257
 78 316 78 316 77 327.5 c 128
 76 339 76 339 85 351 c 257
NamedP: "hr04"
 78 348 78 348 70 339.5 c 128
 62 331 62 331 65 321 c 257
 68 301 68 301 80 293.5 c 128
 92 286 92 286 106.5 285 c 128
 121 284 121 284 133 287.5 c 128
 145 291 145 291 148 293 c 257
 166.5 306 l 130
 185 319 185 319 214.5 339 c 128
 244 359 244 359 281 382.5 c 128
 318 406 318 406 357.5 425 c 128
 397 444 397 444 434 457.5 c 128
 471 471 471 471 501 471 c 257
 530 471 530 471 561.5 459 c 128
 593 447 593 447 623.5 429.5 c 128
 654 412 654 412 684 390.5 c 128
 714 369 714 369 740 349 c 257
 700 359 700 359 669 354.5 c 128
 638 350 638 350 614 340 c 128
 590 330 590 330 573 319.5 c 128
 556 309 556 309 546 308 c 257
 527 306 527 306 519.5 313.5 c 128
 512 321 512 321 512.5 330 c 128
 513 339 513 339 522 348 c 128
 531 357 531 357 548 360 c 257
 532 383 532 383 508 389.5 c 128
 484 396 484 396 456 391.5 c 128
 428 387 428 387 398.5 374 c 128
 369 361 369 361 342 345 c 128
 315 329 315 329 293.5 312 c 128
 272 295 272 295 261 284 c 257
 326 282 326 282 385 283 c 128
 444 284 444 284 500 286.5 c 128
 556 289 556 289 609.5 291 c 128
 663 293 663 293 715 293 c 257
 742 258 l 257
EndSplineSet
PickledDataWithLists: "(dp1
S'com.adobe.type.autohint'
p2
(S'data'
S'<data>\\n  <hintSetList>\\n    <hintset pointTag=\"hr01\">\\n      <hstem pos=\"2\" width=\"108\"/>\\n      <hstem pos=\"258\" width=\"213\"/>\\n      <vstem pos=\"331\" width=\"195\"/>\\n      <vstem pos=\"559\" width=\"225\"/>\\n    </hintset>\\n    <hintset pointTag=\"hr02\">\\n      <hstem pos=\"22\" width=\"-21\"/>\\n      <hstem pos=\"155\" width=\"129\"/>\\n      <hstem pos=\"464\" width=\"51\"/>\\n      <vstem pos=\"331\" width=\"195\"/>\\n      <vstem pos=\"559\" width=\"225\"/>\\n    </hintset>\\n    <hintset pointTag=\"hr03\">\\n      <hstem pos=\"2\" width=\"108\"/>\\n      <hstem pos=\"185\" width=\"99\"/>\\n      <hstem pos=\"464\" width=\"51\"/>\\n      <vstem pos=\"331\" width=\"195\"/>\\n      <vstem pos=\"559\" width=\"225\"/>\\n    </hintset>\\n    <hintset pointTag=\"hr04\">\\n      <hstem pos=\"2\" width=\"108\"/>\\n      <hstem pos=\"258\" width=\"26\"/>\\n      <hstem pos=\"464\" width=\"51\"/>\\n      <vstem pos=\"331\" width=\"195\"/>\\n      <vstem pos=\"559\" width=\"225\"/>\\n    </hintset>\\n  </hintSetList>\\n  </data>'
Ntp3
s."
EndChar

StartChar: U0C0A
Encoding: 39 3082 39
GlifName: U0C0A_
Width: 1212
VWidth: 0
Flags: W
LayerCount: 2
Back
Fore
SplineSet
486 528 m 257
 486 517 486 517 471.5 504.5 c 128
 457 492 457 492 438.5 481.5 c 128
 420 471 420 471 403 464.5 c 128
 386 458 386 458 383 458 c 257
 370 458 370 458 354 463.5 c 128
 338 469 338 469 324 478.5 c 128
 310 488 310 488 300.5 500 c 128
 291 512 291 512 291 524 c 257
 291 536 291 536 306.5 548.5 c 128
 322 561 322 561 340.5 572 c 128
 359 583 359 583 377 590 c 128
 395 597 395 597 401 597 c 257
 407 597 407 597 414 592.5 c 128
 421 588 421 588 429 583 c 257
 413 584 413 584 395 572.5 c 128
 377 561 377 561 367 547.5 c 128
 357 534 357 534 360.5 522 c 128
 364 510 364 510 389 510 c 257
 395 510 395 510 406 512.5 c 128
 417 515 417 515 424.5 519.5 c 128
 432 524 432 524 433.5 531.5 c 128
 435 539 435 539 423 547 c 257
 420 531 420 531 412 530.5 c 128
 404 530 404 530 397.5 536.5 c 128
 391 543 391 543 389 552 c 128
 387 561 387 561 395 567 c 257
NamedP: "hr01"
 411 579 411 579 427 580 c 128
 443 581 443 581 456.5 574 c 128
 470 567 470 567 478 555 c 128
 486 543 486 543 486 528 c 257
96 395 m 257
 118 395 118 395 135 385 c 128
 152 375 152 375 160 360 c 128
 168 345 168 345 165 328.5 c 128
 162 312 162 312 145 301 c 257
 139 297 139 297 131 296 c 128
 123 295 123 295 114 295.5 c 128
 105 296 105 296 97.5 299 c 128
 90 302 90 302 86 306 c 257
 78 314 78 314 77 326 c 128
 76 338 76 338 85 349 c 257
 78 346 78 346 70 338 c 128
 62 330 62 330 65 318 c 257
 68 299 68 299 80 291.5 c 128
 92 284 92 284 106.5 283.5 c 128
 121 283 121 283 133 286 c 128
 145 289 145 289 148 292 c 257
 166.5 305 l 130
 185 318 185 318 214.5 338 c 128
 244 358 244 358 281 380.5 c 128
 318 403 318 403 357.5 423 c 128
 397 443 397 443 434 456 c 128
 471 469 471 469 501 469 c 257
 530 469 530 469 561.5 457 c 128
 593 445 593 445 623.5 427.5 c 128
 654 410 654 410 684 388.5 c 128
 714 367 714 367 740 347 c 257
 700 358 700 358 669 353.5 c 128
 638 349 638 349 614 339 c 128
 590 329 590 329 573 318 c 128
 556 307 556 307 546 306 c 257
 527 305 527 305 519.5 311.5 c 128
 512 318 512 318 512.5 327.5 c 128
 513 337 513 337 522 346 c 128
 531 355 531 355 548 358 c 257
 532 381 532 381 508 387.5 c 128
 484 394 484 394 456 389.5 c 128
 428 385 428 385 398.5 372 c 128
 369 359 369 359 342 343 c 128
 315 327 315 327 293.5 310 c 128
 272 293 272 293 261 282 c 257
NamedP: "hr02"
 345 279 345 279 401.5 279.5 c 128
 458 280 458 280 500.5 282.5 c 128
 543 285 543 285 578.5 287.5 c 128
 614 290 614 290 656 290 c 257
 730 290 730 290 802 289 c 128
 874 288 874 288 946 273 c 257
 949 273 949 273 962 278 c 128
 975 283 975 283 990 289.5 c 128
 1005 296 1005 296 1016 304.5 c 128
 1027 313 1027 313 1027 321 c 257
 1027 337 1027 337 1010.5 348.5 c 128
 994 360 994 360 973 365.5 c 128
 952 371 952 371 931.5 367.5 c 128
 911 364 911 364 902 348 c 257
 909 345 909 345 915 345.5 c 128
 921 346 921 346 925 345 c 128
 929 344 929 344 931.5 339.5 c 128
 934 335 934 335 934 323 c 257
 923 299 923 299 899.5 303.5 c 128
 876 308 876 308 849.5 324.5 c 128
 823 341 823 341 797.5 360 c 128
 772 379 772 379 756 384 c 257
 780 395 780 395 801.5 409 c 128
 823 423 823 423 843.5 434.5 c 128
 864 446 864 446 883 454.5 c 128
 902 463 902 463 923 463 c 257
 942 463 942 463 972 451 c 128
 1002 439 1002 439 1031 420 c 128
 1060 401 1060 401 1080.5 378 c 128
 1101 355 1101 355 1101 334 c 257
NamedP: "hr03"
 1101 317 1101 317 1085.5 304 c 128
 1070 291 1070 291 1050.5 280.5 c 128
 1031 270 1031 270 1013.5 263.5 c 128
 996 257 996 257 992 254 c 257
 994 249 994 249 1016 241 c 128
 1038 233 1038 233 1063.5 221 c 128
 1089 209 1089 209 1109.5 193 c 128
 1130 177 1130 177 1130 157 c 257
 1130 130 1130 130 1113.5 107 c 128
 1097 84 1097 84 1072.5 64.5 c 128
 1048 45 1048 45 1019 29 c 128
 990 13 990 13 968 1 c 257
 965 2 965 2 950 7.5 c 128
 935 13 935 13 914.5 22 c 128
 894 31 894 31 871.5 43 c 128
 849 55 849 55 829.5 70.5 c 128
 810 86 810 86 797 104.5 c 128
 784 123 784 123 784 143 c 257
 784 157 784 157 798.5 172.5 c 128
 813 188 813 188 831 203 c 128
 849 218 849 218 865 228.5 c 128
 881 239 881 239 883 240 c 257
 848 254 848 254 798.5 254 c 128
 749 254 749 254 692.5 248 c 128
 636 242 636 242 577 234 c 128
 518 226 518 226 465 226 c 257
 258 223 l 257
 258 215 258 215 273.5 200 c 128
 289 185 289 185 309.5 170.5 c 128
 330 156 330 156 350 144.5 c 128
 370 133 370 133 378 133 c 257
NamedP: "hr04"
 387 133 387 133 402.5 144.5 c 128
 418 156 418 156 433.5 169.5 c 128
 449 183 449 183 461 195.5 c 128
 473 208 473 208 476 211 c 257
 485 204 485 204 502.5 187 c 128
 520 170 520 170 540.5 152.5 c 128
 561 135 561 135 582 122 c 128
 603 109 603 109 621 109 c 257
 640 109 640 109 646.5 120.5 c 128
 653 132 653 132 650.5 146.5 c 128
 648 161 648 161 637 172.5 c 128
 626 184 626 184 610 184 c 257
 604 184 604 184 603 179.5 c 128
 602 175 602 175 600.5 169 c 128
 599 163 599 163 596.5 158.5 c 128
 594 154 594 154 585 154 c 257
 580 154 580 154 575.5 158 c 128
 571 162 571 162 567 167 c 128
 563 172 563 172 561 176.5 c 128
 559 181 559 181 559 182 c 257
 559 194 559 194 584.5 203 c 128
 610 212 610 212 643 218.5 c 128
 676 225 676 225 707.5 231 c 128
 739 237 739 237 752 241 c 257
 752 240 752 240 757 231.5 c 128
 762 223 762 223 768 212 c 128
 774 201 774 201 779 189 c 128
 784 177 784 177 784 171 c 257
 784 157 784 157 770 139 c 128
 756 121 756 121 734.5 102.5 c 128
 713 84 713 84 686.5 65.5 c 128
 660 47 660 47 636 32.5 c 128
 612 18 612 18 593 9.5 c 128
 574 1 574 1 568 1 c 257
NamedP: "hr05"
 555 1 555 1 534.5 10 c 128
 514 19 514 19 494 31 c 128
 474 43 474 43 457.5 52 c 128
 441 61 441 61 436 61 c 257
 425.5 52 l 130
 415 43 415 43 401 31.5 c 128
 387 20 387 20 373 11 c 128
 359 2 359 2 352 2 c 257
 322 2 322 2 280.5 25.5 c 128
 239 49 239 49 203 83.5 c 128
 167 118 167 118 144 157 c 128
 121 196 121 196 126 226 c 257
 80 230 80 230 52 244 c 128
 24 258 24 258 11.5 277 c 128
 -1 296 -1 296 0 316.5 c 128
 1 337 1 337 13.5 355 c 128
 26 373 26 373 47.5 384 c 128
 69 395 69 395 96 395 c 257
1041 165 m 257
 1041 171 1041 171 1026.5 181 c 128
 1012 191 1012 191 992.5 200.5 c 128
 973 210 973 210 955.5 216.5 c 128
 938 223 938 223 932 223 c 257
 927 223 927 223 917.5 216.5 c 128
 908 210 908 210 899.5 200.5 c 128
 891 191 891 191 884.5 182.5 c 128
 878 174 878 174 878 171 c 257
 878 159 878 159 889 148 c 128
 900 137 900 137 915 129.5 c 128
 930 122 930 122 943.5 117.5 c 128
 957 113 957 113 963 113 c 257
 967 113 967 113 979.5 117 c 128
 992 121 992 121 1006 128 c 128
 1020 135 1020 135 1030.5 145 c 128
 1041 155 1041 155 1041 165 c 257
679 518 m 257
 679 508 679 508 667.5 496.5 c 128
 656 485 656 485 642.5 476 c 128
 629 467 629 467 616 461 c 128
 603 455 603 455 600 455 c 257
 588 455 588 455 571 462.5 c 128
 554 470 554 470 537.5 481.5 c 128
 521 493 521 493 510 506 c 128
 499 519 499 519 499 530 c 257
 499 541 499 541 511 550 c 128
 523 559 523 559 538.5 566.5 c 128
 554 574 554 574 569 579 c 128
 584 584 584 584 590 584 c 257
 594 584 594 584 599.5 580.5 c 128
 605 577 605 577 613 572 c 257
 596 573 596 573 581 561.5 c 128
 566 550 566 550 560 536 c 128
 554 522 554 522 559 510.5 c 128
 564 499 564 499 588 499 c 257
 607 499 607 499 619.5 503.5 c 128
 632 508 632 508 636 513.5 c 128
 640 519 640 519 635.5 525 c 128
 631 531 631 531 616 535 c 257
 613 520 613 520 605 519.5 c 128
 597 519 597 519 590.5 525.5 c 128
 584 532 584 532 581 542.5 c 128
 578 553 578 553 586 559 c 257
 603 572 603 572 620 569 c 128
 637 566 637 566 650 557 c 128
 663 548 663 548 671 535.5 c 128
 679 523 679 523 679 518 c 257
EndSplineSet
PickledDataWithLists: "(dp1
S'com.adobe.type.autohint'
p2
(S'data'
S'<data>\\n  <hintSetList>\\n    <hintset pointTag=\"hr01\">\\n      <hstem pos=\"2\" width=\"107\"/>\\n      <hstem pos=\"224\" width=\"58\"/>\\n      <hstem pos=\"290\" width=\"165\"/>\\n      <hstem pos=\"499\" width=\"73\"/>\\n      <vstem pos=\"291\" width=\"195\"/>\\n      <vstem pos=\"499\" width=\"180\"/>\\n      <vstem pos=\"784\" width=\"94\"/>\\n      <vstem pos=\"1041\" width=\"89\"/>\\n    </hintset>\\n    <hintset pointTag=\"hr02\">\\n      <hstem pos=\"22\" width=\"-21\"/>\\n      <hstem pos=\"109\" width=\"45\"/>\\n      <hstem pos=\"184\" width=\"106\"/>\\n      <hstem pos=\"306\" width=\"157\"/>\\n      <hstem pos=\"499\" width=\"73\"/>\\n      <vstem pos=\"291\" width=\"195\"/>\\n      <vstem pos=\"559\" width=\"225\"/>\\n      <vstem pos=\"1027\" width=\"74\"/>\\n    </hintset>\\n    <hintset pointTag=\"hr03\">\\n      <hstem pos=\"22\" width=\"-21\"/>\\n      <hstem pos=\"133\" width=\"91\"/>\\n      <hstem pos=\"306\" width=\"157\"/>\\n      <hstem pos=\"499\" width=\"73\"/>\\n      <vstem pos=\"291\" width=\"195\"/>\\n      <vstem pos=\"559\" width=\"225\"/>\\n      <vstem pos=\"1041\" width=\"89\"/>\\n    </hintset>\\n    <hintset pointTag=\"hr04\">\\n      <hstem pos=\"2\" width=\"107\"/>\\n      <hstem pos=\"154\" width=\"136\"/>\\n      <hstem pos=\"306\" width=\"157\"/>\\n      <hstem pos=\"499\" width=\"73\"/>\\n      <vstem pos=\"291\" width=\"195\"/>\\n      <vstem pos=\"499\" width=\"180\"/>\\n      <vstem pos=\"784\" width=\"94\"/>\\n      <vstem pos=\"1027\" width=\"74\"/>\\n    </hintset>\\n    <hintset pointTag=\"hr05\">\\n      <hstem pos=\"2\" width=\"107\"/>\\n      <hstem pos=\"133\" width=\"91\"/>\\n      <hstem pos=\"282\" width=\"24\"/>\\n      <hstem pos=\"455\" width=\"44\"/>\\n      <vstem pos=\"291\" width=\"195\"/>\\n      <vstem pos=\"499\" width=\"180\"/>\\n      <vstem pos=\"784\" width=\"94\"/>\\n      <vstem pos=\"1027\" width=\"74\"/>\\n    </hintset>\\n  </hintSetList>\\n  </data>'
Ntp3
s."
EndChar

StartChar: U0C0B
Encoding: 40 3083 40
GlifName: U0C0B_
Width: 1403
VWidth: 0
Flags: W
LayerCount: 2
Back
Fore
SplineSet
1321 232 m 257
 1321 208 1321 208 1301 172.5 c 128
 1281 137 1281 137 1248 103 c 128
 1215 69 1215 69 1172.5 41.5 c 128
 1130 14 1130 14 1084.5 6.5 c 128
 1039 -1 1039 -1 994 16 c 128
 949 33 949 33 911 86 c 257
 880 52 880 52 846.5 29.5 c 128
 813 7 813 7 775.5 4.5 c 128
 738 2 738 2 695.5 24 c 128
 653 46 653 46 604 101 c 257
 561 59 561 59 529.5 34 c 128
 498 9 498 9 466.5 4.5 c 128
 435 0 435 0 400 19 c 128
 365 38 365 38 314 86 c 257
 298 69 298 69 281.5 48 c 128
 265 27 265 27 248 4 c 257
 236 2 236 2 212.5 6.5 c 128
 189 11 189 11 161.5 22.5 c 128
 134 34 134 34 105.5 50 c 128
 77 66 77 66 53.5 86 c 128
 30 106 30 106 15 130.5 c 128
 0 155 0 155 0 180 c 257
 0 208 0 208 19 227.5 c 128
 38 247 38 247 66 260.5 c 128
 94 274 94 274 127.5 284 c 128
 161 294 161 294 189 301.5 c 128
 217 309 217 309 236 317 c 128
 255 325 255 325 255 334 c 257
 255 351 255 351 238 365.5 c 128
 221 380 221 380 198.5 384.5 c 128
 176 389 176 389 155 382 c 128
 134 375 134 375 125 349 c 257
 129 349 129 349 134.5 355.5 c 128
 140 362 140 362 153 358 c 257
 163 355 163 355 166 348 c 128
 169 341 169 341 167 334 c 128
 165 327 165 327 158.5 321 c 128
 152 315 152 315 142 315 c 257
 105 315 105 315 88.5 326.5 c 128
 72 338 72 338 60.5 353 c 128
 49 368 49 368 37.5 381 c 128
 26 394 26 394 0 397 c 257
 26 407 26 407 52 420 c 128
 78 433 78 433 101 444.5 c 128
 124 456 124 456 142 464 c 128
 160 472 160 472 171 472 c 257
 200 472 200 472 230.5 464 c 128
 261 456 261 456 287.5 437 c 128
 314 418 314 418 335 387 c 128
 356 356 356 356 368 312 c 257
 361 310 361 310 341 306.5 c 128
 321 303 321 303 294 297.5 c 128
 267 292 267 292 237.5 283.5 c 128
 208 275 208 275 183.5 263.5 c 128
 159 252 159 252 142.5 236 c 128
 126 220 126 220 126 201 c 257
 126 183 126 183 140 169.5 c 128
 154 156 154 156 171.5 146 c 128
 189 136 189 136 207 131 c 128
 225 126 225 126 234 126 c 257
 245 126 245 126 261.5 140 c 128
 278 154 278 154 293.5 170.5 c 128
 309 187 309 187 321.5 202 c 128
 334 217 334 217 336 219 c 257
 355 186 355 186 389.5 163.5 c 128
 424 141 424 141 458 141 c 257
 478 141 478 141 501.5 152.5 c 128
 525 164 525 164 544.5 183 c 128
 564 202 564 202 576.5 226 c 128
 589 250 589 250 588 275 c 257
 587 296 587 296 572.5 321.5 c 128
 558 347 558 347 537 369.5 c 128
 516 392 516 392 491.5 406.5 c 128
 467 421 467 421 447 418 c 257
 451 390 451 390 438 380.5 c 128
 425 371 425 371 411 373 c 128
 397 375 397 375 388 387.5 c 128
 379 400 379 400 388 418 c 257
 407 454 407 454 440.5 464 c 128
 474 474 474 474 512.5 463 c 128
 551 452 551 452 589.5 420.5 c 128
 628 389 628 389 654 342 c 257
NamedP: "hr01"
 673 308 673 308 674.5 282.5 c 128
 676 257 676 257 672 237 c 128
 668 217 668 217 663 202 c 128
 658 187 658 187 666 176 c 128
 674 165 674 165 699 156.5 c 128
 724 148 724 148 779 141 c 257
 800 138 800 138 823 149.5 c 128
 846 161 846 161 865 179.5 c 128
 884 198 884 198 896.5 221.5 c 128
 909 245 909 245 909 266 c 257
 909 284 909 284 897 311.5 c 128
 885 339 885 339 864 364 c 128
 843 389 843 389 815.5 405 c 128
 788 421 788 421 760 417 c 257
 768 409 768 409 768.5 399 c 128
 769 389 769 389 764 381.5 c 128
 759 374 759 374 750 370.5 c 128
 741 367 741 367 732 371 c 257
 711 379 711 379 709 398.5 c 128
 707 418 707 418 720 436 c 128
 733 454 733 454 759.5 464.5 c 128
 786 475 786 475 822 465.5 c 128
 858 456 858 456 900 419.5 c 128
 942 383 942 383 987 308 c 257
 998 290 998 290 998 272.5 c 128
 998 255 998 255 993.5 239.5 c 128
 989 224 989 224 983.5 210 c 128
 978 196 978 196 978.5 183.5 c 128
 979 171 979 171 988 161 c 128
 997 151 997 151 1023 143 c 257
 1074 128 1074 128 1112.5 131.5 c 128
 1151 135 1151 135 1176 152 c 128
 1201 169 1201 169 1214 194.5 c 128
 1227 220 1227 220 1227 249 c 257
 1227 260 1227 260 1220.5 278 c 128
 1214 296 1214 296 1203 316 c 128
 1192 336 1192 336 1177 355.5 c 128
 1162 375 1162 375 1145.5 389.5 c 128
 1129 404 1129 404 1111.5 412 c 128
 1094 420 1094 420 1077 417 c 257
 1089 404 1089 404 1088 394.5 c 128
 1087 385 1087 385 1079 379.5 c 128
 1071 374 1071 374 1059.5 372.5 c 128
 1048 371 1048 371 1037 375.5 c 128
 1026 380 1026 380 1020.5 390.5 c 128
 1015 401 1015 401 1019 420 c 257
 1023 438 1023 438 1035.5 449 c 128
 1048 460 1048 460 1063.5 465.5 c 128
 1079 471 1079 471 1095 471.5 c 128
 1111 472 1111 472 1123 469 c 257
 1167 460 1167 460 1204 433.5 c 128
 1241 407 1241 407 1266.5 372 c 128
 1292 337 1292 337 1306.5 300 c 128
 1321 263 1321 263 1321 232 c 257
EndSplineSet
PickledDataWithLists: "(dp1
S'com.adobe.type.autohint'
p2
(S'data'
S'<data>\\n  <hintSetList>\\n    <hintset pointTag=\"hr01\">\\n      <hstem pos=\"315\" width=\"157\"/>\\n      <vstem pos=\"0\" width=\"126\"/>\\n      <vstem pos=\"1227\" width=\"94\"/>\\n    </hintset>\\n  </hintSetList>\\n  </data>'
Ntp3
s."
EndChar

StartChar: U0C0C
Encoding: 41 3084 41
GlifName: U0C0C_
Width: 850
VWidth: 0
Flags: W
LayerCount: 2
Back
Fore
SplineSet
658 125 m 257
NamedP: "hr00"
 673 160 673 160 682 194 c 128
 691 228 691 228 682 261 c 257
 675 257 675 257 668.5 259.5 c 128
 662 262 662 262 658 267 c 128
 654 272 654 272 653.5 279.5 c 128
 653 287 653 287 658 293 c 257
 672 307 672 307 686.5 302 c 128
 701 297 701 297 721 286.5 c 128
 741 276 741 276 767 267.5 c 128
 793 259 793 259 827 267 c 257
 833 268 833 268 840.5 268 c 128
 848 268 848 268 852 259 c 257
 848 251 848 251 839 249.5 c 128
 830 248 830 248 829 243 c 257
 824 210 824 210 810 174.5 c 128
 796 139 796 139 779.5 109 c 128
 763 79 763 79 749 59 c 128
 735 39 735 39 730 36 c 257
 693 -4 693 -4 639.5 -32.5 c 128
 586 -61 586 -61 530 -79.5 c 128
 474 -98 474 -98 424 -107 c 128
 374 -116 374 -116 344 -116 c 257
 307 -116 307 -116 271.5 -103 c 128
 236 -90 236 -90 205.5 -69 c 128
 175 -48 175 -48 155 -21.5 c 128
 135 5 135 5 130.5 32.5 c 128
 126 60 126 60 140 87 c 128
 154 114 154 114 193 134 c 257
 243 161 243 161 283 169 c 128
 323 177 323 177 354.5 180 c 128
 386 183 386 183 411.5 189.5 c 128
 437 196 437 196 460 219 c 257
 472 232 472 232 482.5 259 c 128
 493 286 493 286 493 312 c 128
 493 338 493 338 478.5 358 c 128
 464 378 464 378 429 378 c 257
 402 378 402 378 388 371.5 c 128
 374 365 374 365 367 355 c 128
 360 345 360 345 358 334 c 128
 356 323 356 323 353.5 314 c 128
 351 305 351 305 346 300 c 128
 341 295 341 295 328 298 c 257
 303 302 303 302 294 303.5 c 128
 285 305 285 305 283.5 309 c 128
 282 313 282 313 284 323 c 128
 286 333 286 333 282 354 c 257
 281 360 281 360 268.5 372.5 c 128
 256 385 256 385 240.5 397.5 c 128
 225 410 225 410 210 418.5 c 128
 195 427 195 427 186 426 c 257
 147 422 147 422 131 405 c 128
 115 388 115 388 118.5 370.5 c 128
 122 353 122 353 145 339.5 c 128
 168 326 168 326 208 328 c 257
 205 336 205 336 212 344.5 c 128
 219 353 219 353 229 355 c 128
 239 357 239 357 248 350.5 c 128
 257 344 257 344 257 322 c 257
 257 306 257 306 233.5 295 c 128
 210 284 210 284 180 274 c 128
 150 264 150 264 120.5 254.5 c 128
 91 245 91 245 80 232 c 257
 56 255 56 255 41 270 c 128
 26 285 26 285 16.5 297 c 128
 7 309 7 309 3.5 322 c 128
 0 335 0 335 0 355 c 257
 0 369 0 369 15 384.5 c 128
 30 400 30 400 53 416.5 c 128
 76 433 76 433 103 448.5 c 128
 130 464 130 464 155.5 475.5 c 128
 181 487 181 487 200.5 494.5 c 128
 220 502 220 502 227 501 c 257
 263 498 263 498 295.5 480.5 c 128
 328 463 328 463 357 429 c 257
 374 440 374 440 393.5 455.5 c 128
 413 471 413 471 433 471 c 257
 456 471 456 471 487.5 452 c 128
 519 433 519 433 548.5 405 c 128
 578 377 578 377 599 344.5 c 128
 620 312 620 312 620 286 c 257
 620 258 620 258 609.5 236 c 128
 599 214 599 214 585 197 c 128
 571 180 571 180 558 169 c 128
 545 158 545 158 539 152 c 257
 507 132 507 132 470 125.5 c 128
 433 119 433 119 395.5 114.5 c 128
 358 110 358 110 324 102.5 c 128
 290 95 290 95 264 75 c 257
 244 58 244 58 249.5 42 c 128
 255 26 255 26 273.5 12 c 128
 292 -2 292 -2 315.5 -11 c 128
 339 -20 339 -20 356 -22 c 257
 370 -23 370 -23 407.5 -17 c 128
 445 -11 445 -11 492 5.5 c 128
 539 22 539 22 584.5 50.5 c 128
 630 79 630 79 658 125 c 257
NamedP: "hr00"
EndSplineSet
PickledDataWithLists: "(dp1
S'com.adobe.type.autohint'
p2
(S'data'
S'<data>\\n  <hintSetList>\\n    <hintset pointTag=\"hr00\">\\n      <hstem pos=\"-95\" width=\"-21\"/>\\n      <hstem pos=\"378\" width=\"93\"/>\\n    </hintset>\\n  </hintSetList>\\n  </data>'
Ntp3
s."
EndChar

StartChar: U0C0E
Encoding: 42 3086 42
GlifName: U0C0E_
Width: 741
VWidth: 0
Flags: W
LayerCount: 2
Back
Fore
SplineSet
227 204 m 257
 234 204 234 204 251 197 c 128
 268 190 268 190 289 180.5 c 128
 310 171 310 171 332.5 159.5 c 128
 355 148 355 148 374.5 138.5 c 128
 394 129 394 129 408.5 122.5 c 128
 423 116 423 116 427 116 c 257
 440 116 440 116 460 128 c 128
 480 140 480 140 498 158.5 c 128
 516 177 516 177 528.5 197 c 128
 541 217 541 217 539 232 c 257
 535 268 535 268 509.5 296 c 128
 484 324 484 324 450.5 342 c 128
 417 360 417 360 380 370 c 128
 343 380 343 380 314.5 380.5 c 128
 286 381 286 381 271.5 372.5 c 128
 257 364 257 364 268 345 c 257
 281 357 281 357 290 361.5 c 128
 299 366 299 366 311 357 c 257
 322 351 322 351 325 342 c 128
 328 333 328 333 324.5 324 c 128
 321 315 321 315 310.5 309 c 128
 300 303 300 303 283 303 c 257
 268 303 268 303 255.5 315.5 c 128
 243 328 243 328 228.5 341.5 c 128
 214 355 214 355 198.5 365 c 128
 183 375 183 375 165 371 c 257
 155 382 155 382 159.5 394 c 128
 164 406 164 406 177.5 417 c 128
 191 428 191 428 210.5 437.5 c 128
 230 447 230 447 250 455 c 128
 270 463 270 463 286.5 467.5 c 128
 303 472 303 472 311 473 c 257
NamedP: "hr01"
 322 474 322 474 350.5 463 c 128
 379 452 379 452 415.5 432 c 128
 452 412 452 412 491.5 385.5 c 128
 531 359 531 359 564.5 331 c 128
 598 303 598 303 619.5 274.5 c 128
 641 246 641 246 641 221 c 257
 641 187 641 187 617.5 148.5 c 128
 594 110 594 110 560.5 77 c 128
 527 44 527 44 491 22 c 128
 455 0 455 0 430 0 c 257
 417 0 417 0 397 8 c 128
 377 16 377 16 357 26 c 128
 337 36 337 36 321 44 c 128
 305 52 305 52 302 52 c 257
 301 52 301 52 285 44 c 128
 269 36 269 36 248.5 26 c 128
 228 16 228 16 206.5 8 c 128
 185 0 185 0 172 0 c 257
 151 0 151 0 121 6.5 c 128
 91 13 91 13 64 26.5 c 128
 37 40 37 40 18 59.5 c 128
 -1 79 -1 79 0 103 c 257
 0 123 0 123 12.5 142.5 c 128
 25 162 25 162 43 179 c 128
 61 196 61 196 85 209 c 128
 109 222 109 222 132 227.5 c 128
 155 233 155 233 176.5 230.5 c 128
 198 228 198 228 212 214 c 257
 199 209 199 209 184.5 202 c 128
 170 195 170 195 162 180 c 257
 122 180 122 180 108 162.5 c 128
 94 145 94 145 98.5 124 c 128
 103 103 103 103 121.5 86 c 128
 140 69 140 69 166 69 c 257
 188 69 188 69 210.5 78 c 128
 233 87 233 87 244.5 100.5 c 128
 256 114 256 114 250.5 129 c 128
 245 144 245 144 211 156 c 257
 213 139 213 139 202 135 c 128
 191 131 191 131 180 135 c 128
 169 139 169 139 163 150.5 c 128
 157 162 157 162 168 176 c 257
 169 178 169 178 173.5 183 c 128
 178 188 178 188 186 193.5 c 128
 194 199 194 199 204 202 c 128
 214 205 214 205 227 204 c 257
EndSplineSet
PickledDataWithLists: "(dp1
S'com.adobe.type.autohint'
p2
(S'data'
S'<data>\\n  <hintSetList>\\n    <hintset pointTag=\"hr01\">\\n      <hstem pos=\"0\" width=\"69\"/>\\n      <hstem pos=\"204\" width=\"99\"/>\\n    </hintset>\\n  </hintSetList>\\n  </data>'
Ntp3
s."
EndChar

StartChar: U0C0F
Encoding: 43 3087 43
GlifName: U0C0F_
Width: 723
VWidth: 0
Flags: W
LayerCount: 2
Back
Fore
SplineSet
483 463 m 257
 467 496 467 496 436.5 512.5 c 128
 406 529 406 529 369 533 c 128
 332 537 332 537 294 527.5 c 128
 256 518 256 518 225 499 c 128
 194 480 194 480 174 453.5 c 128
 154 427 154 427 154 394 c 257
 154 380 154 380 156 378 c 128
 158 376 158 376 162.5 378.5 c 128
 167 381 167 381 173.5 385.5 c 128
 180 390 180 390 188 389 c 257
 204 387 204 387 207 374.5 c 128
 210 362 210 362 204.5 347.5 c 128
 199 333 199 333 187 321 c 128
 175 309 175 309 163 309 c 257
NamedP: "hr01"
 140 309 140 309 124.5 323.5 c 128
 109 338 109 338 93 360 c 128
 77 382 77 382 58 408.5 c 128
 39 435 39 435 10 460 c 257
 97 546 97 546 169.5 584 c 128
 242 622 242 622 298 628 c 128
 354 634 354 634 394 615 c 128
 434 596 434 596 457.5 568 c 128
 481 540 481 540 488 509.5 c 128
 495 479 495 479 483 463 c 257
227 204 m 257
 234 204 234 204 251 197 c 128
 268 190 268 190 289 180.5 c 128
 310 171 310 171 332.5 159.5 c 128
 355 148 355 148 374.5 138.5 c 128
 394 129 394 129 408.5 122.5 c 128
 423 116 423 116 427 116 c 257
 440 116 440 116 460 128 c 128
 480 140 480 140 498 158.5 c 128
 516 177 516 177 528.5 197 c 128
 541 217 541 217 539 232 c 257
 535 268 535 268 516.5 294.5 c 128
 498 321 498 321 474 336.5 c 128
 450 352 450 352 424.5 359 c 128
 399 366 399 366 380 363.5 c 128
 361 361 361 361 353.5 351 c 128
 346 341 346 341 357 323 c 257
 364 329 364 329 367 333.5 c 128
 370 338 370 338 372 341 c 128
 374 344 374 344 377.5 345.5 c 128
 381 347 381 347 388 347 c 257
 413 346 413 346 418.5 336 c 128
 424 326 424 326 418 313.5 c 128
 412 301 412 301 396.5 291.5 c 128
 381 282 381 282 364 282 c 257
 349 282 349 282 335 297.5 c 128
 321 313 321 313 305 331.5 c 128
 289 350 289 350 271.5 363 c 128
 254 376 254 376 236 370 c 257
 225 381 225 381 229.5 392.5 c 128
 234 404 234 404 248 415.5 c 128
 262 427 262 427 281.5 436.5 c 128
 301 446 301 446 321 454 c 128
 341 462 341 462 357.5 466.5 c 128
 374 471 374 471 382 472 c 257
 392 473 392 473 415.5 462 c 128
 439 451 439 451 468 431.5 c 128
 497 412 497 412 527.5 385.5 c 128
 558 359 558 359 583 331 c 128
 608 303 608 303 624.5 274.5 c 128
 641 246 641 246 641 221 c 257
 641 187 641 187 617.5 148.5 c 128
 594 110 594 110 560.5 77 c 128
 527 44 527 44 491 22 c 128
 455 0 455 0 430 0 c 257
 417 0 417 0 397 8 c 128
 377 16 377 16 357 26 c 128
 337 36 337 36 321 44 c 128
 305 52 305 52 302 52 c 257
 301 52 301 52 285 44 c 128
 269 36 269 36 248.5 26 c 128
 228 16 228 16 206.5 8 c 128
 185 0 185 0 172 0 c 257
 151 0 151 0 121 6.5 c 128
 91 13 91 13 64 26.5 c 128
 37 40 37 40 18 59.5 c 128
 -1 79 -1 79 0 103 c 257
NamedP: "hr02"
 0 123 0 123 12.5 142.5 c 128
 25 162 25 162 43 179 c 128
 61 196 61 196 85 209 c 128
 109 222 109 222 132 227.5 c 128
 155 233 155 233 176.5 230.5 c 128
 198 228 198 228 212 214 c 257
NamedP: "hr03"
 199 209 199 209 184.5 202 c 128
 170 195 170 195 162 180 c 257
 122 180 122 180 108 162.5 c 128
 94 145 94 145 98.5 124 c 128
 103 103 103 103 121.5 86 c 128
 140 69 140 69 166 69 c 257
 188 69 188 69 210.5 78 c 128
 233 87 233 87 244.5 100.5 c 128
 256 114 256 114 250.5 129 c 128
 245 144 245 144 211 156 c 257
 213 139 213 139 202 135 c 128
 191 131 191 131 180 135 c 128
 169 139 169 139 163 150.5 c 128
 157 162 157 162 168 176 c 257
 169 178 169 178 173.5 183 c 128
 178 188 178 188 186 193.5 c 128
 194 199 194 199 204 202 c 128
 214 205 214 205 227 204 c 257
EndSplineSet
PickledDataWithLists: "(dp1
S'com.adobe.type.autohint'
p2
(S'data'
S'<data>\\n  <hintSetList>\\n    <hintset pointTag=\"hr01\">\\n      <hstem pos=\"0\" width=\"69\"/>\\n      <hstem pos=\"282\" width=\"65\"/>\\n    </hintset>\\n    <hintset pointTag=\"hr02\">\\n      <hstem pos=\"0\" width=\"116\"/>\\n      <hstem pos=\"282\" width=\"65\"/>\\n    </hintset>\\n    <hintset pointTag=\"hr03\">\\n      <hstem pos=\"0\" width=\"204\"/>\\n      <hstem pos=\"282\" width=\"65\"/>\\n    </hintset>\\n  </hintSetList>\\n  </data>'
Ntp3
s."
EndChar

StartChar: U0C10
Encoding: 44 3088 44
GlifName: U0C10_
Width: 711
VWidth: 0
Flags: W
LayerCount: 2
Back
Fore
SplineSet
403 126 m 257
 417 127 417 127 436 137 c 128
 455 147 455 147 471.5 163 c 128
 488 179 488 179 500 198.5 c 128
 512 218 512 218 512 237 c 257
 512 256 512 256 502.5 276 c 128
 493 296 493 296 476.5 312 c 128
 460 328 460 328 438.5 338 c 128
 417 348 417 348 393 349 c 128
 369 350 369 350 345 340 c 128
 321 330 321 330 298 305 c 257
 304 300 304 300 306.5 293 c 128
 309 286 309 286 306.5 278 c 128
 304 270 304 270 296.5 265 c 128
 289 260 289 260 273 260 c 257
 264 260 264 260 256.5 265 c 128
 249 270 249 270 244.5 278 c 128
 240 286 240 286 240.5 294 c 128
 241 302 241 302 249 308 c 257
 252 328 252 328 239 341.5 c 128
 226 355 226 355 206 362.5 c 128
 186 370 186 370 163 371 c 128
 140 372 140 372 121.5 365.5 c 128
 103 359 103 359 93.5 345 c 128
 84 331 84 331 92 309 c 257
 112 313 112 313 121 305.5 c 128
 130 298 130 298 130.5 287 c 128
 131 276 131 276 125 266 c 128
 119 256 119 256 108 255 c 257
 84 253 84 253 68 257.5 c 128
 52 262 52 262 41 275 c 128
 30 288 30 288 21 310 c 128
 12 332 12 332 3 365 c 257
NamedP: "hr01"
 22 394 22 394 45 418 c 257
 66 438 66 438 93.5 455 c 128
 121 472 121 472 157 472 c 257
NamedP: "hr02"
 187 472 187 472 209 462.5 c 128
 231 453 231 453 245.5 441.5 c 128
 260 430 260 430 267 420.5 c 128
 274 411 274 411 276 411 c 257
 301 427 301 427 323 440 c 257
 341 452 341 452 360.5 461.5 c 128
 380 471 380 471 393 471 c 257
 427 471 427 471 468.5 443 c 128
 510 415 510 415 545.5 375 c 128
 581 335 581 335 605 292 c 128
 629 249 629 249 629 218 c 257
 629 199 629 199 618 175.5 c 128
 607 152 607 152 589.5 127.5 c 128
 572 103 572 103 549.5 80 c 128
 527 57 527 57 504 38.5 c 128
 481 20 481 20 458 9.5 c 128
 435 -1 435 -1 418 -1 c 257
NamedP: "hr03"
 399 -1 399 -1 379.5 7.5 c 128
 360 16 360 16 344.5 27 c 128
 329 38 329 38 318.5 47 c 128
 308 56 308 56 307 56 c 257
 291.5 47.5 l 130
 276 39 276 39 257 28 c 128
 238 17 238 17 219.5 8.5 c 128
 201 0 201 0 195 0 c 257
 183 0 183 0 151.5 7.5 c 128
 120 15 120 15 86 30.5 c 128
 52 46 52 46 26 69.5 c 128
 0 93 0 93 0 125 c 257
NamedP: "hr04"
 0 147 0 147 24 174 c 128
 48 201 48 201 83.5 219.5 c 128
 119 238 119 238 159 242.5 c 128
 199 247 199 247 231 225 c 257
 225 225 225 225 217 221 c 128
 209 217 209 217 202 211.5 c 128
 195 206 195 206 189 200.5 c 128
 183 195 183 195 182 191 c 257
 161 195 161 195 145 188 c 128
 129 181 129 181 120.5 169 c 128
 112 157 112 157 111 141.5 c 128
 110 126 110 126 120 112.5 c 128
 130 99 130 99 151.5 90 c 128
 173 81 173 81 208 81 c 257
 248 81 248 81 269 94.5 c 128
 290 108 290 108 293 123.5 c 128
 296 139 296 139 280.5 152.5 c 128
 265 166 265 166 231 166 c 257
 233 143 233 143 228 133.5 c 128
 223 124 223 124 215 123 c 128
 207 122 207 122 197.5 127.5 c 128
 188 133 188 133 183 143.5 c 128
 178 154 178 154 178.5 166 c 128
 179 178 179 178 190 190 c 257
 206 212 206 212 225.5 215.5 c 128
 245 219 245 219 266.5 212 c 128
 288 205 288 205 309 190 c 128
 330 175 330 175 348.5 160.5 c 128
 367 146 367 146 381 135.5 c 128
 395 125 395 125 403 126 c 257
EndSplineSet
PickledDataWithLists: "(dp1
S'com.adobe.type.autohint'
p2
(S'data'
S'<data>\\n  <hintSetList>\\n    <hintset pointTag=\"hr01\">\\n      <hstem pos=\"0\" width=\"-20\"/>\\n      <hstem pos=\"255\" width=\"216\"/>\\n      <vstem pos=\"512\" width=\"117\"/>\\n    </hintset>\\n    <hintset pointTag=\"hr02\">\\n      <hstem pos=\"-1\" width=\"82\"/>\\n      <hstem pos=\"255\" width=\"216\"/>\\n      <vstem pos=\"512\" width=\"117\"/>\\n    </hintset>\\n    <hintset pointTag=\"hr03\">\\n      <hstem pos=\"-1\" width=\"82\"/>\\n      <hstem pos=\"472\" width=\"-20\"/>\\n      <vstem pos=\"512\" width=\"117\"/>\\n    </hintset>\\n    <hintset pointTag=\"hr04\">\\n      <hstem pos=\"-1\" width=\"82\"/>\\n      <hstem pos=\"255\" width=\"216\"/>\\n      <vstem pos=\"512\" width=\"117\"/>\\n    </hintset>\\n  </hintSetList>\\n  </data>'
Ntp3
s."
EndChar

StartChar: U0C12
Encoding: 45 3090 45
GlifName: U0C12_
Width: 706
VWidth: 0
Flags: W
LayerCount: 2
Back
Fore
SplineSet
556 272 m 257
 558 267 558 267 573 249.5 c 128
 588 232 588 232 601 207.5 c 128
 614 183 614 183 620.5 153.5 c 128
 627 124 627 124 611.5 96 c 128
 596 68 596 68 553 42.5 c 128
 510 17 510 17 426 2 c 257
 404 -2 404 -2 386.5 5 c 128
 369 12 369 12 353.5 24.5 c 128
 338 37 338 37 326 51.5 c 128
 314 66 314 66 305 76 c 257
 303 71 303 71 294 58.5 c 128
 285 46 285 46 270.5 32.5 c 128
 256 19 256 19 237 9.5 c 128
 218 0 218 0 197 0 c 257
 176 0 176 0 143.5 12.5 c 128
 111 25 111 25 78.5 46.5 c 128
 46 68 46 68 23 97 c 128
 0 126 0 126 0 160 c 257
 0 182 0 182 16.5 198 c 128
 33 214 33 214 58 226 c 128
 83 238 83 238 112 246 c 128
 141 254 141 254 166 261.5 c 128
 191 269 191 269 207.5 278.5 c 128
 224 288 224 288 224 301 c 257
 224 332 224 332 205.5 341.5 c 128
 187 351 187 351 166.5 349 c 128
 146 347 146 347 132 337 c 128
 118 327 118 327 126 316 c 257
 139 333 139 333 150 326 c 128
 161 319 161 319 163 305.5 c 128
 165 292 165 292 155 277.5 c 128
 145 263 145 263 117 263 c 257
 83 263 83 263 68.5 279 c 128
 54 295 54 295 46 316 c 128
 38 337 38 337 30 357.5 c 128
 22 378 22 378 0 387 c 257
 32 402 32 402 50.5 418 c 128
 69 434 69 434 85.5 446.5 c 128
 102 459 102 459 124.5 466.5 c 128
 147 474 147 474 186 474 c 257
 212 474 212 474 231.5 468.5 c 128
 251 463 251 463 266 454.5 c 128
 281 446 281 446 292 436 c 128
 303 426 303 426 311 417 c 257
 318 406 318 406 325 390 c 128
 332 374 332 374 334.5 357.5 c 128
 337 341 337 341 335.5 325.5 c 128
 334 310 334 310 325 301 c 257
 310 286 310 286 277.5 269 c 128
 245 252 245 252 211.5 235 c 128
 178 218 178 218 152.5 202.5 c 128
 127 187 127 187 127 175 c 257
 127 167 127 167 138.5 154 c 128
 150 141 150 141 164 130 c 128
 178 119 178 119 192 110.5 c 128
 206 102 206 102 212 102 c 257
NamedP: "hr01"
 222 102 222 102 240 116.5 c 128
 258 131 258 131 277 149.5 c 128
 296 168 296 168 312 186 c 128
 328 204 328 204 334 212 c 257
NamedP: "hr02"
 339 207 339 207 352.5 189.5 c 128
 366 172 366 172 384 152 c 128
 402 132 402 132 424 116.5 c 128
 446 101 446 101 468 101 c 257
 489 101 489 101 494.5 117.5 c 128
 500 134 500 134 492.5 154 c 128
 485 174 485 174 467.5 190.5 c 128
 450 207 450 207 426 207 c 257
 433 183 433 183 420.5 174 c 128
 408 165 408 165 393 168.5 c 128
 378 172 378 172 372 187.5 c 128
 366 203 366 203 387 228 c 257
 403 242 403 242 416 242.5 c 128
 429 243 429 243 446.5 243 c 128
 464 243 464 243 489.5 247.5 c 128
 515 252 515 252 556 272 c 257
EndSplineSet
PickledDataWithLists: "(dp1
S'com.adobe.type.autohint'
p2
(S'data'
S'<data>\\n  <hintSetList>\\n    <hintset pointTag=\"hr01\">\\n      <hstem pos=\"0\" width=\"101\"/>\\n      <hstem pos=\"263\" width=\"211\"/>\\n      <vstem pos=\"127\" width=\"97\"/>\\n    </hintset>\\n    <hintset pointTag=\"hr02\">\\n      <hstem pos=\"0\" width=\"101\"/>\\n      <hstem pos=\"263\" width=\"211\"/>\\n      <vstem pos=\"0\" width=\"127\"/>\\n    </hintset>\\n  </hintSetList>\\n  </data>'
Ntp3
s."
EndChar

StartChar: U0C13
Encoding: 46 3091 46
GlifName: U0C13_
Width: 706
VWidth: 0
Flags: W
LayerCount: 2
Back
Fore
SplineSet
170 471 m 257
 153 481 153 481 150.5 495.5 c 128
 148 510 148 510 156.5 526.5 c 128
 165 543 165 543 182.5 558.5 c 128
 200 574 200 574 221.5 587 c 128
 243 600 243 600 267 608 c 128
 291 616 291 616 313 616 c 257
 401 583 401 583 445.5 548.5 c 128
 490 514 490 514 496.5 483 c 128
 503 452 503 452 472 424.5 c 128
 441 397 441 397 379 378 c 257
 353 390 353 390 335 410 c 128
 317 430 317 430 311.5 449 c 128
 306 468 306 468 314.5 482 c 128
 323 496 323 496 350 495 c 257
 369 495 369 495 373.5 486 c 128
 378 477 378 477 374.5 468 c 128
 371 459 371 459 362 451.5 c 128
 353 444 353 444 345 446 c 257
 351 435 351 435 360 436 c 128
 369 437 369 437 377.5 445 c 128
 386 453 386 453 392 463 c 128
 398 473 398 473 398 481 c 257
 398 496 398 496 387 505 c 128
 376 514 376 514 359 518 c 128
 342 522 342 522 322 521.5 c 128
 302 521 302 521 285 516 c 128
 268 511 268 511 257 501.5 c 128
 246 492 246 492 246 477 c 257
 246 453 246 453 249 434.5 c 128
 252 416 252 416 248 419 c 257
 170 471 l 257
556 272 m 257
 558 267 558 267 573 249.5 c 128
 588 232 588 232 601 207.5 c 128
 614 183 614 183 620.5 153.5 c 128
 627 124 627 124 611.5 96 c 128
 596 68 596 68 553 42.5 c 128
 510 17 510 17 426 2 c 257
 404 -2 404 -2 386.5 5 c 128
 369 12 369 12 353.5 24.5 c 128
 338 37 338 37 326 51.5 c 128
 314 66 314 66 305 76 c 257
 303 71 303 71 294 58.5 c 128
 285 46 285 46 270.5 32.5 c 128
 256 19 256 19 237 9.5 c 128
 218 0 218 0 197 0 c 257
 176 0 176 0 143.5 12.5 c 128
 111 25 111 25 78.5 46.5 c 128
 46 68 46 68 23 97 c 128
 0 126 0 126 0 160 c 257
 0 182 0 182 16.5 198 c 128
 33 214 33 214 58 226 c 128
 83 238 83 238 112 246 c 128
 141 254 141 254 166 261.5 c 128
 191 269 191 269 207.5 278.5 c 128
 224 288 224 288 224 301 c 257
 224 332 224 332 205.5 341.5 c 128
 187 351 187 351 166.5 349 c 128
 146 347 146 347 132 337 c 128
 118 327 118 327 126 316 c 257
 139 333 139 333 150 326 c 128
 161 319 161 319 163 305.5 c 128
 165 292 165 292 155 277.5 c 128
 145 263 145 263 117 263 c 257
 83 263 83 263 68.5 279 c 128
 54 295 54 295 46 316 c 128
 38 337 38 337 30 357.5 c 128
 22 378 22 378 0 387 c 257
 32 402 32 402 50 418 c 128
 68 434 68 434 84.5 446.5 c 128
 101 459 101 459 123 466.5 c 128
 145 474 145 474 184 474 c 257
 210 474 210 474 230 468.5 c 128
 250 463 250 463 265.5 454.5 c 128
 281 446 281 446 292 436 c 128
 303 426 303 426 311 417 c 257
 318 406 318 406 325 390 c 128
 332 374 332 374 334.5 357.5 c 128
 337 341 337 341 335.5 325.5 c 128
 334 310 334 310 325 301 c 257
 310 286 310 286 277.5 269 c 128
 245 252 245 252 211.5 235 c 128
 178 218 178 218 152.5 202.5 c 128
 127 187 127 187 127 175 c 257
 127 167 127 167 138.5 154 c 128
 150 141 150 141 164 130 c 128
 178 119 178 119 192 110.5 c 128
 206 102 206 102 212 102 c 257
NamedP: "hr01"
 222 102 222 102 240 116.5 c 128
 258 131 258 131 277 149.5 c 128
 296 168 296 168 312 186 c 128
 328 204 328 204 334 212 c 257
 339 207 339 207 352.5 189.5 c 128
 366 172 366 172 384 152 c 128
 402 132 402 132 424 116.5 c 128
 446 101 446 101 468 101 c 257
 489 101 489 101 494.5 117.5 c 128
 500 134 500 134 492.5 154 c 128
 485 174 485 174 467.5 190.5 c 128
 450 207 450 207 426 207 c 257
 433 183 433 183 420.5 174 c 128
 408 165 408 165 393 168.5 c 128
 378 172 378 172 372 187.5 c 128
 366 203 366 203 387 228 c 257
 403 242 403 242 416 242.5 c 128
 429 243 429 243 446.5 243 c 128
 464 243 464 243 489.5 247.5 c 128
 515 252 515 252 556 272 c 257
EndSplineSet
PickledDataWithLists: "(dp1
S'com.adobe.type.autohint'
p2
(S'data'
S'<data>\\n  <hintSetList>\\n    <hintset pointTag=\"hr01\">\\n      <hstem pos=\"0\" width=\"101\"/>\\n      <hstem pos=\"263\" width=\"232\"/>\\n      <hstem pos=\"616\" width=\"-20\"/>\\n      <vstem pos=\"0\" width=\"127\"/>\\n      <vstem pos=\"246\" width=\"152\"/>\\n    </hintset>\\n  </hintSetList>\\n  </data>'
Ntp3
s."
EndChar

StartChar: U0C14
Encoding: 47 3092 47
GlifName: U0C14_
Width: 706
VWidth: 0
Flags: W
LayerCount: 2
Back
Fore
SplineSet
525 583 m 257
 536 568 536 568 537.5 551 c 128
 539 534 539 534 532.5 519.5 c 128
 526 505 526 505 512.5 496.5 c 128
 499 488 499 488 477 493 c 257
 460 496 460 496 452 505 c 128
 444 514 444 514 442.5 525 c 128
 441 536 441 536 445.5 546.5 c 128
 450 557 450 557 457 563 c 257
 432 555 432 555 426.5 537 c 128
 421 519 421 519 427 501.5 c 128
 433 484 433 484 449 471.5 c 128
 465 459 465 459 484 461 c 257
 509 464 509 464 524.5 477 c 128
 540 490 540 490 546 508 c 128
 552 526 552 526 549 546.5 c 128
 546 567 546 567 534 585 c 257
 523 599 523 599 498 608 c 128
 473 617 473 617 444.5 618.5 c 128
 416 620 416 620 390 611.5 c 128
 364 603 364 603 351 584 c 257
 337 582 337 582 320 581 c 128
 303 580 303 580 290 580 c 257
 312 554 312 554 305.5 532 c 128
 299 510 299 510 276.5 493 c 128
 254 476 254 476 224 466.5 c 128
 194 457 194 457 171 457 c 257
 148 457 148 457 120.5 460 c 128
 93 463 93 463 77 477 c 257
 74 480 74 480 69.5 484 c 128
 65 488 65 488 61 493.5 c 128
 57 499 57 499 56.5 505 c 128
 56 511 56 511 61 517 c 257
 71 527 71 527 78.5 527.5 c 128
 86 528 86 528 92 524 c 128
 98 520 98 520 100.5 512.5 c 128
 103 505 103 505 101 499 c 257
 125 497 125 497 146.5 499 c 128
 168 501 168 501 184 508 c 128
 200 515 200 515 209.5 527.5 c 128
 219 540 219 540 218 557 c 257
 218 565 218 565 204.5 572 c 128
 191 579 191 579 171 583.5 c 128
 151 588 151 588 126.5 590 c 128
 102 592 102 592 79.5 592 c 128
 57 592 57 592 40.5 589 c 128
 24 586 24 586 17 581 c 257
 28 565 28 565 21.5 555 c 128
 15 545 15 545 4 542.5 c 128
 -7 540 -7 540 -18.5 546 c 128
 -30 552 -30 552 -30 569 c 257
 -30 577 -30 577 -22.5 593 c 128
 -15 609 -15 609 -8 630 c 128
 -1 651 -1 651 2.5 673.5 c 128
 6 696 6 696 -1 715 c 257
 27 690 27 690 70.5 681.5 c 128
 114 673 114 673 157 672 c 128
 200 671 200 671 234.5 674.5 c 128
 269 678 269 678 280 678 c 257
 308 681 308 681 346 684.5 c 128
 384 688 384 688 423 687 c 128
 462 686 462 686 499 678 c 128
 536 670 536 670 564.5 650.5 c 128
 593 631 593 631 609.5 598 c 128
 626 565 626 565 624 515 c 257
 623 488 623 488 609.5 467 c 128
 596 446 596 446 575.5 432 c 128
 555 418 555 418 530 410 c 128
 505 402 505 402 480 402 c 257
 424 402 424 402 389.5 419.5 c 128
 355 437 355 437 341 464.5 c 128
 327 492 327 492 332 524.5 c 128
 337 557 337 557 360 588 c 257
 370 600 370 600 394 605.5 c 128
 418 611 418 611 444 610.5 c 128
 470 610 470 610 493 603 c 128
 516 596 516 596 525 583 c 257
556 272 m 257
 558 267 558 267 573 249.5 c 128
 588 232 588 232 601 207.5 c 128
 614 183 614 183 620.5 153.5 c 128
 627 124 627 124 611.5 96 c 128
 596 68 596 68 553 42.5 c 128
 510 17 510 17 426 2 c 257
 404 -2 404 -2 386.5 5 c 128
 369 12 369 12 353.5 24.5 c 128
 338 37 338 37 326 51.5 c 128
 314 66 314 66 305 76 c 257
 303 71 303 71 294 58.5 c 128
 285 46 285 46 270.5 32.5 c 128
 256 19 256 19 237 9.5 c 128
 218 0 218 0 197 0 c 257
 176 0 176 0 143.5 12.5 c 128
 111 25 111 25 78.5 46.5 c 128
 46 68 46 68 23 97 c 128
 0 126 0 126 0 160 c 257
 0 182 0 182 16.5 198 c 128
 33 214 33 214 58 226 c 128
 83 238 83 238 112 246 c 128
 141 254 141 254 166 261.5 c 128
 191 269 191 269 207.5 278.5 c 128
 224 288 224 288 224 301 c 257
 224 332 224 332 205.5 341.5 c 128
 187 351 187 351 166.5 349 c 128
 146 347 146 347 132 337 c 128
 118 327 118 327 126 316 c 257
 139 333 139 333 150 326 c 128
 161 319 161 319 163 305.5 c 128
 165 292 165 292 155 277.5 c 128
 145 263 145 263 117 263 c 257
 83 263 83 263 68.5 279 c 128
 54 295 54 295 46 316 c 128
 38 337 38 337 30 357.5 c 128
 22 378 22 378 0 387 c 257
 32 402 32 402 50 418 c 128
 68 434 68 434 85 446.5 c 128
 102 459 102 459 124 466.5 c 128
 146 474 146 474 185 474 c 257
NamedP: "hr01"
 211 474 211 474 231 468.5 c 128
 251 463 251 463 266 454.5 c 128
 281 446 281 446 292 436 c 128
 303 426 303 426 311 417 c 257
 318 406 318 406 325 390 c 128
 332 374 332 374 334.5 357.5 c 128
 337 341 337 341 335.5 325.5 c 128
 334 310 334 310 325 301 c 257
 310 286 310 286 277.5 269 c 128
 245 252 245 252 211.5 235 c 128
 178 218 178 218 152.5 202.5 c 128
 127 187 127 187 127 175 c 257
 127 167 127 167 138.5 154 c 128
 150 141 150 141 164 130 c 128
 178 119 178 119 192 110.5 c 128
 206 102 206 102 212 102 c 257
 222 102 222 102 240 116.5 c 128
 258 131 258 131 277 149.5 c 128
 296 168 296 168 312 186 c 128
 328 204 328 204 334 212 c 257
 339 207 339 207 352.5 189.5 c 128
 366 172 366 172 384 152 c 128
 402 132 402 132 424 116.5 c 128
 446 101 446 101 468 101 c 257
 489 101 489 101 494.5 117.5 c 128
 500 134 500 134 492.5 154 c 128
 485 174 485 174 467.5 190.5 c 128
 450 207 450 207 426 207 c 257
 433 183 433 183 420.5 174 c 128
 408 165 408 165 393 168.5 c 128
 378 172 378 172 372 187.5 c 128
 366 203 366 203 387 228 c 257
 403 242 403 242 416 242.5 c 128
 429 243 429 243 446.5 243 c 128
 464 243 464 243 489.5 247.5 c 128
 515 252 515 252 556 272 c 257
EndSplineSet
PickledDataWithLists: "(dp1
S'com.adobe.type.autohint'
p2
(S'data'
S'<data>\\n  <hintSetList>\\n    <hintset pointTag=\"hr01\">\\n      <hstem pos=\"0\" width=\"101\"/>\\n      <hstem pos=\"457\" width=\"42\"/>\\n      <vstem pos=\"0\" width=\"127\"/>\\n    </hintset>\\n  </hintSetList>\\n  </data>'
Ntp3
s."
EndChar

StartChar: U0C15
Encoding: 48 3093 48
GlifName: U0C15_
Width: 684
VWidth: 0
Flags: W
AnchorPoint: "mark0" 265 -88 basechar 0
LayerCount: 2
Back
Fore
SplineSet
488 666 m 257
NamedP: "hr00"
 476 668 476 668 470 678.5 c 128
 464 689 464 689 467 701 c 128
 470 713 470 713 484.5 722.5 c 128
 499 732 499 732 526 732 c 257
 559 732 559 732 574 716 c 128
 589 700 589 700 589 678 c 128
 589 656 589 656 577 632 c 128
 565 608 565 608 545 593 c 257
 499 557 499 557 445 544 c 128
 391 531 391 531 335.5 524 c 128
 280 517 280 517 224.5 506.5 c 128
 169 496 169 496 119 465 c 257
 129 457 129 457 129.5 447 c 128
 130 437 130 437 125 429.5 c 128
 120 422 120 422 110 418 c 128
 100 414 100 414 91 415.5 c 128
 82 417 82 417 74 426 c 128
 66 435 66 435 63 455 c 257
 59 487 59 487 78 512 c 128
 97 537 97 537 128 554.5 c 128
 159 572 159 572 196 584 c 128
 233 596 233 596 267 603.5 c 128
 301 611 301 611 326 614.5 c 128
 351 618 351 618 356 620 c 257
 384 624 384 624 419 629.5 c 128
 454 635 454 635 485.5 642 c 128
 517 649 517 649 528.5 669.5 c 128
 540 690 540 690 519 701 c 257
 524 687 524 687 517.5 674.5 c 128
 511 662 511 662 488 666 c 257
NamedP: "hr00"
295 94 m 257
 342 128 342 128 344 145 c 257
 345 160 345 160 295 168 c 128
 245 176 245 176 198 183 c 128
 151 190 151 190 75.5 203.5 c 128
 0 217 0 217 0 245 c 257
 -2 300 -2 300 44 349 c 128
 90 398 90 398 132 422.5 c 128
 174 447 174 447 220.5 456 c 128
 267 465 267 465 312 465 c 257
 356 465 356 465 396 458 c 128
 436 451 436 451 467.5 440.5 c 128
 499 430 499 430 519 418.5 c 128
 539 407 539 407 543 399 c 257
 544 406 544 406 553 411.5 c 128
 562 417 562 417 573.5 417.5 c 128
 585 418 585 418 594 412 c 128
 603 406 603 406 603 389 c 257
 603 369 603 369 588.5 355 c 128
 574 341 574 341 555 334 c 128
 536 327 536 327 517 324.5 c 128
 498 322 498 322 488 321 c 257
 470 318 470 318 457.5 316 c 128
 445 314 445 314 436 312 c 128
 427 310 427 310 419.5 306.5 c 128
 412 303 412 303 403 297 c 257
 400 316 l 257
 421 334 421 334 417 349.5 c 128
 413 365 413 365 392.5 374 c 128
 372 383 372 383 339.5 385.5 c 128
 307 388 307 388 272.5 382 c 128
 238 376 238 376 199.5 357.5 c 128
 161 339 161 339 146 314 c 257
 135 290 135 290 212 277 c 128
 289 264 289 264 339.5 256 c 128
 390 248 390 248 474 228.5 c 128
 558 209 558 209 526 165 c 257
 493 127 493 127 466 101 c 128
 439 75 439 75 377 24 c 257
 367 37 367 37 356.5 46.5 c 128
 346 56 346 56 332.5 62.5 c 128
 319 69 319 69 304 67.5 c 128
 289 66 289 66 276 50 c 257
 265 37 265 37 265 24 c 128
 265 11 265 11 270.5 1 c 128
 276 -9 276 -9 285 -14.5 c 128
 294 -20 294 -20 301 -20 c 257
 294 -17 294 -17 288 -11 c 128
 282 -5 282 -5 278.5 3.5 c 128
 275 12 275 12 277 23 c 128
 279 34 279 34 287 42 c 257
 295 51 295 51 307 52.5 c 128
 319 54 319 54 331 48 c 128
 343 42 343 42 351.5 29 c 128
 360 16 360 16 360 -2 c 257
 360 -14 360 -14 352 -26.5 c 128
 344 -39 344 -39 332.5 -47.5 c 128
 321 -56 321 -56 308.5 -61 c 128
 296 -66 296 -66 287 -66 c 257
 272 -66 272 -66 257.5 -58.5 c 128
 243 -51 243 -51 226 -41 c 128
 209 -31 209 -31 195 -22.5 c 128
 181 -14 181 -14 181 -12 c 257
 175 -10 175 -10 170.5 -11 c 128
 166 -12 166 -12 162 -12.5 c 128
 158 -13 158 -13 153 -12.5 c 128
 148 -12 148 -12 143 -6 c 257
 157 0 157 0 175.5 12.5 c 128
 194 25 194 25 295 94 c 257
EndSplineSet
PickledDataWithLists: "(dp1
S'com.adobe.type.autohint'
p2
(S'data'
S'<data>\\n  <hintSetList>\\n    <hintset pointTag=\"hr00\">\\n      <hstem pos=\"-45\" width=\"-21\"/>\\n      <hstem pos=\"385\" width=\"80\"/>\\n      <hstem pos=\"732\" width=\"-20\"/>\\n    </hintset>\\n  </hintSetList>\\n  </data>'
Ntp3
s."
EndChar

StartChar: U0C16
Encoding: 49 3094 49
GlifName: U0C16_
Width: 751
VWidth: 0
Flags: W
AnchorPoint: "mark0" 335 -137 basechar 0
LayerCount: 2
Back
Fore
SplineSet
379 -43 m 257
 379 -54 379 -54 364 -67 c 128
 349 -80 349 -80 330.5 -90 c 128
 312 -100 312 -100 295.5 -107 c 128
 279 -114 279 -114 275 -114 c 257
 262 -114 262 -114 246 -108 c 128
 230 -102 230 -102 216.5 -93 c 128
 203 -84 203 -84 193 -72 c 128
 183 -60 183 -60 183 -48 c 257
 183 -37 183 -37 198.5 -24 c 128
 214 -11 214 -11 233 -0.5 c 128
 252 10 252 10 270 17.5 c 128
 288 25 288 25 294 25 c 257
 299 25 299 25 306 20.5 c 128
 313 16 313 16 322 11 c 257
 305 12 305 12 287 0.5 c 128
 269 -11 269 -11 259.5 -25 c 128
 250 -39 250 -39 253 -50.5 c 128
 256 -62 256 -62 282 -62 c 257
 288 -62 288 -62 298.5 -59.5 c 128
 309 -57 309 -57 317 -52 c 128
 325 -47 325 -47 326.5 -40.5 c 128
 328 -34 328 -34 315 -25 c 257
 312 -40 312 -40 304.5 -41 c 128
 297 -42 297 -42 290.5 -36 c 128
 284 -30 284 -30 282 -20 c 128
 280 -10 280 -10 288 -4 c 257
 303 7 303 7 319.5 7.5 c 128
 336 8 336 8 349 1.5 c 128
 362 -5 362 -5 370.5 -17 c 128
 379 -29 379 -29 379 -43 c 257
666 219 m 257
 666 199 666 199 650 175 c 128
 634 151 634 151 609.5 126 c 128
 585 101 585 101 555 78.5 c 128
 525 56 525 56 498 39 c 128
 471 22 471 22 449.5 11 c 128
 428 0 428 0 420 0 c 257
 382 9 382 9 356.5 30 c 128
 331 51 331 51 299 80 c 257
NamedP: "hr01"
 287 71 287 71 270 57 c 128
 253 43 253 43 234.5 30.5 c 128
 216 18 216 18 197.5 9.5 c 128
 179 1 179 1 164 1 c 257
 145 1 145 1 117 9 c 128
 89 17 89 17 63 31.5 c 128
 37 46 37 46 18.5 65.5 c 128
 0 85 0 85 0 106 c 257
 0 128 0 128 25 155.5 c 128
 50 183 50 183 83.5 207.5 c 128
 117 232 117 232 148 249 c 128
 179 266 179 266 191 266 c 257
 202 266 202 266 213 260 c 128
 224 254 224 254 236 245.5 c 128
 248 237 248 237 260 227 c 128
 272 217 272 217 285 210 c 257
 297 249 297 249 292 280 c 128
 287 311 287 311 271.5 332.5 c 128
 256 354 256 354 234.5 366 c 128
 213 378 213 378 191.5 378.5 c 128
 170 379 170 379 153 368 c 128
 136 357 136 357 130 334 c 257
 137 344 137 344 144.5 346 c 128
 152 348 152 348 158 346.5 c 128
 164 345 164 345 167.5 342.5 c 128
 171 340 171 340 172 340 c 257
 176 340 176 340 180 331 c 128
 184 322 184 322 181 310.5 c 128
 178 299 178 299 164 290 c 128
 150 281 150 281 117 281 c 257
 102 281 102 281 85.5 292.5 c 128
 69 304 69 304 53 320 c 128
 37 336 37 336 23 352.5 c 128
 9 369 9 369 0 379 c 257
 6 386 6 386 24 401 c 128
 42 416 42 416 65.5 431 c 128
 89 446 89 446 116.5 458 c 128
 144 470 144 470 170 469 c 257
 217 467 217 467 250 448.5 c 128
 283 430 283 430 304 402 c 128
 325 374 325 374 335.5 339.5 c 128
 346 305 346 305 349.5 273 c 128
 353 241 353 241 350.5 214.5 c 128
 348 188 348 188 343 175 c 257
 344 172 344 172 352 164.5 c 128
 360 157 360 157 371 149 c 128
 382 141 382 141 394 135 c 128
 406 129 406 129 413 129 c 257
 430 129 430 129 456 141.5 c 128
 482 154 482 154 506.5 171 c 128
 531 188 531 188 549 208 c 128
 567 228 567 228 567 244 c 257
 567 264 567 264 561 290 c 128
 555 316 555 316 543.5 339 c 128
 532 362 532 362 517.5 377 c 128
 503 392 503 392 485 391 c 257
 493 380 493 380 491.5 369 c 128
 490 358 490 358 482.5 350 c 128
 475 342 475 342 462.5 338.5 c 128
 450 335 450 335 433 338 c 257
 409 343 409 343 398.5 365 c 128
 388 387 388 387 393.5 411 c 128
 399 435 399 435 421.5 454 c 128
 444 473 444 473 485 473 c 257
 516 473 516 473 548.5 443.5 c 128
 581 414 581 414 607 373 c 128
 633 332 633 332 649.5 289 c 128
 666 246 666 246 666 219 c 257
261 152 m 257
 261 158 261 158 252 167.5 c 128
 243 177 243 177 230.5 187 c 128
 218 197 218 197 205.5 203.5 c 128
 193 210 193 210 186 210 c 257
 178 210 178 210 166.5 203.5 c 128
 155 197 155 197 143.5 188.5 c 128
 132 180 132 180 124 172.5 c 128
 116 165 116 165 115 163 c 257
 118 157 118 157 129.5 147.5 c 128
 141 138 141 138 156.5 130 c 128
 172 122 172 122 188.5 116.5 c 128
 205 111 205 111 217 111 c 257
 218 111 218 111 225 115.5 c 128
 232 120 232 120 240 126.5 c 128
 248 133 248 133 254.5 139.5 c 128
 261 146 261 146 261 152 c 257
EndSplineSet
PickledDataWithLists: "(dp1
S'com.adobe.type.autohint'
p2
(S'data'
S'<data>\\n  <hintSetList>\\n    <hintset pointTag=\"hr01\">\\n      <hstem pos=\"-114\" width=\"52\"/>\\n      <hstem pos=\"0\" width=\"-20\"/>\\n      <hstem pos=\"1\" width=\"128\"/>\\n      <hstem pos=\"210\" width=\"56\"/>\\n      <hstem pos=\"281\" width=\"192\"/>\\n      <vstem pos=\"183\" width=\"196\"/>\\n      <vstem pos=\"567\" width=\"99\"/>\\n    </hintset>\\n  </hintSetList>\\n  </data>'
Ntp3
s."
EndChar

StartChar: U0C17
Encoding: 50 3095 50
GlifName: U0C17_
Width: 671
VWidth: 0
Flags: W
AnchorPoint: "mark0" 307 0 basechar 0
LayerCount: 2
Back
Fore
SplineSet
278 471 m 257
NamedP: "hr00"
 302 471 302 471 342.5 454 c 128
 383 437 383 437 426 408 c 128
 469 379 469 379 507.5 338.5 c 128
 546 298 546 298 568 250.5 c 128
 590 203 590 203 588 151 c 128
 586 99 586 99 548 46 c 257
 546 53 546 53 535.5 63.5 c 128
 525 74 525 74 512 80 c 128
 499 86 499 86 483.5 84.5 c 128
 468 83 468 83 456 68 c 257
 444 54 444 54 444 41 c 128
 444 28 444 28 450 17 c 128
 456 6 456 6 464.5 0 c 128
 473 -6 473 -6 480 -6 c 257
 473 -3 473 -3 467 3.5 c 128
 461 10 461 10 458 19.5 c 128
 455 29 455 29 456.5 39.5 c 128
 458 50 458 50 466 59 c 257
 474 69 474 69 486.5 70.5 c 128
 499 72 499 72 510.5 65.5 c 128
 522 59 522 59 531 46 c 128
 540 33 540 33 540 13 c 257
 540 0 540 0 531.5 -12.5 c 128
 523 -25 523 -25 511.5 -34 c 128
 500 -43 500 -43 487.5 -48 c 128
 475 -53 475 -53 466 -53 c 257
 452 -53 452 -53 437 -45.5 c 128
 422 -38 422 -38 405 -27 c 128
 388 -16 388 -16 369 -5 c 128
 350 6 350 6 329 14 c 257
 323 16 323 16 318 15 c 128
 313 14 313 14 309 13 c 128
 305 12 305 12 300.5 13 c 128
 296 14 296 14 291 20 c 257
 304 27 304 27 328.5 42 c 128
 353 57 353 57 377.5 78 c 128
 402 99 402 99 420 125 c 128
 438 151 438 151 438 176 c 257
 438 195 438 195 424 216.5 c 128
 410 238 410 238 388 259.5 c 128
 366 281 366 281 338.5 300 c 128
 311 319 311 319 285 334 c 128
 259 349 259 349 236.5 358 c 128
 214 367 214 367 203 367 c 257
 184 367 184 367 167 355 c 128
 150 343 150 343 136.5 326.5 c 128
 123 310 123 310 115.5 292.5 c 128
 108 275 108 275 108 265 c 257
 108 249 108 249 123 224.5 c 128
 138 200 138 200 160 177.5 c 128
 182 155 182 155 206 138.5 c 128
 230 122 230 122 248 122 c 257
 270 122 270 122 276 126.5 c 128
 282 131 282 131 289 136 c 257
 280 138 280 138 276.5 147 c 128
 273 156 273 156 276.5 164.5 c 128
 280 173 280 173 289.5 178 c 128
 299 183 299 183 315 179 c 257
 332 174 332 174 334 159 c 128
 336 144 336 144 334 133 c 257
 329 109 329 109 306.5 90 c 128
 284 71 284 71 257 55.5 c 128
 230 40 230 40 204.5 26 c 128
 179 12 179 12 167 -2 c 257
 151 19 151 19 122.5 40.5 c 128
 94 62 94 62 67 87.5 c 128
 40 113 40 113 20 142.5 c 128
 0 172 0 172 0 208 c 257
 0 233 0 233 7 254.5 c 128
 14 276 14 276 29 296.5 c 128
 44 317 44 317 65.5 338 c 128
 87 359 87 359 115 384 c 257
 170 434 170 434 212 452.5 c 128
 254 471 254 471 278 471 c 257
NamedP: "hr00"
478 666 m 257
 466 668 466 668 460 678.5 c 128
 454 689 454 689 457 701 c 128
 460 713 460 713 474 722.5 c 128
 488 732 488 732 516 732 c 257
 549 732 549 732 564 716 c 128
 579 700 579 700 579 678 c 128
 579 656 579 656 567 632 c 128
 555 608 555 608 535 593 c 257
 488 557 488 557 434.5 544 c 128
 381 531 381 531 325 524 c 128
 269 517 269 517 214 506.5 c 128
 159 496 159 496 109 465 c 257
 119 457 119 457 119.5 447 c 128
 120 437 120 437 115 429.5 c 128
 110 422 110 422 100 418 c 128
 90 414 90 414 81 415.5 c 128
 72 417 72 417 63.5 426 c 128
 55 435 55 435 53 455 c 257
 49 487 49 487 68 512 c 128
 87 537 87 537 117.5 554.5 c 128
 148 572 148 572 185.5 584 c 128
 223 596 223 596 257 603.5 c 128
 291 611 291 611 316 614.5 c 128
 341 618 341 618 346 620 c 257
 374 624 374 624 408.5 629.5 c 128
 443 635 443 635 475 642 c 128
 507 649 507 649 518 669.5 c 128
 529 690 529 690 509 701 c 257
 514 687 514 687 507.5 674.5 c 128
 501 662 501 662 478 666 c 257
EndSplineSet
PickledDataWithLists: "(dp1
S'com.adobe.type.autohint'
p2
(S'data'
S'<data>\\n  <hintSetList>\\n    <hintset pointTag=\"hr00\">\\n      <hstem pos=\"-32\" width=\"-21\"/>\\n      <hstem pos=\"367\" width=\"104\"/>\\n      <hstem pos=\"732\" width=\"-20\"/>\\n      <vstem pos=\"0\" width=\"108\"/>\\n      <vstem pos=\"438\" width=\"102\"/>\\n    </hintset>\\n  </hintSetList>\\n  </data>'
Ntp3
s."
EndChar

StartChar: U0C18
Encoding: 51 3096 51
GlifName: U0C18_
Width: 1053
VWidth: 0
Flags: W
LayerCount: 2
Back
Fore
SplineSet
970 242 m 257
NamedP: "hr00"
 970 221 970 221 957 195 c 128
 944 169 944 169 923 142.5 c 128
 902 116 902 116 876 90.5 c 128
 850 65 850 65 823 45 c 128
 796 25 796 25 770 12.5 c 128
 744 0 744 0 725 0 c 257
 698 0 698 0 665 12 c 128
 632 24 632 24 597.5 40.5 c 128
 563 57 563 57 532 75.5 c 128
 501 94 501 94 480 106 c 257
 496 127 496 127 511 146 c 257
 524 164 524 164 538 183 c 128
 552 202 552 202 563 219 c 257
 580 213 580 213 603.5 199 c 128
 627 185 627 185 651.5 171 c 128
 676 157 676 157 698 146 c 128
 720 135 720 135 734 134 c 257
 744 132 744 132 767 144.5 c 128
 790 157 790 157 813 175 c 128
 836 193 836 193 852.5 211.5 c 128
 869 230 869 230 869 243 c 257
 868 263 868 263 858 286.5 c 128
 848 310 848 310 833 332.5 c 128
 818 355 818 355 800.5 373 c 128
 783 391 783 391 769 401 c 257
 772 373 772 373 756.5 360.5 c 128
 741 348 741 348 721.5 350.5 c 128
 702 353 702 353 687 369.5 c 128
 672 386 672 386 676 414 c 257
 682 454 682 454 706 465.5 c 128
 730 477 730 477 763 468 c 128
 796 459 796 459 832 434.5 c 128
 868 410 868 410 899 377 c 128
 930 344 930 344 950 308 c 128
 970 272 970 272 970 242 c 257
NamedP: "hr00"
175 223 m 257
 147 217 147 217 122.5 203 c 128
 98 189 98 189 98 173 c 257
 98 158 98 158 107.5 146.5 c 128
 117 135 117 135 130 127.5 c 128
 143 120 143 120 159 116.5 c 128
 175 113 175 113 188 113 c 257
 214 113 214 113 235.5 123.5 c 128
 257 134 257 134 267.5 148.5 c 128
 278 163 278 163 273.5 178 c 128
 269 193 269 193 245 202 c 257
 244 194 244 194 243.5 187.5 c 128
 243 181 243 181 240.5 176.5 c 128
 238 172 238 172 232 169.5 c 128
 226 167 226 167 215 167 c 257
 204 167 204 167 195.5 174.5 c 128
 187 182 187 182 183.5 193 c 128
 180 204 180 204 182.5 215.5 c 128
 185 227 185 227 197 234 c 257
 213 243 213 243 222 245 c 128
 231 247 231 247 254 242 c 257
 276 230 276 230 299 216.5 c 128
 322 203 322 203 343.5 190.5 c 128
 365 178 365 178 384 169 c 128
 403 160 403 160 420 158 c 257
 445 165 445 165 464.5 177 c 128
 484 189 484 189 498 203.5 c 128
 512 218 512 218 519 234 c 128
 526 250 526 250 526 264 c 257
 526 274 526 274 522 293 c 128
 518 312 518 312 508 333.5 c 128
 498 355 498 355 480.5 375.5 c 128
 463 396 463 396 435 410 c 257
 432 393 432 393 416.5 390 c 128
 401 387 401 387 388 393.5 c 128
 375 400 375 400 368.5 415 c 128
 362 430 362 430 378 450 c 257
 390 466 390 466 404 468.5 c 128
 418 471 418 471 433 471 c 257
 456 471 456 471 490 450 c 128
 524 429 524 429 556.5 395 c 128
 589 361 589 361 611.5 317.5 c 128
 634 274 634 274 634 229 c 257
 634 198 634 198 615.5 158.5 c 128
 597 119 597 119 569 83.5 c 128
 541 48 541 48 506.5 24 c 128
 472 0 472 0 441 0 c 257
 418 0 418 0 393.5 12 c 128
 369 24 369 24 349 38.5 c 128
 329 53 329 53 314.5 65 c 128
 300 77 300 77 297 77 c 257
 284.5 65 l 130
 272 53 272 53 254 38.5 c 128
 236 24 236 24 214.5 12 c 128
 193 0 193 0 173 0 c 257
 158 0 158 0 128.5 12 c 128
 99 24 99 24 70.5 42.5 c 128
 42 61 42 61 21 86 c 128
 0 111 0 111 0 137 c 257
 0 165 0 165 22 189.5 c 128
 44 214 44 214 73 233 c 128
 102 252 102 252 131.5 262.5 c 128
 161 273 161 273 176 273 c 257
 177 273 177 273 183 271.5 c 128
 189 270 189 270 198 267.5 c 128
 207 265 207 265 217 261 c 128
 227 257 227 257 236 253 c 257
 211 255 211 255 197 246.5 c 128
 183 238 183 238 175 223 c 257
427 666 m 257
 415 668 415 668 408.5 678.5 c 128
 402 689 402 689 405.5 701 c 128
 409 713 409 713 423 722.5 c 128
 437 732 437 732 465 732 c 257
 498 732 498 732 512.5 716 c 128
 527 700 527 700 527 678 c 128
 527 656 527 656 515.5 632 c 128
 504 608 504 608 483 593 c 257
 437 557 437 557 383.5 544 c 128
 330 531 330 531 274 524 c 128
 218 517 218 517 163 506.5 c 128
 108 496 108 496 57 465 c 257
 68 457 68 457 68.5 447 c 128
 69 437 69 437 63.5 429.5 c 128
 58 422 58 422 48.5 418 c 128
 39 414 39 414 29.5 415.5 c 128
 20 417 20 417 12 426 c 128
 4 435 4 435 2 455 c 257
 -2 487 -2 487 17 512 c 128
 36 537 36 537 66.5 554.5 c 128
 97 572 97 572 134.5 584 c 128
 172 596 172 596 206 603.5 c 128
 240 611 240 611 265 614.5 c 128
 290 618 290 618 295 620 c 257
 323 624 323 624 357.5 629.5 c 128
 392 635 392 635 424 642 c 128
 456 649 456 649 467 669.5 c 128
 478 690 478 690 458 701 c 257
 463 687 463 687 456.5 674.5 c 128
 450 662 450 662 427 666 c 257
379 -43 m 257
 379 -54 379 -54 364 -67 c 128
 349 -80 349 -80 330.5 -90 c 128
 312 -100 312 -100 295.5 -107 c 128
 279 -114 279 -114 275 -114 c 257
 262 -114 262 -114 246 -108 c 128
 230 -102 230 -102 216.5 -93 c 128
 203 -84 203 -84 193 -72 c 128
 183 -60 183 -60 183 -48 c 257
 183 -37 183 -37 198.5 -24 c 128
 214 -11 214 -11 233 -0.5 c 128
 252 10 252 10 270 17.5 c 128
 288 25 288 25 294 25 c 257
 299 25 299 25 306 20.5 c 128
 313 16 313 16 322 11 c 257
 305 12 305 12 287 0.5 c 128
 269 -11 269 -11 259.5 -25 c 128
 250 -39 250 -39 253 -50.5 c 128
 256 -62 256 -62 282 -62 c 257
 288 -62 288 -62 298.5 -59.5 c 128
 309 -57 309 -57 317 -52 c 128
 325 -47 325 -47 326.5 -40.5 c 128
 328 -34 328 -34 315 -25 c 257
 312 -40 312 -40 304.5 -41 c 128
 297 -42 297 -42 290.5 -36 c 128
 284 -30 284 -30 282 -20 c 128
 280 -10 280 -10 288 -4 c 257
 303 7 303 7 319.5 7.5 c 128
 336 8 336 8 349 1.5 c 128
 362 -5 362 -5 370.5 -17 c 128
 379 -29 379 -29 379 -43 c 257
EndSplineSet
PickledDataWithLists: "(dp1
S'com.adobe.type.autohint'
p2
(S'data'
S'<data>\\n  <hintSetList>\\n    <hintset pointTag=\"hr00\">\\n      <hstem pos=\"-114\" width=\"52\"/>\\n      <hstem pos=\"0\" width=\"-20\"/>\\n      <hstem pos=\"11\" width=\"102\"/>\\n      <hstem pos=\"167\" width=\"106\"/>\\n      <hstem pos=\"732\" width=\"-20\"/>\\n      <vstem pos=\"0\" width=\"98\"/>\\n      <vstem pos=\"183\" width=\"196\"/>\\n      <vstem pos=\"526\" width=\"108\"/>\\n      <vstem pos=\"869\" width=\"101\"/>\\n    </hintset>\\n  </hintSetList>\\n  </data>'
Ntp3
s."
EndChar

StartChar: U0C19
Encoding: 52 3097 52
GlifName: U0C19_
Width: 705
VWidth: 0
Flags: W
AnchorPoint: "mark0" 294 -22 basechar 0
LayerCount: 2
Back
Fore
SplineSet
556 272 m 257
 558 267 558 267 573 249.5 c 128
 588 232 588 232 601 207.5 c 128
 614 183 614 183 620.5 153.5 c 128
 627 124 627 124 611.5 96 c 128
 596 68 596 68 553 42.5 c 128
 510 17 510 17 426 2 c 257
 404 -2 404 -2 386.5 5 c 128
 369 12 369 12 353.5 24.5 c 128
 338 37 338 37 326 51.5 c 128
 314 66 314 66 305 76 c 257
 303 71 303 71 294 58.5 c 128
 285 46 285 46 270.5 32.5 c 128
 256 19 256 19 237 9.5 c 128
 218 0 218 0 197 0 c 257
 176 0 176 0 143.5 12.5 c 128
 111 25 111 25 78.5 46.5 c 128
 46 68 46 68 23 97 c 128
 0 126 0 126 0 160 c 257
 0 182 0 182 16.5 198 c 128
 33 214 33 214 58 226 c 128
 83 238 83 238 112 246 c 128
 141 254 141 254 166 261.5 c 128
 191 269 191 269 207.5 278.5 c 128
 224 288 224 288 224 301 c 257
 224 332 224 332 205.5 341.5 c 128
 187 351 187 351 166.5 349 c 128
 146 347 146 347 132 337 c 128
 118 327 118 327 126 316 c 257
 139 333 139 333 150 326 c 128
 161 319 161 319 163 305.5 c 128
 165 292 165 292 155 277.5 c 128
 145 263 145 263 117 263 c 257
 83 263 83 263 68.5 279 c 128
 54 295 54 295 46 316 c 128
 38 337 38 337 30 357.5 c 128
 22 378 22 378 0 387 c 257
 32 402 32 402 50 417.5 c 128
 68 433 68 433 85 445 c 128
 102 457 102 457 124 464 c 128
 146 471 146 471 185 471 c 257
 211 471 211 471 231 466 c 128
 251 461 251 461 266 453 c 128
 281 445 281 445 292 435.5 c 128
 303 426 303 426 311 417 c 257
 318 406 318 406 325 390 c 128
 332 374 332 374 334.5 357.5 c 128
 337 341 337 341 335.5 325.5 c 128
 334 310 334 310 325 301 c 257
 310 286 310 286 277.5 269 c 128
 245 252 245 252 211.5 235 c 128
 178 218 178 218 152.5 202.5 c 128
 127 187 127 187 127 175 c 257
 127 167 127 167 138.5 154 c 128
 150 141 150 141 164 130 c 128
 178 119 178 119 192 110.5 c 128
 206 102 206 102 212 102 c 257
 222 102 222 102 240 116.5 c 128
 258 131 258 131 277 149.5 c 128
 296 168 296 168 312 186 c 128
 328 204 328 204 334 212 c 257
 339 207 339 207 352.5 189.5 c 128
 366 172 366 172 384 152 c 128
 402 132 402 132 424 116.5 c 128
 446 101 446 101 468 101 c 257
 489 101 489 101 494.5 117.5 c 128
 500 134 500 134 492.5 154 c 128
 485 174 485 174 467.5 190.5 c 128
 450 207 450 207 426 207 c 257
 429 193 429 193 419.5 187 c 128
 410 181 410 181 398.5 184 c 128
 387 187 387 187 381.5 198.5 c 128
 376 210 376 210 387 228 c 257
 403 242 403 242 416 242.5 c 128
 429 243 429 243 446.5 243 c 128
 464 243 464 243 489.5 247.5 c 128
 515 252 515 252 556 272 c 257
311 416 m 257
 344 401 344 401 372.5 398.5 c 128
 401 396 401 396 426 399.5 c 128
 451 403 451 403 471.5 409.5 c 128
 492 416 492 416 508 420.5 c 128
 524 425 524 425 537 424.5 c 128
 550 424 550 424 558 413 c 257
 570 398 570 398 566.5 387.5 c 128
 563 377 563 377 554.5 371.5 c 128
 546 366 546 366 536 367 c 128
 526 368 526 368 525 377 c 257
 515 370 515 370 508 359 c 257
 502 351 502 351 498.5 338 c 128
 495 325 495 325 500 308 c 257
 455 331 455 331 414 334 c 128
 373 337 373 337 324 318 c 257
 311 416 l 257
369 278 m 257
 370 284 370 284 374 290.5 c 128
 378 297 378 297 378 298 c 257
 384 311 384 311 387 330 c 128
 390 349 390 349 390 370.5 c 128
 390 392 390 392 386.5 415 c 128
 383 438 383 438 375 461 c 257
 390 454 390 454 403.5 456 c 128
 417 458 417 458 426 463 c 257
 437 468 437 468 445 478 c 257
 437 480 437 480 437 490 c 128
 437 500 437 500 443.5 508 c 128
 450 516 450 516 461 518 c 128
 472 520 472 520 485 507 c 257
NamedP: "hr01"
 495 497 495 497 494 485.5 c 128
 493 474 493 474 485 460 c 128
 477 446 477 446 466.5 428.5 c 128
 456 411 456 411 447 389 c 128
 438 367 438 367 433.5 338.5 c 128
 429 310 429 310 435 276 c 257
NamedP: "hr02"
 436 275 436 275 437 273.5 c 128
 438 272 438 272 437 272 c 257
 424 272 424 272 417 269.5 c 128
 410 267 410 267 405 263.5 c 128
 400 260 400 260 396.5 257.5 c 128
 393 255 393 255 387 255 c 257
 378 256 378 256 372.5 261 c 128
 367 266 367 266 369 278 c 257
EndSplineSet
PickledDataWithLists: "(dp1
S'com.adobe.type.autohint'
p2
(S'data'
S'<data>\\n  <hintSetList>\\n    <hintset pointTag=\"hr01\">\\n      <hstem pos=\"0\" width=\"101\"/>\\n      <hstem pos=\"263\" width=\"208\"/>\\n      <vstem pos=\"127\" width=\"97\"/>\\n    </hintset>\\n    <hintset pointTag=\"hr02\">\\n      <hstem pos=\"0\" width=\"101\"/>\\n      <hstem pos=\"263\" width=\"208\"/>\\n      <vstem pos=\"0\" width=\"127\"/>\\n    </hintset>\\n  </hintSetList>\\n  </data>'
Ntp3
s."
EndChar

StartChar: U0C1A
Encoding: 53 3098 53
GlifName: U0C1A_
Width: 783
VWidth: 0
Flags: W
LayerCount: 2
Back
Fore
SplineSet
250 470 m 257
NamedP: "hr00"
 267 457 267 457 301.5 445.5 c 128
 336 434 336 434 386 417.5 c 128
 436 401 436 401 491 380 c 128
 546 359 546 359 593 333.5 c 128
 640 308 640 308 670.5 279 c 128
 701 250 701 250 701 217 c 257
 701 176 701 176 675 137 c 128
 649 98 649 98 614 67.5 c 128
 579 37 579 37 542.5 18.5 c 128
 506 0 506 0 485 0 c 257
 472 0 472 0 455 8.5 c 128
 438 17 438 17 422 30 c 128
 406 43 406 43 391.5 57 c 128
 377 71 377 71 370 80 c 257
 369 79 369 79 356.5 66.5 c 128
 344 54 344 54 328 39.5 c 128
 312 25 312 25 297.5 12.5 c 128
 283 0 283 0 278 0 c 257
 253 0 253 0 221 11 c 128
 189 22 189 22 160.5 40.5 c 128
 132 59 132 59 112 84.5 c 128
 92 110 92 110 92 138 c 257
 92 144 92 144 96.5 155 c 128
 101 166 101 166 109 178 c 128
 117 190 117 190 126.5 202 c 128
 136 214 136 214 147 222 c 257
 101 215 101 215 71 222.5 c 128
 41 230 41 230 24 246.5 c 128
 7 263 7 263 3 283.5 c 128
 -1 304 -1 304 4 322.5 c 128
 9 341 9 341 22.5 354 c 128
 36 367 36 367 55 367 c 257
 61 367 61 367 70 364 c 128
 79 361 79 361 85.5 355.5 c 128
 92 350 92 350 95 341 c 128
 98 332 98 332 93 319 c 257
 89 310 89 310 81.5 306 c 128
 74 302 74 302 66 303 c 128
 58 304 58 304 52 310 c 128
 46 316 46 316 46 329 c 257
 42 311 42 311 50 303.5 c 128
 58 296 58 296 70 296 c 128
 82 296 82 296 92 302 c 128
 102 308 102 308 102 318 c 257
 121 305 121 305 150 301 c 128
 179 297 179 297 210.5 297.5 c 128
 242 298 242 298 272.5 302.5 c 128
 303 307 303 307 325 310 c 257
 343 281 343 281 336.5 260.5 c 128
 330 240 330 240 303 221 c 257
 292 234 292 234 273 236.5 c 128
 254 239 254 239 236 232.5 c 128
 218 226 218 226 204.5 212.5 c 128
 191 199 191 199 191 182 c 257
 193 161 193 161 215 146.5 c 128
 237 132 237 132 261.5 124.5 c 128
 286 117 286 117 301 119 c 128
 316 121 316 121 343 152 c 257
 357 166 357 166 370 185 c 257
 386 166 386 166 405 144 c 128
 424 122 424 122 446 115.5 c 128
 468 109 468 109 491 119 c 128
 514 129 514 129 537.5 146 c 128
 561 163 561 163 578 183 c 128
 595 203 595 203 595 224 c 257
 595 240 595 240 579.5 253 c 128
 564 266 564 266 541 277 c 128
 518 288 518 288 491 297 c 128
 464 306 464 306 440 313 c 257
 427 318 427 318 400 326.5 c 128
 373 335 373 335 340.5 345.5 c 128
 308 356 308 356 274 370.5 c 128
 240 385 240 385 211.5 402 c 128
 183 419 183 419 165 439 c 128
 147 459 147 459 147 481 c 257
 152 522 152 522 197.5 547 c 128
 243 572 243 572 280 584 c 128
 317 596 317 596 351 603.5 c 128
 385 611 385 611 410 614.5 c 128
 435 618 435 618 440 620 c 257
 468 624 468 624 503 629.5 c 128
 538 635 538 635 569.5 642 c 128
 601 649 601 649 612.5 669.5 c 128
 624 690 624 690 603 701 c 257
 608 687 608 687 601.5 674.5 c 128
 595 662 595 662 572 666 c 257
 560 668 560 668 554 678.5 c 128
 548 689 548 689 551 701 c 128
 554 713 554 713 568.5 722.5 c 128
 583 732 583 732 610 732 c 257
 643 732 643 732 658 716 c 128
 673 700 673 700 673 678 c 128
 673 656 673 656 661 632 c 128
 649 608 649 608 629 593 c 257
 583 557 583 557 529 544 c 128
 475 531 475 531 419.5 524 c 128
 364 517 364 517 295.5 506.5 c 128
 227 496 227 496 250 470 c 257
NamedP: "hr00"
EndSplineSet
PickledDataWithLists: "(dp1
S'com.adobe.type.autohint'
p2
(S'data'
S'<data>\\n  <hintSetList>\\n    <hintset pointTag=\"hr00\">\\n      <hstem pos=\"21\" width=\"-21\"/>\\n      <hstem pos=\"732\" width=\"-20\"/>\\n      <vstem pos=\"595\" width=\"106\"/>\\n    </hintset>\\n  </hintSetList>\\n  </data>'
Ntp3
s."
EndChar

StartChar: U0C1B
Encoding: 54 3099 54
GlifName: U0C1B_
Width: 783
VWidth: 0
Flags: W
LayerCount: 2
Back
Fore
SplineSet
250 470 m 257
NamedP: "hr00"
 267 457 267 457 301.5 445.5 c 128
 336 434 336 434 386 417.5 c 128
 436 401 436 401 491 380 c 128
 546 359 546 359 593 333.5 c 128
 640 308 640 308 670.5 279 c 128
 701 250 701 250 701 217 c 257
 701 176 701 176 675 137 c 128
 649 98 649 98 614 67.5 c 128
 579 37 579 37 542.5 18.5 c 128
 506 0 506 0 485 0 c 257
 472 0 472 0 455 8.5 c 128
 438 17 438 17 422 30 c 128
 406 43 406 43 391.5 57 c 128
 377 71 377 71 370 80 c 257
 369 79 369 79 356.5 66.5 c 128
 344 54 344 54 328 39.5 c 128
 312 25 312 25 297.5 12.5 c 128
 283 0 283 0 278 0 c 257
 253 0 253 0 221 11 c 128
 189 22 189 22 160.5 40.5 c 128
 132 59 132 59 112 84.5 c 128
 92 110 92 110 92 138 c 257
 92 144 92 144 96.5 155 c 128
 101 166 101 166 109 178 c 128
 117 190 117 190 126.5 202 c 128
 136 214 136 214 147 222 c 257
 101 215 101 215 71 222.5 c 128
 41 230 41 230 24 246.5 c 128
 7 263 7 263 3 283.5 c 128
 -1 304 -1 304 4 322.5 c 128
 9 341 9 341 22.5 354 c 128
 36 367 36 367 55 367 c 257
 61 367 61 367 70 364 c 128
 79 361 79 361 85.5 355.5 c 128
 92 350 92 350 95 341 c 128
 98 332 98 332 93 319 c 257
 89 310 89 310 81.5 306 c 128
 74 302 74 302 66 303 c 128
 58 304 58 304 52 310 c 128
 46 316 46 316 46 329 c 257
 42 311 42 311 50 303.5 c 128
 58 296 58 296 70 296 c 128
 82 296 82 296 92 302 c 128
 102 308 102 308 102 318 c 257
 121 305 121 305 150 301 c 128
 179 297 179 297 210.5 297.5 c 128
 242 298 242 298 272.5 302.5 c 128
 303 307 303 307 325 310 c 257
 343 281 343 281 336.5 260.5 c 128
 330 240 330 240 303 221 c 257
 292 234 292 234 273 236.5 c 128
 254 239 254 239 236 232.5 c 128
 218 226 218 226 204.5 212.5 c 128
 191 199 191 199 191 182 c 257
 193 161 193 161 215 146.5 c 128
 237 132 237 132 261.5 124.5 c 128
 286 117 286 117 301 119 c 128
 316 121 316 121 343 152 c 257
 357 166 357 166 370 185 c 257
 386 166 386 166 405 144 c 128
 424 122 424 122 446 115.5 c 128
 468 109 468 109 491 119 c 128
 514 129 514 129 537.5 146 c 128
 561 163 561 163 578 183 c 128
 595 203 595 203 595 224 c 257
 595 240 595 240 579.5 253 c 128
 564 266 564 266 541 277 c 128
 518 288 518 288 491 297 c 128
 464 306 464 306 440 313 c 257
 427 318 427 318 400 326.5 c 128
 373 335 373 335 340.5 345.5 c 128
 308 356 308 356 274 370.5 c 128
 240 385 240 385 211.5 402 c 128
 183 419 183 419 165 439 c 128
 147 459 147 459 147 481 c 257
 152 522 152 522 197.5 547 c 128
 243 572 243 572 280 584 c 128
 317 596 317 596 351 603.5 c 128
 385 611 385 611 410 614.5 c 128
 435 618 435 618 440 620 c 257
 468 624 468 624 503 629.5 c 128
 538 635 538 635 569.5 642 c 128
 601 649 601 649 612.5 669.5 c 128
 624 690 624 690 603 701 c 257
 608 687 608 687 601.5 674.5 c 128
 595 662 595 662 572 666 c 257
 560 668 560 668 554 678.5 c 128
 548 689 548 689 551 701 c 128
 554 713 554 713 568.5 722.5 c 128
 583 732 583 732 610 732 c 257
 643 732 643 732 658 716 c 128
 673 700 673 700 673 678 c 128
 673 656 673 656 661 632 c 128
 649 608 649 608 629 593 c 257
 583 557 583 557 529 544 c 128
 475 531 475 531 419.5 524 c 128
 364 517 364 517 295.5 506.5 c 128
 227 496 227 496 250 470 c 257
NamedP: "hr00"
461 -43 m 257
 461 -54 461 -54 446 -67 c 128
 431 -80 431 -80 412.5 -90 c 128
 394 -100 394 -100 377 -107 c 128
 360 -114 360 -114 357 -114 c 257
 344 -114 344 -114 328 -108 c 128
 312 -102 312 -102 298.5 -93 c 128
 285 -84 285 -84 275 -72 c 128
 265 -60 265 -60 265 -48 c 257
 265 -37 265 -37 280.5 -24 c 128
 296 -11 296 -11 315 -0.5 c 128
 334 10 334 10 352 17.5 c 128
 370 25 370 25 376 25 c 257
 381 25 381 25 388 20.5 c 128
 395 16 395 16 403 11 c 257
 387 12 387 12 369 0.5 c 128
 351 -11 351 -11 341.5 -25 c 128
 332 -39 332 -39 335 -50.5 c 128
 338 -62 338 -62 364 -62 c 257
 370 -62 370 -62 380.5 -59.5 c 128
 391 -57 391 -57 399 -52 c 128
 407 -47 407 -47 408.5 -40.5 c 128
 410 -34 410 -34 397 -25 c 257
 394 -40 394 -40 386.5 -41 c 128
 379 -42 379 -42 372.5 -36 c 128
 366 -30 366 -30 363.5 -20 c 128
 361 -10 361 -10 370 -4 c 257
 385 7 385 7 401.5 7.5 c 128
 418 8 418 8 431 1.5 c 128
 444 -5 444 -5 452.5 -17 c 128
 461 -29 461 -29 461 -43 c 257
EndSplineSet
PickledDataWithLists: "(dp1
S'com.adobe.type.autohint'
p2
(S'data'
S'<data>\\n  <hintSetList>\\n    <hintset pointTag=\"hr00\">\\n      <hstem pos=\"-114\" width=\"52\"/>\\n      <hstem pos=\"0\" width=\"-20\"/>\\n      <hstem pos=\"732\" width=\"-20\"/>\\n      <vstem pos=\"265\" width=\"196\"/>\\n      <vstem pos=\"595\" width=\"106\"/>\\n    </hintset>\\n  </hintSetList>\\n  </data>'
Ntp3
s."
EndChar

StartChar: U0C1C
Encoding: 55 3100 55
GlifName: U0C1C_
Width: 701
VWidth: 0
Flags: W
AnchorPoint: "mark0" 280 -27 basechar 0
LayerCount: 2
Back
Fore
SplineSet
556 272 m 257
 558 267 558 267 573 249.5 c 128
 588 232 588 232 601 207.5 c 128
 614 183 614 183 620.5 153.5 c 128
 627 124 627 124 611.5 96 c 128
 596 68 596 68 553 42.5 c 128
 510 17 510 17 426 2 c 257
 404 -2 404 -2 386.5 5 c 128
 369 12 369 12 353.5 24.5 c 128
 338 37 338 37 326 51.5 c 128
 314 66 314 66 305 76 c 257
 303 71 303 71 294 58.5 c 128
 285 46 285 46 270.5 32.5 c 128
 256 19 256 19 237 9.5 c 128
 218 0 218 0 197 0 c 257
 176 0 176 0 143.5 12.5 c 128
 111 25 111 25 78.5 46.5 c 128
 46 68 46 68 23 97 c 128
 0 126 0 126 0 160 c 257
 0 182 0 182 16.5 198 c 128
 33 214 33 214 58 226 c 128
 83 238 83 238 112 246 c 128
 141 254 141 254 166 261.5 c 128
 191 269 191 269 207.5 278.5 c 128
 224 288 224 288 224 301 c 257
 224 332 224 332 205.5 341.5 c 128
 187 351 187 351 166.5 349 c 128
 146 347 146 347 132 337 c 128
 118 327 118 327 126 316 c 257
 139 333 139 333 150 326 c 128
 161 319 161 319 163 305.5 c 128
 165 292 165 292 155 277.5 c 128
 145 263 145 263 117 263 c 257
 83 263 83 263 68.5 279 c 128
 54 295 54 295 46 316 c 128
 38 337 38 337 30 357.5 c 128
 22 378 22 378 0 387 c 257
 32 402 32 402 50 418 c 128
 68 434 68 434 84 446.5 c 128
 100 459 100 459 122 466.5 c 128
 144 474 144 474 183 474 c 257
 209 474 209 474 229 468.5 c 128
 249 463 249 463 264.5 454.5 c 128
 280 446 280 446 291.5 436 c 128
 303 426 303 426 311 417 c 257
 318 406 318 406 325 390 c 128
 332 374 332 374 334.5 357.5 c 128
 337 341 337 341 335.5 325.5 c 128
 334 310 334 310 325 301 c 257
 310 286 310 286 277.5 269 c 128
 245 252 245 252 211.5 235 c 128
 178 218 178 218 152.5 202.5 c 128
 127 187 127 187 127 175 c 257
 127 167 127 167 138.5 154 c 128
 150 141 150 141 164 130 c 128
 178 119 178 119 192 110.5 c 128
 206 102 206 102 212 102 c 257
 222 102 222 102 240 116.5 c 128
 258 131 258 131 277 149.5 c 128
 296 168 296 168 312 186 c 128
 328 204 328 204 334 212 c 257
 339 207 339 207 352.5 189.5 c 128
 366 172 366 172 384 152 c 128
 402 132 402 132 424 116.5 c 128
 446 101 446 101 468 101 c 257
 489 101 489 101 494.5 117.5 c 128
 500 134 500 134 492.5 154 c 128
 485 174 485 174 467.5 190.5 c 128
 450 207 450 207 426 207 c 257
 433 183 433 183 420.5 174 c 128
 408 165 408 165 393 168.5 c 128
 378 172 378 172 372 187.5 c 128
 366 203 366 203 387 228 c 257
 403 242 403 242 416 242.5 c 128
 429 243 429 243 446.5 243 c 128
 464 243 464 243 489.5 247.5 c 128
 515 252 515 252 556 272 c 257
530 481 m 257
 565 461 565 461 585 441.5 c 128
 605 422 605 422 604 391 c 257
NamedP: "hr01"
 604 371 604 371 584 348.5 c 128
 564 326 564 326 537.5 307.5 c 128
 511 289 511 289 483.5 276 c 128
 456 263 456 263 439 262 c 257
 428 261 428 261 413 265 c 128
 398 269 398 269 383 275.5 c 128
 368 282 368 282 353 288.5 c 128
 338 295 338 295 326 300 c 257
 322 301 322 301 312 318.5 c 128
 302 336 302 336 292.5 358.5 c 128
 283 381 283 381 275.5 402.5 c 128
 268 424 268 424 270 434 c 128
 272 444 272 444 285.5 438 c 128
 299 432 299 432 330 398 c 257
 334 393 334 393 346.5 384 c 128
 359 375 359 375 374 366.5 c 128
 389 358 389 358 404 352 c 128
 419 346 419 346 428 346 c 257
 434 346 434 346 446.5 350.5 c 128
 459 355 459 355 471 362.5 c 128
 483 370 483 370 493 379.5 c 128
 503 389 503 389 504 399 c 257
 499 414 499 414 484.5 420.5 c 128
 470 427 470 427 456 437 c 257
 455 425 455 425 445 422.5 c 128
 435 420 435 420 426 425 c 128
 417 430 417 430 414.5 441 c 128
 412 452 412 452 424 464 c 257
 432 474 432 474 447 475 c 128
 462 476 462 476 478 474.5 c 128
 494 473 494 473 508 473 c 128
 522 473 522 473 530 481 c 257
EndSplineSet
PickledDataWithLists: "(dp1
S'com.adobe.type.autohint'
p2
(S'data'
S'<data>\\n  <hintSetList>\\n    <hintset pointTag=\"hr01\">\\n      <hstem pos=\"0\" width=\"101\"/>\\n      <hstem pos=\"263\" width=\"211\"/>\\n      <vstem pos=\"0\" width=\"127\"/>\\n    </hintset>\\n  </hintSetList>\\n  </data>'
Ntp3
s."
EndChar

StartChar: U0C1D
Encoding: 56 3101 56
GlifName: U0C1D_
Width: 1354
VWidth: 0
Flags: W
LayerCount: 2
Back
Fore
SplineSet
604 137 m 257
 581 118 581 118 543.5 94.5 c 128
 506 71 506 71 464 50 c 128
 422 29 422 29 380 14.5 c 128
 338 0 338 0 304 0 c 257
 288 0 288 0 259 10 c 128
 230 20 230 20 196.5 37 c 128
 163 54 163 54 128 75.5 c 128
 93 97 93 97 64.5 120 c 128
 36 143 36 143 18 166 c 128
 0 189 0 189 0 209 c 257
 0 232 0 232 20.5 261 c 128
 41 290 41 290 73 319.5 c 128
 105 349 105 349 144.5 376 c 128
 184 403 184 403 221.5 424.5 c 128
 259 446 259 446 290 459 c 128
 321 472 321 472 336 472 c 257
 350 472 350 472 360.5 468.5 c 128
 371 465 371 465 379 459.5 c 128
 387 454 387 454 394.5 447.5 c 128
 402 441 402 441 411 437 c 257
 396 430 396 430 370.5 419.5 c 128
 345 409 345 409 315.5 395 c 128
 286 381 286 381 254.5 364.5 c 128
 223 348 223 348 198 330 c 128
 173 312 173 312 157 293.5 c 128
 141 275 141 275 141 257 c 257
 141 245 141 245 154 230.5 c 128
 167 216 167 216 187 200.5 c 128
 207 185 207 185 231 170.5 c 128
 255 156 255 156 277 144.5 c 128
 299 133 299 133 316 126 c 128
 333 119 333 119 339 119 c 257
 344 119 344 119 361 121.5 c 128
 378 124 378 124 400 129.5 c 128
 422 135 422 135 447 144.5 c 128
 472 154 472 154 492.5 167.5 c 128
 513 181 513 181 526.5 200 c 128
 540 219 540 219 540 244 c 257
 540 266 540 266 520 291 c 128
 500 316 500 316 471 333.5 c 128
 442 351 442 351 412 356 c 128
 382 361 382 361 360 343 c 257
 381 346 381 346 391 336 c 128
 401 326 401 326 401 311.5 c 128
 401 297 401 297 392 284.5 c 128
 383 272 383 272 365 272 c 257
 341 272 341 272 321.5 289 c 128
 302 306 302 306 301.5 330.5 c 128
 301 355 301 355 327.5 383 c 128
 354 411 354 411 424 432 c 257
 454 417 454 417 489 397.5 c 128
 524 378 524 378 557 354.5 c 128
 590 331 590 331 615.5 305 c 128
 641 279 641 279 651.5 251 c 128
 662 223 662 223 652 194.5 c 128
 642 166 642 166 604 137 c 257
945 242 m 257
 945 221 945 221 932.5 195 c 128
 920 169 920 169 899 142.5 c 128
 878 116 878 116 851.5 90.5 c 128
 825 65 825 65 798 45 c 128
 771 25 771 25 745.5 12.5 c 128
 720 0 720 0 700 0 c 257
 674 0 674 0 640.5 12 c 128
 607 24 607 24 573 40.5 c 128
 539 57 539 57 507.5 75.5 c 128
 476 94 476 94 456 106 c 257
 473 127 473 127 492 146 c 257
 506 164 506 164 523 181.5 c 128
 540 199 540 199 551 213 c 257
 567 207 567 207 588.5 194 c 128
 610 181 610 181 632 168 c 128
 654 155 654 155 674.5 145 c 128
 695 135 695 135 710 134 c 257
 720 132 720 132 741 144.5 c 128
 762 157 762 157 783 175 c 128
 804 193 804 193 820 211.5 c 128
 836 230 836 230 836 243 c 257
 835 263 835 263 826 286.5 c 128
 817 310 817 310 804 332.5 c 128
 791 355 791 355 775 373 c 128
 759 391 759 391 744 401 c 257
 748 373 748 373 732.5 360.5 c 128
 717 348 717 348 697.5 350.5 c 128
 678 353 678 353 662.5 369.5 c 128
 647 386 647 386 651 414 c 257
 657 454 657 454 681.5 465.5 c 128
 706 477 706 477 738.5 468 c 128
 771 459 771 459 807.5 434.5 c 128
 844 410 844 410 874.5 377 c 128
 905 344 905 344 925 308 c 128
 945 272 945 272 945 242 c 257
1270 242 m 257
 1270 221 1270 221 1257 195 c 128
 1244 169 1244 169 1223 142.5 c 128
 1202 116 1202 116 1176 90.5 c 128
 1150 65 1150 65 1123 45 c 128
 1096 25 1096 25 1070 12.5 c 128
 1044 0 1044 0 1025 0 c 257
 998 0 998 0 965 12 c 128
 932 24 932 24 897.5 40.5 c 128
 863 57 863 57 832 75.5 c 128
 801 94 801 94 780 106 c 257
 796 127 796 127 811 146 c 257
 824 164 824 164 838 183 c 128
 852 202 852 202 863 219 c 257
 880 213 880 213 903.5 199 c 128
 927 185 927 185 951.5 171 c 128
 976 157 976 157 998 146 c 128
 1020 135 1020 135 1034 134 c 257
 1044 132 1044 132 1065 144.5 c 128
 1086 157 1086 157 1107 175 c 128
 1128 193 1128 193 1144 211.5 c 128
 1160 230 1160 230 1160 243 c 257
 1159 263 1159 263 1150.5 286.5 c 128
 1142 310 1142 310 1128.5 332.5 c 128
 1115 355 1115 355 1099 373 c 128
 1083 391 1083 391 1069 401 c 257
 1072 373 1072 373 1056.5 360.5 c 128
 1041 348 1041 348 1021.5 350.5 c 128
 1002 353 1002 353 987 369.5 c 128
 972 386 972 386 976 414 c 257
 982 454 982 454 1006 465.5 c 128
 1030 477 1030 477 1063 468 c 128
 1096 459 1096 459 1132 434.5 c 128
 1168 410 1168 410 1199 377 c 128
 1230 344 1230 344 1250 308 c 128
 1270 272 1270 272 1270 242 c 257
519 666 m 257
 507 668 507 668 501 678.5 c 128
 495 689 495 689 498 701 c 128
 501 713 501 713 515 722.5 c 128
 529 732 529 732 557 732 c 257
 590 732 590 732 605 716 c 128
 620 700 620 700 620 678 c 128
 620 656 620 656 608 632 c 128
 596 608 596 608 575 593 c 257
NamedP: "hr01"
 529 557 529 557 475.5 544 c 128
 422 531 422 531 366 524 c 128
 310 517 310 517 255 506.5 c 128
 200 496 200 496 150 465 c 257
 160 457 160 457 160.5 447 c 128
 161 437 161 437 156 429.5 c 128
 151 422 151 422 141 418 c 128
 131 414 131 414 122 415.5 c 128
 113 417 113 417 104.5 426 c 128
 96 435 96 435 94 455 c 257
 90 487 90 487 109 512 c 128
 128 537 128 537 158.5 554.5 c 128
 189 572 189 572 226.5 584 c 128
 264 596 264 596 298 603.5 c 128
 332 611 332 611 357 614.5 c 128
 382 618 382 618 387 620 c 257
 415 624 415 624 449.5 629.5 c 128
 484 635 484 635 516 642 c 128
 548 649 548 649 559 669.5 c 128
 570 690 570 690 550 701 c 257
 555 687 555 687 548.5 674.5 c 128
 542 662 542 662 519 666 c 257
935 -43 m 257
 935 -54 935 -54 920 -67 c 128
 905 -80 905 -80 886.5 -90 c 128
 868 -100 868 -100 851.5 -107 c 128
 835 -114 835 -114 831 -114 c 257
 818 -114 818 -114 802 -108 c 128
 786 -102 786 -102 772.5 -93 c 128
 759 -84 759 -84 749 -72 c 128
 739 -60 739 -60 739 -48 c 257
 739 -37 739 -37 754.5 -24 c 128
 770 -11 770 -11 789 -0.5 c 128
 808 10 808 10 826 17.5 c 128
 844 25 844 25 850 25 c 257
 855 25 855 25 862 20.5 c 128
 869 16 869 16 878 11 c 257
 861 12 861 12 843 0.5 c 128
 825 -11 825 -11 815.5 -25 c 128
 806 -39 806 -39 809 -50.5 c 128
 812 -62 812 -62 838 -62 c 257
 844 -62 844 -62 854.5 -59.5 c 128
 865 -57 865 -57 873 -52 c 128
 881 -47 881 -47 882.5 -40.5 c 128
 884 -34 884 -34 871 -25 c 257
 868 -40 868 -40 860.5 -41 c 128
 853 -42 853 -42 846.5 -36 c 128
 840 -30 840 -30 838 -20 c 128
 836 -10 836 -10 844 -4 c 257
 859 7 859 7 875.5 7.5 c 128
 892 8 892 8 905.5 1.5 c 128
 919 -5 919 -5 927 -17 c 128
 935 -29 935 -29 935 -43 c 257
EndSplineSet
PickledDataWithLists: "(dp1
S'com.adobe.type.autohint'
p2
(S'data'
S'<data>\\n  <hintSetList>\\n    <hintset pointTag=\"hr01\">\\n      <hstem pos=\"-114\" width=\"52\"/>\\n      <hstem pos=\"0\" width=\"119\"/>\\n      <hstem pos=\"272\" width=\"200\"/>\\n      <hstem pos=\"732\" width=\"-20\"/>\\n      <vstem pos=\"0\" width=\"141\"/>\\n      <vstem pos=\"836\" width=\"109\"/>\\n      <vstem pos=\"1160\" width=\"110\"/>\\n    </hintset>\\n  </hintSetList>\\n  </data>'
Ntp3
s."
EndChar

StartChar: U0C1E
Encoding: 57 3102 57
GlifName: U0C1E_
Width: 938
VWidth: 0
Flags: W
AnchorPoint: "mark0" 287 -41 basechar 0
LayerCount: 2
Back
Fore
SplineSet
425 -49 m 257
 419 -38 419 -38 421.5 -30 c 128
 424 -22 424 -22 431.5 -17.5 c 128
 439 -13 439 -13 450.5 -13.5 c 128
 462 -14 462 -14 472 -19 c 257
 489 11 489 11 488.5 40 c 128
 488 69 488 69 469 92 c 257
 456 81 456 81 436.5 65 c 128
 417 49 417 49 395.5 35.5 c 128
 374 22 374 22 352 11.5 c 128
 330 1 330 1 312 0 c 257
 300 -1 300 -1 279 3.5 c 128
 258 8 258 8 233 17.5 c 128
 208 27 208 27 182 39.5 c 128
 156 52 156 52 135 69 c 128
 114 86 114 86 100.5 106 c 128
 87 126 87 126 87 148 c 257
 87 168 87 168 102 184.5 c 128
 117 201 117 201 139.5 214.5 c 128
 162 228 162 228 189 239 c 128
 216 250 216 250 240 256.5 c 128
 264 263 264 263 282.5 266.5 c 128
 301 270 301 270 307 269 c 257
 318 270 318 270 341.5 263 c 128
 365 256 365 256 389 246 c 128
 413 236 413 236 432 227.5 c 128
 451 219 451 219 453 219 c 257
 471 219 471 219 483 243.5 c 128
 495 268 495 268 495 297.5 c 128
 495 327 495 327 479.5 351.5 c 128
 464 376 464 376 429 376 c 257
 402 376 402 376 388 369 c 128
 374 362 374 362 367 352.5 c 128
 360 343 360 343 358 332 c 128
 356 321 356 321 353.5 312 c 128
 351 303 351 303 346 298 c 128
 341 293 341 293 328 296 c 257
 303 300 303 300 294 301.5 c 128
 285 303 285 303 283.5 307 c 128
 282 311 282 311 284 321 c 128
 286 331 286 331 282 352 c 257
 281 358 281 358 268.5 370.5 c 128
 256 383 256 383 240.5 395.5 c 128
 225 408 225 408 210 416.5 c 128
 195 425 195 425 186 424 c 257
 147 420 147 420 131 403 c 128
 115 386 115 386 118.5 368.5 c 128
 122 351 122 351 145 337.5 c 128
 168 324 168 324 208 326 c 257
 205 334 205 334 212.5 339 c 128
 220 344 220 344 230.5 343.5 c 128
 241 343 241 343 249 335 c 128
 257 327 257 327 253 308 c 257
 250 295 250 295 237.5 288 c 128
 225 281 225 281 208 276 c 128
 191 271 191 271 171.5 267.5 c 128
 152 264 152 264 134 259.5 c 128
 116 255 116 255 102 247 c 128
 88 239 88 239 83 224 c 257
 59 247 59 247 43.5 263 c 128
 28 279 28 279 18 292 c 128
 8 305 8 305 4 319 c 128
 0 333 0 333 0 353 c 257
 0 367 0 367 15 382.5 c 128
 30 398 30 398 53 414.5 c 128
 76 431 76 431 103 446.5 c 128
 130 462 130 462 155.5 473.5 c 128
 181 485 181 485 200.5 492 c 128
 220 499 220 499 227 499 c 257
 263 496 263 496 295.5 478.5 c 128
 328 461 328 461 357 427 c 257
 366 432 366 432 375 440.5 c 128
 384 449 384 449 394 456.5 c 128
 404 464 404 464 414.5 469 c 128
 425 474 425 474 435 474 c 257
 458 474 458 474 489 454.5 c 128
 520 435 520 435 549.5 406 c 128
 579 377 579 377 599.5 343.5 c 128
 620 310 620 310 620 284 c 257
 620 256 620 256 609.5 234 c 128
 599 212 599 212 585 195 c 128
 571 178 571 178 558 167 c 128
 545 156 545 156 539 150 c 257
 543 145 543 145 556.5 132 c 128
 570 119 570 119 584.5 96 c 128
 599 73 599 73 610 40 c 128
 621 7 621 7 618 -36 c 257
 618 -41 618 -41 626.5 -44.5 c 128
 635 -48 635 -48 637 -56 c 257
 632 -65 632 -65 624 -63 c 128
 616 -61 616 -61 612 -59 c 257
 591 -49 591 -49 570.5 -47.5 c 128
 550 -46 550 -46 531.5 -48.5 c 128
 513 -51 513 -51 496 -56 c 128
 479 -61 479 -61 466 -64 c 128
 453 -67 453 -67 442 -64 c 128
 431 -61 431 -61 425 -49 c 257
398 173 m 257
 398 179 398 179 386.5 187 c 128
 375 195 375 195 359.5 202 c 128
 344 209 344 209 328.5 214 c 128
 313 219 313 219 307 219 c 257
 302 219 302 219 289 216 c 128
 276 213 276 213 262 206.5 c 128
 248 200 248 200 237 190.5 c 128
 226 181 226 181 226 169 c 257
 226 160 226 160 236 150.5 c 128
 246 141 246 141 258.5 134.5 c 128
 271 128 271 128 284.5 123.5 c 128
 298 119 298 119 304 119 c 257
 314 118 314 118 330 121.5 c 128
 346 125 346 125 361.5 132 c 128
 377 139 377 139 387.5 150 c 128
 398 161 398 161 398 173 c 257
600 341 m 257
 633 327 633 327 661.5 324.5 c 128
 690 322 690 322 714.5 325.5 c 128
 739 329 739 329 759.5 335 c 128
 780 341 780 341 796.5 345.5 c 128
 813 350 813 350 826 349.5 c 128
 839 349 839 349 847 338 c 257
 859 324 859 324 855.5 313 c 128
 852 302 852 302 843.5 296.5 c 128
 835 291 835 291 825 292 c 128
 815 293 815 293 814 302 c 257
 804 295 804 295 797 285 c 257
 791 276 791 276 787 263 c 128
 783 250 783 250 788 233 c 257
 743 256 743 256 702.5 259 c 128
 662 262 662 262 612 244 c 257
 600 341 l 257
657 203 m 257
 658 209 658 209 662.5 215.5 c 128
 667 222 667 222 667 223 c 257
 673 237 673 237 676 255.5 c 128
 679 274 679 274 679 295.5 c 128
 679 317 679 317 675.5 340.5 c 128
 672 364 672 364 664 386 c 257
 679 379 679 379 692.5 381 c 128
 706 383 706 383 715 388 c 257
 726 393 726 393 734 403 c 257
 726 406 726 406 726 415.5 c 128
 726 425 726 425 732 433 c 128
 738 441 738 441 749.5 443 c 128
 761 445 761 445 774 432 c 257
 783 422 783 422 782 410.5 c 128
 781 399 781 399 773.5 385.5 c 128
 766 372 766 372 755 354 c 128
 744 336 744 336 735.5 314 c 128
 727 292 727 292 722.5 264 c 128
 718 236 718 236 724 202 c 257
 725 201 725 201 726 199.5 c 128
 727 198 727 198 726 198 c 257
NamedP: "hr01"
 713 198 713 198 705.5 195.5 c 128
 698 193 698 193 693.5 189 c 128
 689 185 689 185 685.5 182.5 c 128
 682 180 682 180 676 180 c 257
 667 181 667 181 661 186 c 128
 655 191 655 191 657 203 c 257
EndSplineSet
PickledDataWithLists: "(dp1
S'com.adobe.type.autohint'
p2
(S'data'
S'<data>\\n  <hintSetList>\\n    <hintset pointTag=\"hr01\">\\n      <hstem pos=\"376\" width=\"98\"/>\\n      <hstem pos=\"499\" width=\"-20\"/>\\n      <vstem pos=\"87\" width=\"139\"/>\\n      <vstem pos=\"398\" width=\"222\"/>\\n    </hintset>\\n  </hintSetList>\\n  </data>'
Ntp3
s."
EndChar

StartChar: U0C1F
Encoding: 58 3103 58
GlifName: U0C1F_
Width: 797
VWidth: 0
Flags: W
LayerCount: 2
Back
Fore
SplineSet
271 471 m 257
 297 472 297 472 317.5 462.5 c 128
 338 453 338 453 352.5 437 c 128
 367 421 367 421 375 400.5 c 128
 383 380 383 380 383 358 c 257
 383 330 383 330 365.5 309.5 c 128
 348 289 348 289 324 276.5 c 128
 300 264 300 264 274 259.5 c 128
 248 255 248 255 231 257 c 257
 220 258 220 258 208 264.5 c 128
 196 271 196 271 185 282 c 128
 174 293 174 293 166.5 308 c 128
 159 323 159 323 159 341 c 257
 158 371 158 371 176.5 384.5 c 128
 195 398 195 398 215.5 396.5 c 128
 236 395 236 395 249 377 c 128
 262 359 262 359 252 327 c 257
 259 325 259 325 269 326.5 c 128
 279 328 279 328 287 333 c 128
 295 338 295 338 301 346 c 128
 307 354 307 354 307 366 c 257
 307 377 307 377 301 384 c 128
 295 391 295 391 285.5 394 c 128
 276 397 276 397 265.5 396 c 128
 255 395 255 395 246 389 c 257
 229 402 229 402 212.5 404 c 128
 196 406 196 406 182 398 c 128
 168 390 168 390 159.5 374.5 c 128
 151 359 151 359 152 338 c 257
 142 324 142 324 130.5 306.5 c 128
 119 289 119 289 119 273 c 257
 119 251 119 251 136 227 c 128
 153 203 153 203 175.5 183.5 c 128
 198 164 198 164 221.5 151 c 128
 245 138 245 138 258 138 c 257
 261 138 261 138 271 147 c 128
 281 156 281 156 294 168.5 c 128
 307 181 307 181 322.5 196.5 c 128
 338 212 338 212 351 225 c 128
 364 238 364 238 372.5 246.5 c 128
 381 255 381 255 382 255 c 257
NamedP: "hr01"
 386 255 386 255 398.5 239 c 128
 411 223 411 223 427 204.5 c 128
 443 186 443 186 460 171 c 128
 477 156 477 156 489 156 c 257
 507 156 507 156 527 166 c 128
 547 176 547 176 564 192.5 c 128
 581 209 581 209 592 229.5 c 128
 603 250 603 250 603 269 c 257
 603 287 603 287 595.5 307 c 128
 588 327 588 327 574.5 344.5 c 128
 561 362 561 362 542.5 376 c 128
 524 390 524 390 503 396 c 257
 499 378 499 378 487.5 373.5 c 128
 476 369 476 369 465.5 373.5 c 128
 455 378 455 378 446.5 390 c 128
 438 402 438 402 440 420 c 257
 442 438 442 438 449.5 448.5 c 128
 457 459 457 459 466 464 c 128
 475 469 475 469 486.5 470 c 128
 498 471 498 471 509 471 c 257
 553 471 553 471 590.5 446 c 128
 628 421 628 421 655.5 383 c 128
 683 345 683 345 699 300.5 c 128
 715 256 715 256 715 217 c 257
 715 198 715 198 700 175 c 128
 685 152 685 152 662.5 128.5 c 128
 640 105 640 105 612.5 82.5 c 128
 585 60 585 60 559.5 43 c 128
 534 26 534 26 514 14.5 c 128
 494 3 494 3 484 1 c 257
 465 1 465 1 448.5 7.5 c 128
 432 14 432 14 417 27 c 128
 402 40 402 40 387.5 57.5 c 128
 373 75 373 75 355 95 c 257
 348 87 348 87 335.5 71.5 c 128
 323 56 323 56 307.5 40.5 c 128
 292 25 292 25 275.5 13 c 128
 259 1 259 1 245 1 c 257
NamedP: "hr02"
 225 1 225 1 200 14.5 c 128
 175 28 175 28 148 49 c 128
 121 70 121 70 94.5 95.5 c 128
 68 121 68 121 47 146.5 c 128
 26 172 26 172 13 194 c 128
 0 216 0 216 0 230 c 257
 0 254 0 254 15 281.5 c 128
 30 309 30 309 54 336.5 c 128
 78 364 78 364 107.5 388.5 c 128
 137 413 137 413 167.5 432 c 128
 198 451 198 451 225.5 461.5 c 128
 253 472 253 472 271 471 c 257
296 529 m 257
NamedP: "hr03"
 296 518 296 518 281 505.5 c 128
 266 493 266 493 247.5 482.5 c 128
 229 472 229 472 212.5 465.5 c 128
 196 459 196 459 193 459 c 257
 179 459 179 459 163 464.5 c 128
 147 470 147 470 133.5 479 c 128
 120 488 120 488 110 500 c 128
 100 512 100 512 100 524 c 257
NamedP: "hr04"
 100 536 100 536 115.5 548.5 c 128
 131 561 131 561 150 572 c 128
 169 583 169 583 187 590 c 128
 205 597 205 597 211 597 c 257
 216 597 216 597 223 593 c 128
 230 589 230 589 239 584 c 257
 222 585 222 585 204 573 c 128
 186 561 186 561 176.5 547.5 c 128
 167 534 167 534 170 522 c 128
 173 510 173 510 199 510 c 257
 205 510 205 510 215.5 512.5 c 128
 226 515 226 515 234 520 c 128
 242 525 242 525 243.5 532 c 128
 245 539 245 539 232 548 c 257
NamedP: "hr05"
 229 532 229 532 221.5 531 c 128
 214 530 214 530 207.5 536.5 c 128
 201 543 201 543 199 552.5 c 128
 197 562 197 562 205 568 c 257
 220 580 220 580 236.5 580.5 c 128
 253 581 253 581 266.5 574 c 128
 280 567 280 567 288 555.5 c 128
 296 544 296 544 296 529 c 257
NamedP: "hr03"
EndSplineSet
PickledDataWithLists: "(dp1
S'com.adobe.type.autohint'
p2
(S'data'
S'<data>\\n  <hintSetList>\\n    <hintset pointTag=\"hr01\">\\n      <hstem pos=\"1\" width=\"137\"/>\\n      <hstem pos=\"459\" width=\"51\"/>\\n      <vstem pos=\"0\" width=\"119\"/>\\n      <vstem pos=\"159\" width=\"224\"/>\\n      <vstem pos=\"603\" width=\"112\"/>\\n    </hintset>\\n    <hintset pointTag=\"hr02\">\\n      <hstem pos=\"1\" width=\"155\"/>\\n      <hstem pos=\"459\" width=\"51\"/>\\n      <vstem pos=\"0\" width=\"119\"/>\\n      <vstem pos=\"159\" width=\"224\"/>\\n      <vstem pos=\"603\" width=\"112\"/>\\n    </hintset>\\n    <hintset pointTag=\"hr03\">\\n      <hstem pos=\"1\" width=\"137\"/>\\n      <hstem pos=\"459\" width=\"51\"/>\\n      <vstem pos=\"0\" width=\"119\"/>\\n      <vstem pos=\"159\" width=\"224\"/>\\n      <vstem pos=\"603\" width=\"112\"/>\\n    </hintset>\\n    <hintset pointTag=\"hr04\">\\n      <hstem pos=\"1\" width=\"137\"/>\\n      <hstem pos=\"459\" width=\"51\"/>\\n      <vstem pos=\"0\" width=\"152\"/>\\n      <vstem pos=\"307\" width=\"76\"/>\\n      <vstem pos=\"603\" width=\"112\"/>\\n    </hintset>\\n    <hintset pointTag=\"hr05\">\\n      <hstem pos=\"1\" width=\"137\"/>\\n      <hstem pos=\"459\" width=\"51\"/>\\n      <vstem pos=\"0\" width=\"119\"/>\\n      <vstem pos=\"159\" width=\"224\"/>\\n      <vstem pos=\"603\" width=\"112\"/>\\n    </hintset>\\n  </hintSetList>\\n  </data>'
Ntp3
s."
EndChar

StartChar: U0C20
Encoding: 59 3104 59
GlifName: U0C20_
Width: 739
VWidth: 0
Flags: W
AnchorPoint: "mark0" 266 -20 basechar 0
LayerCount: 2
Back
Fore
SplineSet
251 259 m 257
NamedP: "hr01"
 251 232 251 232 270.5 213 c 128
 290 194 290 194 316 194 c 257
 343 194 343 194 362.5 213 c 128
 382 232 382 232 382 259 c 257
 382 265 382 265 381 268 c 257
 371 263 371 263 357 263 c 257
 335 263 335 263 315.5 280 c 128
 296 297 296 297 295 321 c 257
 275 313 275 313 263 296.5 c 128
 251 280 251 280 251 259 c 257
NamedP: "hr01"
604 137 m 257
 581 118 581 118 543.5 94.5 c 128
 506 71 506 71 464 50 c 128
 422 29 422 29 380 14.5 c 128
 338 0 338 0 304 0 c 257
 288 0 288 0 259 10 c 128
 230 20 230 20 196.5 37 c 128
 163 54 163 54 128 75.5 c 128
 93 97 93 97 64.5 120 c 128
 36 143 36 143 18 166 c 128
 0 189 0 189 0 209 c 257
 0 232 0 232 20.5 261 c 128
 41 290 41 290 73 319.5 c 128
 105 349 105 349 144.5 376 c 128
 184 403 184 403 221.5 424.5 c 128
 259 446 259 446 290 459 c 128
 321 472 321 472 336 472 c 257
 350 472 350 472 360.5 468.5 c 128
 371 465 371 465 379 459.5 c 128
 387 454 387 454 394.5 447.5 c 128
 402 441 402 441 411 437 c 257
 396 430 396 430 370.5 417 c 128
 345 404 345 404 315.5 387.5 c 128
 286 371 286 371 254.5 352 c 128
 223 333 223 333 198 315 c 128
 173 297 173 297 157 281.5 c 128
 141 266 141 266 141 257 c 257
 141 245 141 245 154 230.5 c 128
 167 216 167 216 187 200.5 c 128
 207 185 207 185 231 170.5 c 128
 255 156 255 156 277 144.5 c 128
 299 133 299 133 316 126 c 128
 333 119 333 119 339 119 c 257
 344 119 344 119 361 124 c 128
 378 129 378 129 400 138 c 128
 422 147 422 147 447 159 c 128
 472 171 472 171 492.5 185.5 c 128
 513 200 513 200 526.5 214.5 c 128
 540 229 540 229 540 244 c 257
 540 259 540 259 520 283.5 c 128
 500 308 500 308 471 327 c 128
 442 346 442 346 412 353.5 c 128
 382 361 382 361 360 343 c 257
 381 346 381 346 391 336 c 128
 401 326 401 326 401 311.5 c 128
 401 297 401 297 392 284.5 c 128
 383 272 383 272 365 272 c 257
 341 272 341 272 321.5 289 c 128
 302 306 302 306 301.5 330.5 c 128
 301 355 301 355 327.5 383 c 128
 354 411 354 411 424 432 c 257
 454 417 454 417 489 397.5 c 128
 524 378 524 378 557 354.5 c 128
 590 331 590 331 615.5 305 c 128
 641 279 641 279 651.5 251 c 128
 662 223 662 223 652 194.5 c 128
 642 166 642 166 604 137 c 257
623 230 m 257
 616 164 616 164 624 125 c 128
 632 86 632 86 645 69 c 128
 658 52 658 52 673.5 53.5 c 128
 689 55 689 55 699 70 c 257
 687 62 687 62 676 66.5 c 128
 665 71 665 71 660 80 c 128
 655 89 655 89 660 100 c 128
 665 111 665 111 684 117 c 257
 707 118 707 118 720.5 107.5 c 128
 734 97 734 97 738 82.5 c 128
 742 68 742 68 735.5 52.5 c 128
 729 37 729 37 710 29 c 257
 692 22 692 22 667.5 15.5 c 128
 643 9 643 9 618 0 c 128
 593 -9 593 -9 569 -25 c 128
 545 -41 545 -41 529 -69 c 257
 523 -16 523 -16 526.5 35.5 c 128
 530 87 530 87 530 135 c 257
 540.5 146 l 130
 551 157 551 157 565.5 171.5 c 128
 580 186 580 186 595.5 202 c 128
 611 218 611 218 623 230 c 257
519 666 m 257
 507 668 507 668 501 678.5 c 128
 495 689 495 689 498 701 c 128
 501 713 501 713 515 722.5 c 128
 529 732 529 732 557 732 c 257
 590 732 590 732 605 716 c 128
 620 700 620 700 620 678 c 128
 620 656 620 656 608 632 c 128
 596 608 596 608 575 593 c 257
 529 557 529 557 475.5 544 c 128
 422 531 422 531 366 524 c 128
 310 517 310 517 255 506.5 c 128
 200 496 200 496 150 465 c 257
 160 457 160 457 160.5 447 c 128
 161 437 161 437 156 429.5 c 128
 151 422 151 422 141 418 c 128
 131 414 131 414 122 415.5 c 128
 113 417 113 417 104.5 426 c 128
 96 435 96 435 94 455 c 257
 90 487 90 487 109 512 c 128
 128 537 128 537 158.5 554.5 c 128
 189 572 189 572 226.5 584 c 128
 264 596 264 596 298 603.5 c 128
 332 611 332 611 357 614.5 c 128
 382 618 382 618 387 620 c 257
 415 624 415 624 449.5 629.5 c 128
 484 635 484 635 516 642 c 128
 548 649 548 649 559 669.5 c 128
 570 690 570 690 550 701 c 257
 555 687 555 687 548.5 674.5 c 128
 542 662 542 662 519 666 c 257
EndSplineSet
PickledDataWithLists: "(dp1
S'com.adobe.type.autohint'
p2
(S'data'
S'<data>\\n  <hintSetList>\\n    <hintset pointTag=\"hr01\">\\n      <hstem pos=\"-48\" width=\"-21\"/>\\n      <hstem pos=\"0\" width=\"194\"/>\\n      <hstem pos=\"272\" width=\"200\"/>\\n      <hstem pos=\"732\" width=\"-20\"/>\\n      <vstem pos=\"0\" width=\"141\"/>\\n    </hintset>\\n  </hintSetList>\\n  </data>'
Ntp3
s."
EndChar

StartChar: U0C21
Encoding: 60 3105 60
GlifName: U0C21_
Width: 750
VWidth: 0
Flags: W
LayerCount: 2
Back
Fore
SplineSet
667 148 m 257
 667 128 667 128 639 102 c 128
 611 76 611 76 574 53.5 c 128
 537 31 537 31 498.5 15.5 c 128
 460 0 460 0 438 0 c 257
 424 0 424 0 407 12 c 128
 390 24 390 24 373 40 c 128
 356 56 356 56 341.5 72 c 128
 327 88 327 88 317 96 c 257
 312 92 312 92 297 76.5 c 128
 282 61 282 61 264.5 44.5 c 128
 247 28 247 28 231.5 14 c 128
 216 0 216 0 211 0 c 257
 181 0 181 0 145 20 c 128
 109 40 109 40 76.5 71 c 128
 44 102 44 102 22 140 c 128
 0 178 0 178 0 213 c 257
 0 236 0 236 19.5 263.5 c 128
 39 291 39 291 69.5 319.5 c 128
 100 348 100 348 138 375 c 128
 176 402 176 402 213 423.5 c 128
 250 445 250 445 282 458 c 128
 314 471 314 471 333 471 c 257
 371 471 371 471 403.5 458.5 c 128
 436 446 436 446 465.5 428.5 c 128
 495 411 495 411 522 391.5 c 128
 549 372 549 372 577 357 c 257
 526 358 526 358 495 343 c 128
 464 328 464 328 440 304 c 257
 435 299 435 299 428 296 c 128
 421 293 421 293 414 293 c 128
 407 293 407 293 400.5 296.5 c 128
 394 300 394 300 391 308 c 257
 388 317 388 317 390.5 320.5 c 128
 393 324 393 324 396.5 326.5 c 128
 400 329 400 329 403 334 c 128
 406 339 406 339 402 351 c 257
 399 361 399 361 386 370 c 128
 373 379 373 379 357.5 385 c 128
 342 391 342 391 328.5 394.5 c 128
 315 398 315 398 314 398 c 257
 305 398 305 398 286.5 389 c 128
 268 380 268 380 246.5 365 c 128
 225 350 225 350 201.5 331.5 c 128
 178 313 178 313 159.5 295.5 c 128
 141 278 141 278 129 262 c 128
 117 246 117 246 117 236 c 257
 117 223 117 223 131 206.5 c 128
 145 190 145 190 165 175 c 128
 185 160 185 160 206 149 c 128
 227 138 227 138 240 138 c 257
 250 138 250 138 265 148.5 c 128
 280 159 280 159 295.5 173 c 128
 311 187 311 187 325.5 202.5 c 128
 340 218 340 218 348 228 c 257
 354 219 354 219 371 200 c 128
 388 181 388 181 409 161 c 128
 430 141 430 141 452 126.5 c 128
 474 112 474 112 492 112 c 257
 520 112 520 112 527 125.5 c 128
 534 139 534 139 527 156 c 128
 520 173 520 173 503.5 187.5 c 128
 487 202 487 202 471 204 c 257
 473 197 473 197 469.5 192 c 128
 466 187 466 187 460.5 185 c 128
 455 183 455 183 449 184.5 c 128
 443 186 443 186 440 191 c 257
NamedP: "hr01"
 434 203 434 203 437 211.5 c 128
 440 220 440 220 445 224 c 257
 464 238 464 238 480.5 241.5 c 128
 497 245 497 245 513 249 c 128
 529 253 529 253 547.5 262 c 128
 566 271 566 271 588 295 c 257
 585 274 585 274 596.5 253.5 c 128
 608 233 608 233 624 214 c 128
 640 195 640 195 653.5 178 c 128
 667 161 667 161 667 148 c 257
519 666 m 257
 507 668 507 668 501 678.5 c 128
 495 689 495 689 498 701 c 128
 501 713 501 713 515 722.5 c 128
 529 732 529 732 557 732 c 257
 590 732 590 732 605 716 c 128
 620 700 620 700 620 678 c 128
 620 656 620 656 608 632 c 128
 596 608 596 608 575 593 c 257
 529 557 529 557 475.5 544 c 128
 422 531 422 531 366 524 c 128
 310 517 310 517 255 506.5 c 128
 200 496 200 496 150 465 c 257
NamedP: "hr02"
 160 457 160 457 160.5 447 c 128
 161 437 161 437 156 429.5 c 128
 151 422 151 422 141 418 c 128
 131 414 131 414 122 415.5 c 128
 113 417 113 417 104.5 426 c 128
 96 435 96 435 94 455 c 257
 90 487 90 487 109 512 c 128
 128 537 128 537 158.5 554.5 c 128
 189 572 189 572 226.5 584 c 128
 264 596 264 596 298 603.5 c 128
 332 611 332 611 357 614.5 c 128
 382 618 382 618 387 620 c 257
 415 624 415 624 449.5 629.5 c 128
 484 635 484 635 516 642 c 128
 548 649 548 649 559 669.5 c 128
 570 690 570 690 550 701 c 257
 555 687 555 687 548.5 674.5 c 128
 542 662 542 662 519 666 c 257
EndSplineSet
PickledDataWithLists: "(dp1
S'com.adobe.type.autohint'
p2
(S'data'
S'<data>\\n  <hintSetList>\\n    <hintset pointTag=\"hr01\">\\n      <hstem pos=\"0\" width=\"138\"/>\\n      <hstem pos=\"398\" width=\"73\"/>\\n      <hstem pos=\"732\" width=\"-20\"/>\\n      <vstem pos=\"0\" width=\"117\"/>\\n    </hintset>\\n    <hintset pointTag=\"hr02\">\\n      <hstem pos=\"0\" width=\"112\"/>\\n      <hstem pos=\"357\" width=\"114\"/>\\n      <hstem pos=\"732\" width=\"-20\"/>\\n      <vstem pos=\"0\" width=\"117\"/>\\n    </hintset>\\n  </hintSetList>\\n  </data>'
Ntp3
s."
EndChar

StartChar: U0C22
Encoding: 61 3106 61
GlifName: U0C22_
Width: 749
VWidth: 0
Flags: W
LayerCount: 2
Back
Fore
SplineSet
667 148 m 257
 667 128 667 128 639 102 c 128
 611 76 611 76 574 53.5 c 128
 537 31 537 31 498.5 15.5 c 128
 460 0 460 0 438 0 c 257
 424 0 424 0 407 12 c 128
 390 24 390 24 373 40 c 128
 356 56 356 56 341.5 72 c 128
 327 88 327 88 317 96 c 257
 312 92 312 92 297 76.5 c 128
 282 61 282 61 264.5 44.5 c 128
 247 28 247 28 231.5 14 c 128
 216 0 216 0 211 0 c 257
 181 0 181 0 145 20 c 128
 109 40 109 40 76.5 71 c 128
 44 102 44 102 22 140 c 128
 0 178 0 178 0 213 c 257
 0 236 0 236 19.5 263.5 c 128
 39 291 39 291 69.5 319.5 c 128
 100 348 100 348 138 375 c 128
 176 402 176 402 213 423.5 c 128
 250 445 250 445 282 458 c 128
 314 471 314 471 333 471 c 257
 371 471 371 471 403.5 458.5 c 128
 436 446 436 446 465.5 428.5 c 128
 495 411 495 411 522 391.5 c 128
 549 372 549 372 577 357 c 257
 526 358 526 358 495 343 c 128
 464 328 464 328 440 304 c 257
 435 299 435 299 428 296 c 128
 421 293 421 293 414 293 c 128
 407 293 407 293 400.5 296.5 c 128
 394 300 394 300 391 308 c 257
 388 317 388 317 390.5 320.5 c 128
 393 324 393 324 396.5 326.5 c 128
 400 329 400 329 403 334 c 128
 406 339 406 339 402 351 c 257
 399 361 399 361 386 370 c 128
 373 379 373 379 357.5 385 c 128
 342 391 342 391 328.5 394.5 c 128
 315 398 315 398 314 398 c 257
 305 398 305 398 286.5 389 c 128
 268 380 268 380 246.5 365 c 128
 225 350 225 350 201.5 331.5 c 128
 178 313 178 313 159.5 295.5 c 128
 141 278 141 278 129 262 c 128
 117 246 117 246 117 236 c 257
 117 223 117 223 131 206.5 c 128
 145 190 145 190 165 175 c 128
 185 160 185 160 206 149 c 128
 227 138 227 138 240 138 c 257
 250 138 250 138 265 148.5 c 128
 280 159 280 159 295.5 173 c 128
 311 187 311 187 325.5 202.5 c 128
 340 218 340 218 348 228 c 257
 354 219 354 219 371 200 c 128
 388 181 388 181 409 161 c 128
 430 141 430 141 452 126.5 c 128
 474 112 474 112 492 112 c 257
 520 112 520 112 525 128 c 128
 530 144 530 144 522 164 c 128
 514 184 514 184 496 201 c 128
 478 218 478 218 462 220 c 257
 464 213 464 213 460.5 208.5 c 128
 457 204 457 204 451 202 c 128
 445 200 445 200 439.5 201.5 c 128
 434 203 434 203 431 208 c 257
 425 219 425 219 428 228 c 128
 431 237 431 237 436 241 c 257
 455 254 455 254 471 257.5 c 128
 487 261 487 261 503.5 265 c 128
 520 269 520 269 538.5 278.5 c 128
 557 288 557 288 579 311 c 257
 575 291 575 291 588.5 268 c 128
 602 245 602 245 619.5 222.5 c 128
 637 200 637 200 652 180.5 c 128
 667 161 667 161 667 148 c 257
519 666 m 257
 507 668 507 668 501 678.5 c 128
 495 689 495 689 498 701 c 128
 501 713 501 713 515 722.5 c 128
 529 732 529 732 557 732 c 257
 590 732 590 732 605 716 c 128
 620 700 620 700 620 678 c 128
 620 656 620 656 608 632 c 128
 596 608 596 608 575 593 c 257
 529 557 529 557 475.5 544 c 128
 422 531 422 531 366 524 c 128
 310 517 310 517 255 506.5 c 128
 200 496 200 496 150 465 c 257
 160 457 160 457 160.5 447 c 128
 161 437 161 437 156 429.5 c 128
 151 422 151 422 141 418 c 128
 131 414 131 414 122 415.5 c 128
 113 417 113 417 104.5 426 c 128
 96 435 96 435 94 455 c 257
 90 487 90 487 109 512 c 128
 128 537 128 537 158.5 554.5 c 128
 189 572 189 572 226.5 584 c 128
 264 596 264 596 298 603.5 c 128
 332 611 332 611 357 614.5 c 128
 382 618 382 618 387 620 c 257
 415 624 415 624 449.5 629.5 c 128
 484 635 484 635 516 642 c 128
 548 649 548 649 559 669.5 c 128
 570 690 570 690 550 701 c 257
NamedP: "hr01"
 555 687 555 687 548.5 674.5 c 128
 542 662 542 662 519 666 c 257
402 -43 m 257
 402 -54 402 -54 387.5 -67 c 128
 373 -80 373 -80 354.5 -90 c 128
 336 -100 336 -100 319 -107 c 128
 302 -114 302 -114 299 -114 c 257
 286 -114 286 -114 270 -108 c 128
 254 -102 254 -102 240 -93 c 128
 226 -84 226 -84 216.5 -72 c 128
 207 -60 207 -60 207 -48 c 257
 207 -37 207 -37 222.5 -24 c 128
 238 -11 238 -11 256.5 -0.5 c 128
 275 10 275 10 293 17.5 c 128
 311 25 311 25 317 25 c 257
 323 25 323 25 330 20.5 c 128
 337 16 337 16 345 11 c 257
 329 12 329 12 311 0.5 c 128
 293 -11 293 -11 283 -25 c 128
 273 -39 273 -39 276.5 -50.5 c 128
 280 -62 280 -62 305 -62 c 257
NamedP: "hr02"
 311 -62 311 -62 322 -59.5 c 128
 333 -57 333 -57 340.5 -52 c 128
 348 -47 348 -47 349.5 -40.5 c 128
 351 -34 351 -34 339 -25 c 257
 336 -40 336 -40 328.5 -41 c 128
 321 -42 321 -42 314 -36 c 128
 307 -30 307 -30 305 -20 c 128
 303 -10 303 -10 311 -4 c 257
 327 7 327 7 343 7.5 c 128
 359 8 359 8 372.5 1.5 c 128
 386 -5 386 -5 394 -17 c 128
 402 -29 402 -29 402 -43 c 257
EndSplineSet
PickledDataWithLists: "(dp1
S'com.adobe.type.autohint'
p2
(S'data'
S'<data>\\n  <hintSetList>\\n    <hintset pointTag=\"hr01\">\\n      <hstem pos=\"-114\" width=\"52\"/>\\n      <hstem pos=\"0\" width=\"138\"/>\\n      <hstem pos=\"398\" width=\"73\"/>\\n      <hstem pos=\"732\" width=\"-20\"/>\\n      <vstem pos=\"0\" width=\"117\"/>\\n      <vstem pos=\"207\" width=\"195\"/>\\n    </hintset>\\n    <hintset pointTag=\"hr02\">\\n      <hstem pos=\"-114\" width=\"52\"/>\\n      <hstem pos=\"0\" width=\"112\"/>\\n      <hstem pos=\"357\" width=\"114\"/>\\n      <hstem pos=\"732\" width=\"-20\"/>\\n      <vstem pos=\"0\" width=\"117\"/>\\n      <vstem pos=\"207\" width=\"195\"/>\\n    </hintset>\\n  </hintSetList>\\n  </data>'
Ntp3
s."
EndChar

StartChar: U0C23
Encoding: 62 3107 62
GlifName: U0C23_
Width: 741
VWidth: 0
Flags: W
LayerCount: 2
Back
Fore
SplineSet
476 114 m 257
 522 102 522 102 551 111.5 c 128
 580 121 580 121 593.5 141 c 128
 607 161 607 161 607.5 188 c 128
 608 215 608 215 597.5 239.5 c 128
 587 264 587 264 565.5 281.5 c 128
 544 299 544 299 515 300 c 257
 498 340 498 340 471 354.5 c 128
 444 369 444 369 416 362.5 c 128
 388 356 388 356 361 331.5 c 128
 334 307 334 307 316 269 c 257
 307 281 307 281 290 302 c 128
 273 323 273 323 252 342 c 128
 231 361 231 361 208.5 373.5 c 128
 186 386 186 386 165 382 c 257
 145 378 145 378 138.5 367.5 c 128
 132 357 132 357 134.5 345.5 c 128
 137 334 137 334 147.5 321 c 128
 158 308 158 308 172.5 299 c 128
 187 290 187 290 205 286 c 128
 223 282 223 282 242 287 c 257
 258 291 258 291 264.5 280 c 128
 271 269 271 269 269.5 255 c 128
 268 241 268 241 260.5 228 c 128
 253 215 253 215 242 215 c 257
 237 215 237 215 225.5 223 c 128
 214 231 214 231 209 231 c 257
 199 231 199 231 184.5 228 c 128
 170 225 170 225 156.5 218 c 128
 143 211 143 211 134 200 c 128
 125 189 125 189 125 174 c 257
 125 152 125 152 148 137.5 c 128
 171 123 171 123 197.5 117.5 c 128
 224 112 224 112 243.5 115.5 c 128
 263 119 263 119 257 133 c 257
 253 129 253 129 247 129 c 128
 241 129 241 129 236 129 c 257
 223 155 223 155 230.5 166 c 128
 238 177 238 177 252 177 c 128
 266 177 266 177 280 167.5 c 128
 294 158 294 158 294 141 c 257
 294 139 294 139 278 115.5 c 128
 262 92 262 92 243.5 63 c 128
 225 34 225 34 211.5 5 c 128
 198 -24 198 -24 202 -36 c 257
 186 -26 186 -26 153 -10 c 128
 120 6 120 6 85.5 27 c 128
 51 48 51 48 25.5 74.5 c 128
 0 101 0 101 0 133 c 257
 0 146 0 146 16 163.5 c 128
 32 181 32 181 52 197 c 128
 72 213 72 213 89 225.5 c 128
 106 238 106 238 111 240 c 257
NamedP: "hr01"
 106 242 106 242 90.5 247 c 128
 75 252 75 252 57.5 262 c 128
 40 272 40 272 26 286.5 c 128
 12 301 12 301 12 322 c 257
 12 342 12 342 27.5 362 c 128
 43 382 43 382 67 399.5 c 128
 91 417 91 417 119 431 c 128
 147 445 147 445 172 455 c 128
 197 465 197 465 215 469 c 128
 233 473 233 473 237 471 c 257
 250 466 250 466 261 461.5 c 128
 272 457 272 457 282 449.5 c 128
 292 442 292 442 302 431 c 128
 312 420 312 420 324 403 c 257
 330 411 330 411 345 422 c 128
 360 433 360 433 378 444 c 128
 396 455 396 455 413.5 462 c 128
 431 469 431 469 440 469 c 257
 471 469 471 469 499 455 c 128
 527 441 527 441 552 418.5 c 128
 577 396 577 396 596.5 367.5 c 128
 616 339 616 339 630 308.5 c 128
 644 278 644 278 651.5 248 c 128
 659 218 659 218 659 194 c 257
 659 166 659 166 640 132.5 c 128
 621 99 621 99 594 69.5 c 128
 567 40 567 40 538 20 c 128
 509 0 509 0 489 0 c 257
 468 0 468 0 435 14.5 c 128
 402 29 402 29 372.5 52 c 128
 343 75 343 75 322.5 103 c 128
 302 131 302 131 306 158 c 257
 309 183 309 183 327.5 203 c 128
 346 223 346 223 371 238 c 128
 396 253 396 253 425.5 262.5 c 128
 455 272 455 272 479.5 278.5 c 128
 504 285 504 285 520.5 287 c 128
 537 289 537 289 538 288 c 257
 558 281 558 281 572.5 264 c 128
 587 247 587 247 592.5 225.5 c 128
 598 204 598 204 595.5 182.5 c 128
 593 161 593 161 581 145 c 128
 569 129 569 129 547.5 122 c 128
 526 115 526 115 494 124 c 257
 468 135 468 135 457 149 c 128
 446 163 446 163 454 187 c 257
 467 176 467 176 475.5 180 c 128
 484 184 484 184 484 193.5 c 128
 484 203 484 203 474.5 211.5 c 128
 465 220 465 220 442 219 c 257
 433 220 433 220 420.5 211.5 c 128
 408 203 408 203 405.5 187.5 c 128
 403 172 403 172 417 152.5 c 128
 431 133 431 133 476 114 c 257
EndSplineSet
PickledDataWithLists: "(dp1
S'com.adobe.type.autohint'
p2
(S'data'
S'<data>\\n  <hintSetList>\\n    <hintset pointTag=\"hr01\">\\n      <hstem pos=\"-15\" width=\"-21\"/>\\n      <hstem pos=\"300\" width=\"169\"/>\\n      <vstem pos=\"0\" width=\"125\"/>\\n    </hintset>\\n  </hintSetList>\\n  </data>'
Ntp3
s."
EndChar

StartChar: U0C24
Encoding: 63 3108 63
GlifName: U0C24_
Width: 719
VWidth: 0
Flags: W
AnchorPoint: "mark0" 317 -28 basechar 0
AnchorPoint: "mark0" 366 -30 basechar 0
LayerCount: 2
Back
Fore
SplineSet
474 417 m 257
NamedP: "hr00"
 498 394 498 394 489 355 c 257
 505 350 505 350 526.5 337 c 128
 548 324 548 324 568 304 c 128
 588 284 588 284 602 258.5 c 128
 616 233 616 233 616 205 c 257
 616 174 616 174 598 147 c 128
 580 120 580 120 550.5 97 c 128
 521 74 521 74 485 56 c 128
 449 38 449 38 412 25.5 c 128
 375 13 375 13 342 6.5 c 128
 309 0 309 0 287 0 c 257
 262 0 262 0 231.5 9 c 128
 201 18 201 18 169 34 c 128
 137 50 137 50 107 71 c 128
 77 92 77 92 53.5 116.5 c 128
 30 141 30 141 15.5 168 c 128
 1 195 1 195 1 220 c 257
 1 261 1 261 18 290 c 128
 35 319 35 319 59.5 336.5 c 128
 84 354 84 354 112 362.5 c 128
 140 371 140 371 162 371 c 257
 187 371 187 371 206.5 361.5 c 128
 226 352 226 352 239.5 338 c 128
 253 324 253 324 260 306 c 128
 267 288 267 288 267 269 c 257
 267 253 267 253 259.5 235 c 128
 252 217 252 217 238 204 c 128
 224 191 224 191 206 185.5 c 128
 188 180 188 180 170 187 c 257
 134 202 134 202 124 220.5 c 128
 114 239 114 239 117 262 c 257
 119 275 119 275 128.5 288.5 c 128
 138 302 138 302 152 308.5 c 128
 166 315 166 315 181 311.5 c 128
 196 308 196 308 208 289 c 257
 194 310 194 310 175.5 315.5 c 128
 157 321 157 321 140 313 c 128
 123 305 123 305 111 288.5 c 128
 99 272 99 272 97.5 250 c 128
 96 228 96 228 109 204.5 c 128
 122 181 122 181 154 160 c 257
 181 141 181 141 216.5 130.5 c 128
 252 120 252 120 309 120 c 257
 337 120 337 120 372 127 c 128
 407 134 407 134 437.5 147 c 128
 468 160 468 160 490.5 178.5 c 128
 513 197 513 197 517 220 c 257
 522 253 522 253 505 275.5 c 128
 488 298 488 298 453 315 c 257
 422 325 422 325 404 319.5 c 128
 386 314 386 314 380 303.5 c 128
 374 293 374 293 377 281.5 c 128
 380 270 380 270 390.5 266.5 c 128
 401 263 401 263 418 272 c 128
 435 281 435 281 456 311 c 257
 482 281 482 281 483.5 254 c 128
 485 227 485 227 470 208.5 c 128
 455 190 455 190 428.5 181 c 128
 402 172 402 172 375 176.5 c 128
 348 181 348 181 325 201 c 128
 302 221 302 221 293 261 c 257
 287 287 287 287 294.5 308.5 c 128
 302 330 302 330 318 344 c 128
 334 358 334 358 354 366 c 128
 374 374 374 374 392 374 c 257
 392 375 392 375 388 380.5 c 128
 384 386 384 386 374.5 393 c 128
 365 400 365 400 348 406 c 128
 331 412 331 412 304 413 c 257
 252 416 252 416 214 421 c 128
 176 426 176 426 161 442 c 128
 146 458 146 458 146 480 c 257
 151 521 151 521 196.5 546 c 128
 242 571 242 571 279 583 c 128
 316 595 316 595 350 602.5 c 128
 384 610 384 610 409 613.5 c 128
 434 617 434 617 439 618 c 257
 467 623 467 623 502 628.5 c 128
 537 634 537 634 568.5 641 c 128
 600 648 600 648 611.5 668.5 c 128
 623 689 623 689 602 700 c 257
 607 686 607 686 600.5 673 c 128
 594 660 594 660 571 665 c 257
 559 667 559 667 553 677.5 c 128
 547 688 547 688 550 700 c 128
 553 712 553 712 567.5 721.5 c 128
 582 731 582 731 609 731 c 257
 642 731 642 731 657 715 c 128
 672 699 672 699 672 677 c 128
 672 655 672 655 660 631 c 128
 648 607 648 607 628 592 c 257
 582 556 582 556 528 543 c 128
 474 530 474 530 418 523 c 128
 362 516 362 516 299 506 c 128
 236 496 236 496 244 474 c 257
 265 465 265 465 309.5 468.5 c 128
 354 472 354 472 398.5 461.5 c 128
 443 451 443 451 474 417 c 257
NamedP: "hr00"
EndSplineSet
PickledDataWithLists: "(dp1
S'com.adobe.type.autohint'
p2
(S'data'
S'<data>\\n  <hintSetList>\\n    <hintset pointTag=\"hr00\">\\n      <hstem pos=\"0\" width=\"120\"/>\\n      <hstem pos=\"731\" width=\"-20\"/>\\n    </hintset>\\n  </hintSetList>\\n  </data>'
Ntp3
s."
EndChar

StartChar: U0C25
Encoding: 64 3109 64
GlifName: U0C25_
Width: 711
VWidth: 0
Flags: W
LayerCount: 2
Back
Fore
SplineSet
372 302 m 257
NamedP: "hr00"
 365 281 365 281 351 270 c 128
 337 259 337 259 321.5 257.5 c 128
 306 256 306 256 292 262 c 128
 278 268 278 268 268 281 c 257
 261 291 261 291 259 303.5 c 128
 257 316 257 316 260.5 328.5 c 128
 264 341 264 341 275 350 c 128
 286 359 286 359 304 362 c 257
 302 346 302 346 308.5 335 c 128
 315 324 315 324 326 316.5 c 128
 337 309 337 309 349 305.5 c 128
 361 302 361 302 372 302 c 257
NamedP: "hr00"
199 141 m 257
 293 232 l 257
 303 221 303 221 322 202 c 128
 341 183 341 183 361 164.5 c 128
 381 146 381 146 398.5 133.5 c 128
 416 121 416 121 423 123 c 257
 445 131 445 131 463.5 143.5 c 128
 482 156 482 156 495 170 c 128
 508 184 508 184 513.5 198.5 c 128
 519 213 519 213 518 224 c 257
 514 257 514 257 496.5 290 c 128
 479 323 479 323 456.5 347 c 128
 434 371 434 371 410 381.5 c 128
 386 392 386 392 370 382 c 257
 385 388 385 388 395.5 381.5 c 128
 406 375 406 375 409 363.5 c 128
 412 352 412 352 406 339 c 128
 400 326 400 326 382 318 c 257
 356 313 356 313 340.5 323 c 128
 325 333 325 333 317 349 c 128
 309 365 309 365 309 382 c 128
 309 399 309 399 315 410 c 257
 324 425 324 425 338 433 c 128
 352 441 352 441 366 444 c 128
 380 447 380 447 391 447 c 128
 402 447 402 447 406 447 c 257
 441 446 441 446 480.5 422 c 128
 520 398 520 398 553 363.5 c 128
 586 329 586 329 607.5 290.5 c 128
 629 252 629 252 629 222 c 257
 629 183 629 183 605 142.5 c 128
 581 102 581 102 547 69.5 c 128
 513 37 513 37 477.5 17 c 128
 442 -3 442 -3 420 -2 c 257
 402 -1 402 -1 381.5 9 c 128
 361 19 361 19 339.5 33.5 c 128
 318 48 318 48 299 64.5 c 128
 280 81 280 81 264 93 c 257
 241 68 241 68 222 48.5 c 128
 203 29 203 29 171 0 c 257
 168 0 168 0 141 20 c 128
 114 40 114 40 82.5 71 c 128
 51 102 51 102 25.5 139.5 c 128
 0 177 0 177 0 212 c 257
 0 238 0 238 18.5 267 c 128
 37 296 37 296 65 324.5 c 128
 93 353 93 353 128 380 c 128
 163 407 163 407 195 426.5 c 128
 227 446 227 446 253.5 458 c 128
 280 470 280 470 292 470 c 257
 305 470 305 470 315.5 466 c 128
 326 462 326 462 333 457.5 c 128
 340 453 340 453 344.5 448.5 c 128
 349 444 349 444 352 444 c 257
 340 444 340 444 331 439 c 128
 322 434 322 434 315 428 c 257
 308 421 308 421 304 413 c 257
 292 406 292 406 265.5 391 c 128
 239 376 239 376 210.5 355.5 c 128
 182 335 182 335 158.5 310 c 128
 135 285 135 285 127.5 257 c 128
 120 229 120 229 135 200 c 128
 150 171 150 171 199 141 c 257
509 666 m 257
 497 668 497 668 490.5 678.5 c 128
 484 689 484 689 487 701 c 128
 490 713 490 713 504.5 722.5 c 128
 519 732 519 732 547 732 c 257
 580 732 580 732 594.5 716 c 128
 609 700 609 700 609 678 c 128
 609 656 609 656 597.5 632 c 128
 586 608 586 608 565 593 c 257
 519 557 519 557 465.5 544 c 128
 412 531 412 531 356 524 c 128
 300 517 300 517 244.5 506.5 c 128
 189 496 189 496 139 465 c 257
 150 457 150 457 150.5 447 c 128
 151 437 151 437 145.5 429.5 c 128
 140 422 140 422 130.5 418 c 128
 121 414 121 414 111.5 415.5 c 128
 102 417 102 417 94 426 c 128
 86 435 86 435 84 455 c 257
 80 487 80 487 99 512 c 128
 118 537 118 537 148.5 554.5 c 128
 179 572 179 572 216.5 584 c 128
 254 596 254 596 288 603.5 c 128
 322 611 322 611 347 614.5 c 128
 372 618 372 618 377 620 c 257
 404 624 404 624 439 629.5 c 128
 474 635 474 635 506 642 c 128
 538 649 538 649 549 669.5 c 128
 560 690 560 690 540 701 c 257
 545 687 545 687 538 674.5 c 128
 531 662 531 662 509 666 c 257
367 -43 m 257
 367 -54 367 -54 352 -67 c 128
 337 -80 337 -80 318.5 -90 c 128
 300 -100 300 -100 283 -107 c 128
 266 -114 266 -114 263 -114 c 257
 250 -114 250 -114 234 -108 c 128
 218 -102 218 -102 204 -93 c 128
 190 -84 190 -84 180.5 -72 c 128
 171 -60 171 -60 171 -48 c 257
 171 -37 171 -37 186.5 -24 c 128
 202 -11 202 -11 221 -0.5 c 128
 240 10 240 10 257.5 17.5 c 128
 275 25 275 25 282 25 c 257
 287 25 287 25 294 20.5 c 128
 301 16 301 16 309 11 c 257
 293 12 293 12 275 0.5 c 128
 257 -11 257 -11 247.5 -25 c 128
 238 -39 238 -39 241 -50.5 c 128
 244 -62 244 -62 269 -62 c 257
 275 -62 275 -62 286 -59.5 c 128
 297 -57 297 -57 304.5 -52 c 128
 312 -47 312 -47 313.5 -40.5 c 128
 315 -34 315 -34 303 -25 c 257
 300 -40 300 -40 292.5 -41 c 128
 285 -42 285 -42 278 -36 c 128
 271 -30 271 -30 269 -20 c 128
 267 -10 267 -10 275 -4 c 257
 291 7 291 7 307.5 7.5 c 128
 324 8 324 8 337 1.5 c 128
 350 -5 350 -5 358.5 -17 c 128
 367 -29 367 -29 367 -43 c 257
EndSplineSet
PickledDataWithLists: "(dp1
S'com.adobe.type.autohint'
p2
(S'data'
S'<data>\\n  <hintSetList>\\n    <hintset pointTag=\"hr00\">\\n      <hstem pos=\"-114\" width=\"52\"/>\\n      <hstem pos=\"0\" width=\"-20\"/>\\n      <hstem pos=\"732\" width=\"-20\"/>\\n      <vstem pos=\"171\" width=\"196\"/>\\n    </hintset>\\n  </hintSetList>\\n  </data>'
Ntp3
s."
EndChar

StartChar: U0C26
Encoding: 65 3110 65
GlifName: U0C26_
Width: 711
VWidth: 0
Flags: W
LayerCount: 2
Back
Fore
SplineSet
199 141 m 257
NamedP: "hr00"
 293 232 l 257
 303 221 303 221 322 202 c 128
 341 183 341 183 361 164.5 c 128
 381 146 381 146 398.5 133.5 c 128
 416 121 416 121 423 123 c 257
 445 131 445 131 463.5 143.5 c 128
 482 156 482 156 495 170 c 128
 508 184 508 184 513.5 198.5 c 128
 519 213 519 213 518 224 c 257
 514 257 514 257 496.5 290 c 128
 479 323 479 323 456.5 347 c 128
 434 371 434 371 410 381.5 c 128
 386 392 386 392 370 382 c 257
 385 388 385 388 395.5 381.5 c 128
 406 375 406 375 409 363.5 c 128
 412 352 412 352 406 339 c 128
 400 326 400 326 382 318 c 257
 356 313 356 313 340.5 323 c 128
 325 333 325 333 317 349 c 128
 309 365 309 365 309 382 c 128
 309 399 309 399 315 410 c 257
 324 425 324 425 338 433 c 128
 352 441 352 441 366 444 c 128
 380 447 380 447 391 447 c 128
 402 447 402 447 406 447 c 257
 441 446 441 446 480.5 422 c 128
 520 398 520 398 553 363.5 c 128
 586 329 586 329 607.5 290.5 c 128
 629 252 629 252 629 222 c 257
 629 183 629 183 605 142.5 c 128
 581 102 581 102 547 69.5 c 128
 513 37 513 37 477.5 17 c 128
 442 -3 442 -3 420 -2 c 257
 402 -1 402 -1 381.5 9 c 128
 361 19 361 19 339.5 33.5 c 128
 318 48 318 48 299 64.5 c 128
 280 81 280 81 264 93 c 257
 245 68 245 68 217 47.5 c 128
 189 27 189 27 171 0 c 257
 168 0 168 0 141 20 c 128
 114 40 114 40 82.5 71 c 128
 51 102 51 102 25.5 139.5 c 128
 0 177 0 177 0 212 c 257
 0 238 0 238 18.5 267 c 128
 37 296 37 296 65 324.5 c 128
 93 353 93 353 128 380 c 128
 163 407 163 407 195 426.5 c 128
 227 446 227 446 253.5 458 c 128
 280 470 280 470 292 470 c 257
 305 470 305 470 315.5 466 c 128
 326 462 326 462 333 457.5 c 128
 340 453 340 453 344.5 448.5 c 128
 349 444 349 444 352 444 c 257
 340 444 340 444 331 439 c 128
 322 434 322 434 315 428 c 257
 308 421 308 421 304 413 c 257
 292 406 292 406 265.5 391 c 128
 239 376 239 376 210.5 355.5 c 128
 182 335 182 335 158.5 310 c 128
 135 285 135 285 127.5 257 c 128
 120 229 120 229 135 200 c 128
 150 171 150 171 199 141 c 257
NamedP: "hr00"
509 666 m 257
 497 668 497 668 490.5 678.5 c 128
 484 689 484 689 487 701 c 128
 490 713 490 713 504.5 722.5 c 128
 519 732 519 732 547 732 c 257
 580 732 580 732 594.5 716 c 128
 609 700 609 700 609 678 c 128
 609 656 609 656 597.5 632 c 128
 586 608 586 608 565 593 c 257
 519 557 519 557 465.5 544 c 128
 412 531 412 531 356 524 c 128
 300 517 300 517 244.5 506.5 c 128
 189 496 189 496 139 465 c 257
 150 457 150 457 150.5 447 c 128
 151 437 151 437 145.5 429.5 c 128
 140 422 140 422 130.5 418 c 128
 121 414 121 414 111.5 415.5 c 128
 102 417 102 417 94 426 c 128
 86 435 86 435 84 455 c 257
 80 487 80 487 99 512 c 128
 118 537 118 537 148.5 554.5 c 128
 179 572 179 572 216.5 584 c 128
 254 596 254 596 288 603.5 c 128
 322 611 322 611 347 614.5 c 128
 372 618 372 618 377 620 c 257
 404 624 404 624 439 629.5 c 128
 474 635 474 635 506 642 c 128
 538 649 538 649 549 669.5 c 128
 560 690 560 690 540 701 c 257
 545 687 545 687 538 674.5 c 128
 531 662 531 662 509 666 c 257
EndSplineSet
PickledDataWithLists: "(dp1
S'com.adobe.type.autohint'
p2
(S'data'
S'<data>\\n  <hintSetList>\\n    <hintset pointTag=\"hr00\">\\n      <hstem pos=\"0\" width=\"-20\"/>\\n      <hstem pos=\"732\" width=\"-20\"/>\\n    </hintset>\\n  </hintSetList>\\n  </data>'
Ntp3
s."
EndChar

StartChar: U0C27
Encoding: 66 3111 66
GlifName: U0C27_
Width: 711
VWidth: 0
Flags: W
LayerCount: 2
Back
Fore
SplineSet
199 141 m 257
NamedP: "hr00"
 293 232 l 257
 303 221 303 221 322 202 c 128
 341 183 341 183 361 164.5 c 128
 381 146 381 146 398.5 133.5 c 128
 416 121 416 121 423 123 c 257
 445 131 445 131 463.5 143.5 c 128
 482 156 482 156 495 170 c 128
 508 184 508 184 513.5 198.5 c 128
 519 213 519 213 518 224 c 257
 514 257 514 257 496.5 290 c 128
 479 323 479 323 456.5 347 c 128
 434 371 434 371 410 381.5 c 128
 386 392 386 392 370 382 c 257
 385 388 385 388 395.5 381.5 c 128
 406 375 406 375 409 363.5 c 128
 412 352 412 352 406 339 c 128
 400 326 400 326 382 318 c 257
 356 313 356 313 340.5 323 c 128
 325 333 325 333 317 349 c 128
 309 365 309 365 309 382 c 128
 309 399 309 399 315 410 c 257
 324 425 324 425 338 433 c 128
 352 441 352 441 366 444 c 128
 380 447 380 447 391 447 c 128
 402 447 402 447 406 447 c 257
 441 446 441 446 480.5 422 c 128
 520 398 520 398 553 363.5 c 128
 586 329 586 329 607.5 290.5 c 128
 629 252 629 252 629 222 c 257
 629 183 629 183 605 142.5 c 128
 581 102 581 102 547 69.5 c 128
 513 37 513 37 477.5 17 c 128
 442 -3 442 -3 420 -2 c 257
 402 -1 402 -1 381.5 9 c 128
 361 19 361 19 339.5 33.5 c 128
 318 48 318 48 299 64.5 c 128
 280 81 280 81 264 93 c 257
 245 68 245 68 217 47.5 c 128
 189 27 189 27 171 0 c 257
 168 0 168 0 141 20 c 128
 114 40 114 40 82.5 71 c 128
 51 102 51 102 25.5 139.5 c 128
 0 177 0 177 0 212 c 257
 0 238 0 238 18.5 267 c 128
 37 296 37 296 65 324.5 c 128
 93 353 93 353 128 380 c 128
 163 407 163 407 195 426.5 c 128
 227 446 227 446 253.5 458 c 128
 280 470 280 470 292 470 c 257
 305 470 305 470 315.5 466 c 128
 326 462 326 462 333 457.5 c 128
 340 453 340 453 344.5 448.5 c 128
 349 444 349 444 352 444 c 257
 340 444 340 444 331 439 c 128
 322 434 322 434 315 428 c 257
 308 421 308 421 304 413 c 257
 292 406 292 406 265.5 391 c 128
 239 376 239 376 210.5 355.5 c 128
 182 335 182 335 158.5 310 c 128
 135 285 135 285 127.5 257 c 128
 120 229 120 229 135 200 c 128
 150 171 150 171 199 141 c 257
NamedP: "hr00"
509 666 m 257
 497 668 497 668 490.5 678.5 c 128
 484 689 484 689 487 701 c 128
 490 713 490 713 504.5 722.5 c 128
 519 732 519 732 547 732 c 257
 580 732 580 732 594.5 716 c 128
 609 700 609 700 609 678 c 128
 609 656 609 656 597.5 632 c 128
 586 608 586 608 565 593 c 257
 519 557 519 557 465.5 544 c 128
 412 531 412 531 356 524 c 128
 300 517 300 517 244.5 506.5 c 128
 189 496 189 496 139 465 c 257
 150 457 150 457 150.5 447 c 128
 151 437 151 437 145.5 429.5 c 128
 140 422 140 422 130.5 418 c 128
 121 414 121 414 111.5 415.5 c 128
 102 417 102 417 94 426 c 128
 86 435 86 435 84 455 c 257
 80 487 80 487 99 512 c 128
 118 537 118 537 148.5 554.5 c 128
 179 572 179 572 216.5 584 c 128
 254 596 254 596 288 603.5 c 128
 322 611 322 611 347 614.5 c 128
 372 618 372 618 377 620 c 257
 404 624 404 624 439 629.5 c 128
 474 635 474 635 506 642 c 128
 538 649 538 649 549 669.5 c 128
 560 690 560 690 540 701 c 257
 545 687 545 687 538 674.5 c 128
 531 662 531 662 509 666 c 257
367 -43 m 257
 367 -54 367 -54 352 -67 c 128
 337 -80 337 -80 318.5 -90 c 128
 300 -100 300 -100 283 -107 c 128
 266 -114 266 -114 263 -114 c 257
 250 -114 250 -114 234 -108 c 128
 218 -102 218 -102 204 -93 c 128
 190 -84 190 -84 180.5 -72 c 128
 171 -60 171 -60 171 -48 c 257
 171 -37 171 -37 186.5 -24 c 128
 202 -11 202 -11 221 -0.5 c 128
 240 10 240 10 257.5 17.5 c 128
 275 25 275 25 282 25 c 257
 287 25 287 25 294 20.5 c 128
 301 16 301 16 309 11 c 257
 293 12 293 12 275 0.5 c 128
 257 -11 257 -11 247.5 -25 c 128
 238 -39 238 -39 241 -50.5 c 128
 244 -62 244 -62 269 -62 c 257
 275 -62 275 -62 286 -59.5 c 128
 297 -57 297 -57 304.5 -52 c 128
 312 -47 312 -47 313.5 -40.5 c 128
 315 -34 315 -34 303 -25 c 257
 300 -40 300 -40 292.5 -41 c 128
 285 -42 285 -42 278 -36 c 128
 271 -30 271 -30 269 -20 c 128
 267 -10 267 -10 275 -4 c 257
 291 7 291 7 307.5 7.5 c 128
 324 8 324 8 337 1.5 c 128
 350 -5 350 -5 358.5 -17 c 128
 367 -29 367 -29 367 -43 c 257
EndSplineSet
PickledDataWithLists: "(dp1
S'com.adobe.type.autohint'
p2
(S'data'
S'<data>\\n  <hintSetList>\\n    <hintset pointTag=\"hr00\">\\n      <hstem pos=\"-114\" width=\"52\"/>\\n      <hstem pos=\"0\" width=\"-20\"/>\\n      <hstem pos=\"732\" width=\"-20\"/>\\n      <vstem pos=\"171\" width=\"196\"/>\\n    </hintset>\\n  </hintSetList>\\n  </data>'
Ntp3
s."
EndChar

StartChar: U0C28
Encoding: 67 3112 67
GlifName: U0C28_
Width: 740
VWidth: 0
Flags: W
LayerCount: 2
Back
Fore
SplineSet
214 375 m 257
NamedP: "hr00"
 188 385 188 385 160 403 c 128
 132 421 132 421 114 440 c 128
 96 459 96 459 96 481 c 257
 100 522 100 522 145.5 547 c 128
 191 572 191 572 228.5 584 c 128
 266 596 266 596 300 603.5 c 128
 334 611 334 611 359 614.5 c 128
 384 618 384 618 389 620 c 257
 417 624 417 624 451.5 629.5 c 128
 486 635 486 635 518 642 c 128
 550 649 550 649 561 669.5 c 128
 572 690 572 690 552 701 c 257
 557 687 557 687 550.5 674.5 c 128
 544 662 544 662 521 666 c 257
 509 668 509 668 503 678.5 c 128
 497 689 497 689 500 701 c 128
 503 713 503 713 517 722.5 c 128
 531 732 531 732 559 732 c 257
 592 732 592 732 607 716 c 128
 622 700 622 700 622 678 c 128
 622 656 622 656 610 632 c 128
 598 608 598 608 578 593 c 257
 531 557 531 557 477.5 544 c 128
 424 531 424 531 368 524 c 128
 312 517 312 517 244 506.5 c 128
 176 496 176 496 199 470 c 257
 216 457 216 457 259 441 c 257
 266 439 266 439 275 436 c 257
 300 429 300 429 343 414.5 c 128
 386 400 386 400 412 392.5 c 128
 438 385 438 385 481.5 366.5 c 128
 525 348 525 348 563.5 327 c 128
 602 306 602 306 631 277.5 c 128
 660 249 660 249 658 218 c 257
 658 182 658 182 642.5 152.5 c 128
 627 123 627 123 602 99 c 128
 577 75 577 75 546.5 56.5 c 128
 516 38 516 38 487 25.5 c 128
 458 13 458 13 434 7 c 128
 410 1 410 1 397 1 c 257
 376 1 376 1 346 15.5 c 128
 316 30 316 30 284.5 50 c 128
 253 70 253 70 221.5 92.5 c 128
 190 115 190 115 165 132 c 257
 146 126 146 126 136.5 103.5 c 128
 127 81 127 81 129.5 56.5 c 128
 132 32 132 32 147.5 12 c 128
 163 -8 163 -8 195 -10 c 257
 194 2 194 2 205 8 c 128
 216 14 216 14 228 12.5 c 128
 240 11 240 11 245.5 0 c 128
 251 -11 251 -11 239 -34 c 257
 221 -65 221 -65 197 -71.5 c 128
 173 -78 173 -78 150 -79 c 128
 127 -80 127 -80 109.5 -84.5 c 128
 92 -89 92 -89 89 -116 c 257
 74 -109 74 -109 58 -93.5 c 128
 42 -78 42 -78 28.5 -59 c 128
 15 -40 15 -40 7.5 -19 c 128
 0 2 0 2 0 19 c 257
 1 79 1 79 23.5 121 c 128
 46 163 46 163 82 190.5 c 128
 118 218 118 218 163.5 232 c 128
 209 246 209 246 257 249 c 257
 266 228 266 228 282.5 206 c 128
 299 184 299 184 320.5 165.5 c 128
 342 147 342 147 365 131.5 c 128
 388 116 388 116 423 112 c 257
 458 117 458 117 495 142.5 c 128
 532 168 532 168 550 213 c 257
 559 234 559 234 542 249 c 128
 525 264 525 264 501.5 274.5 c 128
 478 285 478 285 432 301.5 c 128
 386 318 386 318 326 335.5 c 128
 266 353 266 353 214 375 c 257
NamedP: "hr00"
EndSplineSet
PickledDataWithLists: "(dp1
S'com.adobe.type.autohint'
p2
(S'data'
S'<data>\\n  <hintSetList>\\n    <hintset pointTag=\"hr00\">\\n      <hstem pos=\"-95\" width=\"-21\"/>\\n      <hstem pos=\"732\" width=\"-20\"/>\\n    </hintset>\\n  </hintSetList>\\n  </data>'
Ntp3
s."
EndChar

StartChar: U0C2A
Encoding: 68 3114 68
GlifName: U0C2A_
Width: 718
VWidth: 0
Flags: W
AnchorPoint: "mark0" 298 -27 basechar 0
LayerCount: 2
Back
Fore
SplineSet
175 223 m 257
NamedP: "hr00"
 147 217 147 217 122.5 203 c 128
 98 189 98 189 98 173 c 257
 98 158 98 158 107.5 146.5 c 128
 117 135 117 135 130 127.5 c 128
 143 120 143 120 159 116.5 c 128
 175 113 175 113 188 113 c 257
 214 113 214 113 235.5 123.5 c 128
 257 134 257 134 267.5 148.5 c 128
 278 163 278 163 273.5 178 c 128
 269 193 269 193 245 202 c 257
 244 194 244 194 243.5 187.5 c 128
 243 181 243 181 240.5 176.5 c 128
 238 172 238 172 232 169.5 c 128
 226 167 226 167 215 167 c 257
 204 167 204 167 195.5 174.5 c 128
 187 182 187 182 183.5 193 c 128
 180 204 180 204 182.5 215.5 c 128
 185 227 185 227 197 234 c 257
 213 243 213 243 222 245 c 128
 231 247 231 247 254 242 c 257
 276 230 276 230 299 216.5 c 128
 322 203 322 203 343.5 190.5 c 128
 365 178 365 178 384 169 c 128
 403 160 403 160 420 158 c 257
 445 165 445 165 464.5 177 c 128
 484 189 484 189 498 203.5 c 128
 512 218 512 218 519 234 c 128
 526 250 526 250 526 264 c 257
 526 274 526 274 522 293 c 128
 518 312 518 312 508 333.5 c 128
 498 355 498 355 480.5 375.5 c 128
 463 396 463 396 435 410 c 257
 432 393 432 393 416.5 390 c 128
 401 387 401 387 388 393.5 c 128
 375 400 375 400 368.5 415 c 128
 362 430 362 430 378 450 c 257
 390 466 390 466 404 468.5 c 128
 418 471 418 471 433 471 c 257
 456 471 456 471 490 450 c 128
 524 429 524 429 556.5 395 c 128
 589 361 589 361 611.5 317.5 c 128
 634 274 634 274 634 229 c 257
 634 198 634 198 615.5 158.5 c 128
 597 119 597 119 569 83.5 c 128
 541 48 541 48 506.5 24 c 128
 472 0 472 0 441 0 c 257
 418 0 418 0 393.5 12 c 128
 369 24 369 24 349 38.5 c 128
 329 53 329 53 314.5 65 c 128
 300 77 300 77 297 77 c 257
 283.5 65 l 130
 270 53 270 53 250.5 38.5 c 128
 231 24 231 24 208.5 12 c 128
 186 0 186 0 167 0 c 257
 138 0 138 0 108.5 12 c 128
 79 24 79 24 54.5 42.5 c 128
 30 61 30 61 15 86 c 128
 0 111 0 111 0 137 c 257
 0 165 0 165 22 189.5 c 128
 44 214 44 214 73 233 c 128
 102 252 102 252 131.5 262.5 c 128
 161 273 161 273 176 273 c 257
 177 273 177 273 183 271.5 c 128
 189 270 189 270 198 267.5 c 128
 207 265 207 265 217 261 c 128
 227 257 227 257 236 253 c 257
 211 255 211 255 197 246.5 c 128
 183 238 183 238 175 223 c 257
NamedP: "hr00"
427 666 m 257
 415 668 415 668 408.5 678.5 c 128
 402 689 402 689 405.5 701 c 128
 409 713 409 713 423 722.5 c 128
 437 732 437 732 465 732 c 257
 498 732 498 732 512.5 716 c 128
 527 700 527 700 527 678 c 128
 527 656 527 656 515.5 632 c 128
 504 608 504 608 483 593 c 257
 437 557 437 557 383.5 544 c 128
 330 531 330 531 274 524 c 128
 218 517 218 517 163 506.5 c 128
 108 496 108 496 57 465 c 257
 68 457 68 457 68.5 447 c 128
 69 437 69 437 63.5 429.5 c 128
 58 422 58 422 48.5 418 c 128
 39 414 39 414 29.5 415.5 c 128
 20 417 20 417 12 426 c 128
 4 435 4 435 2 455 c 257
 -2 487 -2 487 17 512 c 128
 36 537 36 537 66.5 554.5 c 128
 97 572 97 572 134.5 584 c 128
 172 596 172 596 206 603.5 c 128
 240 611 240 611 265 614.5 c 128
 290 618 290 618 295 620 c 257
 323 624 323 624 357.5 629.5 c 128
 392 635 392 635 424 642 c 128
 456 649 456 649 467 669.5 c 128
 478 690 478 690 458 701 c 257
 463 687 463 687 456.5 674.5 c 128
 450 662 450 662 427 666 c 257
EndSplineSet
PickledDataWithLists: "(dp1
S'com.adobe.type.autohint'
p2
(S'data'
S'<data>\\n  <hintSetList>\\n    <hintset pointTag=\"hr00\">\\n      <hstem pos=\"0\" width=\"113\"/>\\n      <hstem pos=\"167\" width=\"106\"/>\\n      <hstem pos=\"732\" width=\"-20\"/>\\n      <vstem pos=\"0\" width=\"98\"/>\\n      <vstem pos=\"526\" width=\"108\"/>\\n    </hintset>\\n  </hintSetList>\\n  </data>'
Ntp3
s."
EndChar

